<svg width="256" height="79" viewBox="0 0 256 79" fill="none" xmlns="http://www.w3.org/2000/svg">
<path d="M144.471 15.8926C142.539 15.8926 140.979 17.4558 140.979 19.3913V56.4874C140.979 58.4229 142.539 59.9861 144.471 59.9861C146.403 59.9861 147.964 58.4229 147.964 56.4874V19.3665C147.964 17.4558 146.403 15.8926 144.471 15.8926Z" fill="#003960"/>
<path d="M119.183 26.885C114.601 26.885 110.663 28.6219 107.815 31.4754V30.7559C107.815 29.0437 106.428 27.6542 104.719 27.6542C103.01 27.6542 101.623 29.0437 101.623 30.7559V66.264C101.623 68.1994 103.208 69.7875 105.14 69.7875C107.072 69.7875 108.657 68.1994 108.657 66.264V56.8596C111.357 59.2417 114.973 60.7305 119.183 60.7305C128.744 60.7305 135.382 53.2369 135.382 43.7829C135.382 34.3042 128.669 26.885 119.183 26.885ZM118.217 54.6016C112.669 54.6016 108.162 50.8548 108.162 43.8078C108.162 36.7607 112.744 33.0139 118.217 33.0139C124.409 33.0139 128.348 37.8525 128.348 43.8078C128.348 49.763 124.409 54.6016 118.217 54.6016Z" fill="#003960"/>
<path d="M206.936 26.885C202.23 26.885 198.688 28.8948 196.409 31.8725V30.7559C196.409 29.0437 195.022 27.6542 193.313 27.6542C191.604 27.6542 190.217 29.0437 190.217 30.7559V56.413C190.217 58.3733 191.803 59.9613 193.759 59.9613C195.716 59.9613 197.301 58.3733 197.301 56.413V41.1031C197.301 36.19 200.645 32.9643 205.375 32.9643C210.279 32.9643 213.177 36.19 213.177 41.1031V56.413C213.177 58.3733 214.762 59.9613 216.719 59.9613C218.676 59.9613 220.261 58.3733 220.261 56.413V40.5076C220.286 32.4928 215.06 26.885 206.936 26.885Z" fill="#003960"/>
<path d="M252.137 54.6512L242.279 42.1204L251.988 31.8725C253.128 30.6318 253.053 28.6963 251.815 27.5549C250.577 26.4135 248.645 26.4879 247.505 27.7286L233.487 42.84V19.4161C233.487 17.4806 231.902 15.8926 229.97 15.8926C228.038 15.8926 226.453 17.4806 226.453 19.4161V56.4626C226.453 58.3981 228.038 59.9861 229.97 59.9861C231.902 59.9861 233.487 58.3981 233.487 56.4626V49.763L237.103 45.9417L246.886 58.671C248.001 60.1102 250.057 60.3832 251.518 59.2665C252.979 58.1748 253.252 56.1152 252.137 54.6512Z" fill="#003960"/>
<path d="M180.087 27.6542C178.156 27.6542 176.57 29.2422 176.57 31.1777V46.5372C176.57 51.4503 173.549 54.6761 168.818 54.6761C164.36 54.6761 161.462 51.4999 161.462 46.8598V31.1777C161.462 29.2422 159.877 27.6542 157.945 27.6542C156.013 27.6542 154.428 29.2422 154.428 31.1777V47.1079C154.428 55.3212 159.654 60.7554 167.406 60.7554C171.914 60.7554 175.282 58.8695 177.413 56.0904V56.8596C177.413 58.5718 178.8 59.9613 180.509 59.9613C182.217 59.9613 183.604 58.5718 183.604 56.8596V31.1777C183.604 29.2174 182.019 27.6542 180.087 27.6542Z" fill="#003960"/>
<path d="M251.097 16.0663H248.496C248.323 16.0663 248.174 16.2152 248.174 16.3888C248.174 16.5625 248.323 16.7114 248.496 16.7114H249.413V19.6394C249.413 19.8379 249.586 20.0116 249.784 20.0116C249.982 20.0116 250.156 19.8379 250.156 19.6394V16.7362H251.072C251.245 16.7362 251.394 16.5874 251.394 16.4137C251.394 16.24 251.27 16.0663 251.097 16.0663Z" fill="#003960"/>
<path d="M256.001 19.6394L255.58 16.3144C255.555 16.1655 255.456 16.0663 255.307 16.0663C255.183 16.0663 255.109 16.1407 255.06 16.24L253.821 18.9446L252.583 16.24C252.533 16.1407 252.434 16.0663 252.335 16.0663C252.187 16.0663 252.063 16.1655 252.063 16.3144L251.666 19.6146C251.666 19.6394 251.666 19.6394 251.666 19.6642C251.666 19.689 251.666 19.689 251.666 19.7139C251.691 19.8875 251.84 20.0364 252.013 20.0364C252.211 20.0364 252.36 19.8875 252.36 19.7139L252.583 17.704L253.549 19.8627C253.598 19.962 253.697 20.0364 253.821 20.0364C253.945 20.0364 254.044 19.962 254.094 19.8627L255.06 17.704L255.282 19.7387C255.307 19.9124 255.456 20.0364 255.629 20.0364C255.827 20.0364 255.976 19.8876 255.976 19.689C256.001 19.6642 256.001 19.6642 256.001 19.6394Z" fill="#003960"/>
<path d="M79.4799 30.9052C79.3808 26.9102 77.3746 23.1882 74.13 20.8805C64.0743 13.7343 53.6966 7.03462 42.9969 0.856065C41.0402 -0.285355 38.613 -0.285355 36.6563 0.856065C25.9567 7.03462 15.5542 13.7094 5.49845 20.8805C2.25387 23.1882 0.247678 26.8854 0.148607 30.9052C0.0495356 34.4783 0 38.0763 0 41.6991C0 49.6394 0.22291 57.5052 0.693498 65.3215C1.06502 71.6985 6.11765 76.8101 12.483 77.232C20.5077 77.7779 28.6316 78.0756 36.7802 78.1501C37.548 78.1501 38.1672 77.5297 38.1672 76.7605V61.401C38.1672 60.731 37.6718 60.1355 37.0279 60.0362C32.4211 59.267 28.2601 57.133 25.0155 54.0562C23.7523 52.8403 22.613 51.4507 21.6223 49.9371C17.7833 44.0811 16.9659 37.1582 18.774 31.1533C19.3189 29.3668 21.0774 28.2005 22.935 28.4238C29.1517 29.1682 35.1455 32.6918 38.9598 38.5477C40.4954 40.905 41.5604 43.4608 42.1548 46.0166C43.0217 44.8255 44.0372 43.7089 45.226 42.7164C49.4861 39.1681 54.8359 37.9522 59.6904 38.9448C60.8793 39.1929 61.7461 40.2351 61.7709 41.4509C61.8452 45.9422 60.0867 50.5078 56.5944 53.9817C53.3251 57.0834 49.1641 59.2422 44.5325 59.9866C43.8638 60.0858 43.3932 60.6814 43.3932 61.3513V76.7109C43.3932 77.4801 44.0124 78.1004 44.805 78.1004C52.3096 78.0012 59.7647 77.7034 67.1703 77.2071C73.5356 76.7605 78.5635 71.6737 78.9597 65.2967C79.4303 57.4804 79.6533 49.6146 79.6533 41.6742C79.6285 38.0763 79.5789 34.4783 79.4799 30.9052Z" fill="url(#paint0_linear_825_68634)"/>
<defs>
<linearGradient id="paint0_linear_825_68634" x1="33.7755" y1="-10.345" x2="47.5706" y2="116.795" gradientUnits="userSpaceOnUse">
<stop offset="0.223" stop-color="#43E7B0"/>
<stop offset="0.9439" stop-color="#4386F5"/>
</linearGradient>
</defs>
</svg>
