<svg width="558" height="500" viewBox="0 0 558 500" fill="none" xmlns="http://www.w3.org/2000/svg">
<g filter="url(#filter0_ddd_130_75899)">
<g clip-path="url(#clip0_130_75899)">
<path d="M10 25C10 16.1635 17.1634 9 26 9H532C540.837 9 548 16.1634 548 25V489H10V25Z" fill="white"/>
<rect x="10" y="9" width="538" height="1062" rx="16" fill="white"/>
<path d="M47.65 48.544V65H51.06V59.148H54.778C57.902 59.148 60.08 57.234 60.08 53.846C60.08 50.458 57.902 48.544 54.778 48.544H47.65ZM51.038 51.536H54.338C55.658 51.536 56.626 52.35 56.626 53.846C56.626 55.342 55.658 56.134 54.338 56.134H51.038V51.536ZM65.4698 65V47.906H62.2578V65H65.4698ZM78.7362 65V53.626H75.5242V60.05C75.5242 61.326 74.8202 62.25 73.5882 62.25C72.3342 62.25 71.7622 61.48 71.7622 60.094V53.626H68.5502V60.776C68.5502 63.548 70.1342 65.242 72.7522 65.242C74.3582 65.242 75.2602 64.56 75.7002 63.856V65H78.7362ZM87.9885 53.406C86.4485 53.406 85.4365 54 84.9305 54.792V53.626H81.8945V65H85.1065V58.686C85.1065 57.322 85.9425 56.398 87.2185 56.398C88.4505 56.398 89.2205 57.212 89.2205 58.664V65H92.4325V58.048C92.4325 55.1 90.6065 53.406 87.9885 53.406ZM98.7062 57.674V47.906H95.4942V65H98.7062V61.986L99.7182 60.886L102.688 65H106.582L101.984 58.488L106.274 53.626H102.38L98.7062 57.674ZM131.434 65V48.544H128.442L122.414 59.852L116.342 48.544H113.328V65H116.738V56.112L121.292 64.824H123.536L128.068 56.112V65H131.434ZM139.126 53.406C136.2 53.406 134.374 55.474 134.374 57.476L137.586 57.608C137.586 56.86 138.07 56.112 139.17 56.112C140.16 56.112 140.644 56.728 140.644 57.872V58.312L138.62 58.422C136.2 58.532 134.066 59.346 134.066 61.876C134.066 64.076 135.562 65.242 137.85 65.242C139.148 65.242 140.116 64.736 140.754 64.076V65H143.856V57.982C143.856 54.99 142.184 53.406 139.126 53.406ZM140.644 60.424V60.908C140.644 62.118 139.764 62.756 138.598 62.756C137.828 62.756 137.278 62.47 137.278 61.722C137.278 60.908 137.96 60.578 138.928 60.534L140.644 60.424ZM153.154 53.516C151.416 53.516 150.514 54.176 150.03 54.924V53.626H146.928V65H150.14V59.236C150.14 57.674 151.306 56.618 153.154 56.618V53.516ZM158.454 57.674V47.906H155.242V65H158.454V61.986L159.466 60.886L162.436 65H166.33L161.732 58.488L166.022 53.626H162.128L158.454 57.674ZM178.006 60.336V59.06C178.006 55.518 175.85 53.406 172.572 53.406C169.184 53.406 166.786 55.65 166.786 59.324C166.786 62.976 169.184 65.242 172.66 65.242C175.322 65.242 177.5 63.702 177.896 61.546L174.662 61.392C174.42 62.184 173.694 62.646 172.572 62.646C171.12 62.646 170.262 61.744 170.196 60.336H178.006ZM172.55 55.914C174.002 55.914 174.706 56.816 174.772 58.202H170.196C170.284 56.75 171.186 55.914 172.55 55.914ZM184.489 56.398H187.173V53.626H184.511L184.533 49.864H181.321L181.299 53.626H179.209V56.398H181.277L181.255 61.392C181.233 64.032 182.927 65.22 185.391 65.22C186.271 65.22 186.711 65.154 187.173 65.088V62.228C186.931 62.272 186.645 62.338 186.183 62.338C185.281 62.338 184.467 61.876 184.467 60.622L184.489 56.398ZM197.884 65V48.544H194.474V65H197.884ZM207.205 53.406C205.665 53.406 204.653 54 204.147 54.792V53.626H201.111V65H204.323V58.686C204.323 57.322 205.159 56.398 206.435 56.398C207.667 56.398 208.437 57.212 208.437 58.664V65H211.649V58.048C211.649 55.1 209.823 53.406 207.205 53.406ZM218.605 53.406C215.745 53.406 214.051 54.814 214.051 56.992C214.051 59.324 215.657 59.83 218.077 60.446C219.727 60.842 220.145 61.062 220.145 61.744C220.145 62.404 219.595 62.778 218.715 62.778C217.615 62.778 217.109 62.206 217.065 61.37L213.853 61.546C214.095 63.922 215.789 65.242 218.693 65.242C221.663 65.242 223.357 63.768 223.357 61.458C223.357 59.39 221.751 58.686 219.485 58.092C218.121 57.74 217.263 57.63 217.263 56.838C217.263 56.222 217.703 55.87 218.561 55.87C219.551 55.87 219.969 56.442 220.013 57.256L223.203 57.08C223.005 54.968 221.487 53.406 218.605 53.406ZM227.446 47.972C226.412 47.972 225.532 48.83 225.532 49.908C225.532 50.964 226.368 51.822 227.446 51.822C228.524 51.822 229.382 50.964 229.382 49.908C229.382 48.83 228.524 47.972 227.446 47.972ZM229.052 65V53.626H225.84V65H229.052ZM237.104 53.406C233.892 53.406 231.626 55.76 231.626 59.324C231.626 62.888 233.892 65.242 237.104 65.242C238.578 65.242 239.7 64.692 240.316 64.032V65.66C240.316 67.288 239.238 68.102 237.654 68.102C236.202 68.102 235.256 67.442 235.102 66.342L231.912 66.452C232.33 69.048 234.2 70.83 237.764 70.83C241.262 70.83 243.506 68.696 243.506 65.418V53.626H240.492V54.814C239.898 54.022 238.71 53.406 237.104 53.406ZM237.632 56.156C239.216 56.156 240.316 57.234 240.316 59.06V59.588C240.316 61.414 239.216 62.492 237.632 62.492C236.026 62.492 234.882 61.348 234.882 59.324C234.882 57.3 236.026 56.156 237.632 56.156ZM249.72 47.906H246.508V65H249.72V58.686C249.72 57.322 250.556 56.398 251.832 56.398C253.064 56.398 253.834 57.212 253.834 58.664V65H257.046V58.048C257.046 55.1 255.22 53.406 252.602 53.406C251.128 53.406 250.204 53.978 249.72 54.594V47.906ZM264.002 56.398H266.686V53.626H264.024L264.046 49.864H260.834L260.812 53.626H258.722V56.398H260.79L260.768 61.392C260.746 64.032 262.44 65.22 264.904 65.22C265.784 65.22 266.224 65.154 266.686 65.088V62.228C266.444 62.272 266.158 62.338 265.696 62.338C264.794 62.338 263.98 61.876 263.98 60.622L264.002 56.398ZM272.853 53.406C269.993 53.406 268.299 54.814 268.299 56.992C268.299 59.324 269.905 59.83 272.325 60.446C273.975 60.842 274.393 61.062 274.393 61.744C274.393 62.404 273.843 62.778 272.963 62.778C271.863 62.778 271.357 62.206 271.313 61.37L268.101 61.546C268.343 63.922 270.037 65.242 272.941 65.242C275.911 65.242 277.605 63.768 277.605 61.458C277.605 59.39 275.999 58.686 273.733 58.092C272.369 57.74 271.511 57.63 271.511 56.838C271.511 56.222 271.951 55.87 272.809 55.87C273.799 55.87 274.217 56.442 274.261 57.256L277.451 57.08C277.253 54.968 275.735 53.406 272.853 53.406ZM283.269 48.486V47.1264H278.781V48.486H280.312V51.8652H281.725V48.486H283.269ZM289.539 51.8652V47.1264H288.338L286.741 49.9908L285.144 47.1264H283.942V51.8652H285.355V49.9116L286.424 51.8124H287.058L288.127 49.9116V51.8652H289.539Z" fill="#003960"/>
<path d="M51.436 86.924C49.294 86.924 47.908 88.274 47.908 90.488V91.766H46.162V93.512H47.908V101H49.924V93.512H52.192V91.766H49.924V90.434C49.924 89.354 50.626 88.688 51.652 88.688C51.904 88.688 52.066 88.706 52.228 88.724V86.978C51.994 86.942 51.778 86.924 51.436 86.924ZM58.1748 91.604C55.4208 91.604 53.3508 93.458 53.3508 96.392C53.3508 99.308 55.4208 101.18 58.1748 101.18C60.9108 101.18 62.9808 99.308 62.9808 96.392C62.9808 93.458 60.9108 91.604 58.1748 91.604ZM58.1748 93.332C59.7588 93.332 60.9468 94.466 60.9468 96.392C60.9468 98.3 59.7588 99.434 58.1748 99.434C56.5728 99.434 55.4028 98.3 55.4028 96.392C55.4028 94.466 56.5728 93.332 58.1748 93.332ZM69.925 91.658C68.449 91.658 67.639 92.342 67.297 93.062V91.766H65.335V101H67.351V95.978C67.351 94.628 68.341 93.62 69.925 93.62V91.658ZM79.8757 87.356C77.2477 87.356 75.2677 89.084 75.2677 91.784C75.2677 94.448 77.2117 96.23 79.8217 96.266L76.3477 101H78.9037L83.5477 94.628C84.1417 93.8 84.5017 92.918 84.5017 91.784C84.5017 89.084 82.5217 87.356 79.8757 87.356ZM79.8757 94.394C78.4537 94.394 77.4277 93.458 77.4277 91.856C77.4277 90.254 78.4537 89.264 79.8757 89.264C81.3157 89.264 82.3237 90.254 82.3237 91.856C82.3237 92.558 82.1437 93.098 81.8197 93.53C81.3877 94.106 80.7037 94.394 79.8757 94.394ZM90.7231 87.356C88.3291 87.356 86.5471 88.724 86.5471 91.046C86.5471 92.378 87.1951 93.35 88.2031 93.872C87.0151 94.448 86.2231 95.582 86.2231 97.13C86.2231 99.65 88.1671 101.18 90.7411 101.18C93.3151 101.18 95.2591 99.65 95.2591 97.13C95.2591 95.564 94.4491 94.43 93.2611 93.854C94.2511 93.332 94.9171 92.378 94.9171 91.046C94.9171 88.724 93.0991 87.356 90.7231 87.356ZM90.7411 89.264C91.9111 89.264 92.7931 89.948 92.7931 91.154C92.7931 92.324 91.9111 93.008 90.7411 93.008C89.5891 93.008 88.6891 92.324 88.6891 91.154C88.6891 89.948 89.5891 89.264 90.7411 89.264ZM90.7231 94.88C92.0911 94.88 93.1171 95.672 93.1171 97.076C93.1171 98.462 92.0911 99.272 90.7231 99.272C89.3911 99.272 88.3471 98.462 88.3471 97.076C88.3471 95.672 89.3911 94.88 90.7231 94.88ZM102.035 87.356C99.0651 87.356 97.0671 89.804 97.0671 94.268C97.0671 98.714 99.0651 101.18 102.035 101.18C104.987 101.18 106.985 98.714 106.985 94.268C106.985 89.804 104.987 87.356 102.035 87.356ZM102.035 89.264C103.871 89.264 104.807 90.992 104.807 94.268C104.807 97.544 103.871 99.272 102.035 99.272C100.181 99.272 99.2451 97.544 99.2451 94.268C99.2451 90.992 100.181 89.264 102.035 89.264ZM113.689 87.356C110.719 87.356 108.721 89.804 108.721 94.268C108.721 98.714 110.719 101.18 113.689 101.18C116.641 101.18 118.639 98.714 118.639 94.268C118.639 89.804 116.641 87.356 113.689 87.356ZM113.689 89.264C115.525 89.264 116.461 90.992 116.461 94.268C116.461 97.544 115.525 99.272 113.689 99.272C111.835 99.272 110.899 97.544 110.899 94.268C110.899 90.992 111.835 89.264 113.689 89.264ZM127.756 96.266V87.536H125.956L119.998 96.41V98.174H125.65V101H127.756V98.174H129.862V96.266H127.756ZM122.356 96.266L125.632 91.406V96.266H122.356Z" fill="#003960"/>
<rect x="135" y="97" width="2" height="4" rx="1" transform="rotate(-90 135 97)" fill="#BFCDD7"/>
<path d="M150.92 88.032H149.448V96.24C149.448 97.968 148.616 98.848 147.192 98.848C145.8 98.848 144.92 97.888 144.84 96.192L143.368 96.432C143.496 98.736 144.92 100.16 147.192 100.16C149.496 100.16 150.92 98.72 150.92 96.208V88.032ZM160.33 100V91.84H158.954V96.608C158.954 97.808 158.186 98.864 156.89 98.864C155.658 98.864 154.97 98.016 154.97 96.688V91.84H153.594V96.88C153.594 98.832 154.746 100.16 156.57 100.16C157.93 100.16 158.714 99.44 159.018 98.784V100H160.33ZM166.967 91.696C165.671 91.696 164.823 92.32 164.423 93.056V91.84H163.111V100H164.487V95.232C164.487 94 165.383 92.976 166.679 92.976C167.911 92.976 168.743 93.856 168.743 95.216V100H170.135V95.04C170.135 92.992 168.807 91.696 166.967 91.696ZM180.077 96.448V95.696C180.077 93.28 178.669 91.696 176.333 91.696C174.013 91.696 172.317 93.264 172.317 95.92C172.317 98.576 174.029 100.16 176.365 100.16C178.253 100.16 179.661 99.056 179.997 97.584L178.621 97.504C178.349 98.416 177.533 98.96 176.333 98.96C174.893 98.96 173.853 98.016 173.773 96.448H180.077ZM176.317 92.896C177.869 92.896 178.669 93.904 178.701 95.328H173.773C173.869 93.744 174.909 92.896 176.317 92.896ZM192.974 89.216V88.032H185.102V89.328H191.358L185.742 100H187.358L192.974 89.216ZM197.887 98.864C197.087 98.864 196.447 98.464 196.447 97.28L196.479 93.04H198.671V91.84H196.479L196.495 89.024H195.103L195.087 91.84H193.567V93.04H195.087L195.071 97.552C195.055 99.344 196.095 100.112 197.583 100.112C198.095 100.112 198.415 100.064 198.687 100.016V98.784C198.495 98.816 198.223 98.864 197.887 98.864ZM201.846 87.568H200.47V100H201.846V95.232C201.846 94 202.742 92.976 204.038 92.976C205.27 92.976 206.102 93.856 206.102 95.216V100H207.494V95.04C207.494 92.992 206.166 91.696 204.326 91.696C203.062 91.696 202.214 92.32 201.846 92.96V87.568ZM210.351 98.272C209.823 98.272 209.439 98.704 209.439 99.216C209.439 99.728 209.871 100.128 210.367 100.128C210.287 100.784 209.983 101.344 209.423 101.76V102.384C210.687 101.664 211.231 100.592 211.231 99.344C211.231 98.72 210.911 98.272 210.351 98.272ZM220.166 87.888C217.942 87.888 216.662 89.232 216.63 91.504L218.086 91.584C218.102 90.08 218.806 89.184 220.198 89.184C221.462 89.184 222.134 90.032 222.134 91.296C222.134 92.832 221.526 93.696 220.166 95.12L216.662 98.816V100H223.75V98.704H218.662L221.254 95.984C222.598 94.576 223.606 93.232 223.606 91.232C223.606 89.152 222.374 87.888 220.166 87.888ZM229.512 87.872C226.888 87.872 225.192 90.064 225.192 94.016C225.192 97.968 226.888 100.16 229.512 100.16C232.104 100.16 233.8 97.968 233.8 94.016C233.8 90.064 232.104 87.872 229.512 87.872ZM229.496 89.184C231.32 89.184 232.328 90.848 232.328 94.016C232.328 97.184 231.32 98.848 229.496 98.848C227.656 98.848 226.68 97.184 226.68 94.016C226.68 90.848 227.656 89.184 229.496 89.184ZM239.041 87.888C236.817 87.888 235.537 89.232 235.505 91.504L236.961 91.584C236.977 90.08 237.681 89.184 239.073 89.184C240.337 89.184 241.009 90.032 241.009 91.296C241.009 92.832 240.401 93.696 239.041 95.12L235.537 98.816V100H242.625V98.704H237.537L240.129 95.984C241.473 94.576 242.481 93.232 242.481 91.232C242.481 89.152 241.249 87.888 239.041 87.888ZM247.619 87.888C245.395 87.888 244.115 89.232 244.083 91.504L245.539 91.584C245.555 90.08 246.259 89.184 247.651 89.184C248.915 89.184 249.587 90.032 249.587 91.296C249.587 92.832 248.979 93.696 247.619 95.12L244.115 98.816V100H251.203V98.704H246.115L248.707 95.984C250.051 94.576 251.059 93.232 251.059 91.232C251.059 89.152 249.827 87.888 247.619 87.888Z" fill="#809CAF"/>
<path d="M51.904 146.338C48.682 146.338 47.116 148.246 47.116 150.46C47.116 153.07 49.132 153.772 51.562 154.384C53.362 154.834 54.334 155.212 54.334 156.238C54.334 157.336 53.452 157.786 52.21 157.786C50.752 157.786 49.69 156.958 49.636 155.734L46.81 155.878C46.846 158.668 49.096 160.198 52.21 160.198C54.91 160.198 57.16 158.938 57.16 156.076C57.16 153.682 55.342 152.818 52.588 152.116C50.734 151.684 49.96 151.396 49.96 150.37C49.96 149.416 50.68 148.75 51.958 148.75C53.236 148.75 54.028 149.488 54.046 150.622L56.89 150.478C56.818 147.886 54.82 146.338 51.904 146.338ZM63.0785 150.514C60.6845 150.514 59.1905 152.206 59.1905 153.844L61.8185 153.952C61.8185 153.34 62.2145 152.728 63.1145 152.728C63.9245 152.728 64.3205 153.232 64.3205 154.168V154.528L62.6645 154.618C60.6845 154.708 58.9385 155.374 58.9385 157.444C58.9385 159.244 60.1625 160.198 62.0345 160.198C63.0965 160.198 63.8885 159.784 64.4105 159.244V160H66.9485V154.258C66.9485 151.81 65.5805 150.514 63.0785 150.514ZM64.3205 156.256V156.652C64.3205 157.642 63.6005 158.164 62.6465 158.164C62.0165 158.164 61.5665 157.93 61.5665 157.318C61.5665 156.652 62.1245 156.382 62.9165 156.346L64.3205 156.256ZM72.09 160V146.014H69.462V160H72.09ZM83.3763 156.184V155.14C83.3763 152.242 81.6123 150.514 78.9303 150.514C76.1583 150.514 74.1963 152.35 74.1963 155.356C74.1963 158.344 76.1583 160.198 79.0023 160.198C81.1803 160.198 82.9623 158.938 83.2863 157.174L80.6403 157.048C80.4423 157.696 79.8483 158.074 78.9303 158.074C77.7423 158.074 77.0403 157.336 76.9863 156.184H83.3763ZM78.9123 152.566C80.1003 152.566 80.6763 153.304 80.7303 154.438H76.9863C77.0583 153.25 77.7963 152.566 78.9123 152.566ZM94.4327 160L98.4467 150.694H95.5487L93.3887 156.166L91.2107 150.694H88.3127L92.3267 160H94.4327ZM103.023 150.514C100.683 150.514 99.297 151.666 99.297 153.448C99.297 155.356 100.611 155.77 102.591 156.274C103.941 156.598 104.283 156.778 104.283 157.336C104.283 157.876 103.833 158.182 103.113 158.182C102.213 158.182 101.799 157.714 101.763 157.03L99.135 157.174C99.333 159.118 100.719 160.198 103.095 160.198C105.525 160.198 106.911 158.992 106.911 157.102C106.911 155.41 105.597 154.834 103.743 154.348C102.627 154.06 101.925 153.97 101.925 153.322C101.925 152.818 102.285 152.53 102.987 152.53C103.797 152.53 104.139 152.998 104.175 153.664L106.785 153.52C106.623 151.792 105.381 150.514 103.023 150.514ZM109.844 157.012C108.962 157.012 108.26 157.714 108.26 158.614C108.26 159.496 108.962 160.198 109.844 160.198C110.726 160.198 111.446 159.496 111.446 158.614C111.446 157.714 110.726 157.012 109.844 157.012ZM120.113 160V146.014H117.485V160H120.113ZM124.038 146.068C123.192 146.068 122.472 146.77 122.472 147.652C122.472 148.516 123.156 149.218 124.038 149.218C124.92 149.218 125.622 148.516 125.622 147.652C125.622 146.77 124.92 146.068 124.038 146.068ZM125.352 160V150.694H122.724V160H125.352ZM131.148 150.514C128.808 150.514 127.422 151.666 127.422 153.448C127.422 155.356 128.736 155.77 130.716 156.274C132.066 156.598 132.408 156.778 132.408 157.336C132.408 157.876 131.958 158.182 131.238 158.182C130.338 158.182 129.924 157.714 129.888 157.03L127.26 157.174C127.458 159.118 128.844 160.198 131.22 160.198C133.65 160.198 135.036 158.992 135.036 157.102C135.036 155.41 133.722 154.834 131.868 154.348C130.752 154.06 130.05 153.97 130.05 153.322C130.05 152.818 130.41 152.53 131.112 152.53C131.922 152.53 132.264 152.998 132.3 153.664L134.91 153.52C134.748 151.792 133.506 150.514 131.148 150.514ZM140.289 152.962H142.485V150.694H140.307L140.325 147.616H137.697L137.679 150.694H135.969V152.962H137.661L137.643 157.048C137.625 159.208 139.011 160.18 141.027 160.18C141.747 160.18 142.107 160.126 142.485 160.072V157.732C142.287 157.768 142.053 157.822 141.675 157.822C140.937 157.822 140.271 157.444 140.271 156.418L140.289 152.962ZM153.643 150.514C152.347 150.514 151.375 151.018 150.889 151.666V150.694H148.405V164.59H151.033V159.208C151.519 159.748 152.455 160.198 153.643 160.198C156.289 160.198 158.143 158.272 158.143 155.356C158.143 152.44 156.289 150.514 153.643 150.514ZM153.229 152.764C154.543 152.764 155.479 153.7 155.479 155.356C155.479 157.012 154.543 157.948 153.229 157.948C151.933 157.948 151.033 157.066 151.033 155.572V155.14C151.033 153.646 151.933 152.764 153.229 152.764ZM165.329 150.604C163.907 150.604 163.169 151.144 162.773 151.756V150.694H160.235V160H162.863V155.284C162.863 154.006 163.817 153.142 165.329 153.142V150.604ZM168.352 146.068C167.506 146.068 166.786 146.77 166.786 147.652C166.786 148.516 167.47 149.218 168.352 149.218C169.234 149.218 169.936 148.516 169.936 147.652C169.936 146.77 169.234 146.068 168.352 146.068ZM169.666 160V150.694H167.038V160H169.666ZM176.542 150.514C173.788 150.514 171.772 152.296 171.772 155.356C171.772 158.398 173.806 160.198 176.542 160.198C178.828 160.198 180.592 158.848 180.952 156.652L178.396 156.418C178.252 157.354 177.568 157.93 176.542 157.93C175.318 157.93 174.436 156.994 174.436 155.356C174.436 153.7 175.318 152.764 176.542 152.764C177.55 152.764 178.252 153.376 178.378 154.33L180.952 154.114C180.61 151.864 178.81 150.514 176.542 150.514ZM191.605 156.184V155.14C191.605 152.242 189.841 150.514 187.159 150.514C184.387 150.514 182.425 152.35 182.425 155.356C182.425 158.344 184.387 160.198 187.231 160.198C189.409 160.198 191.191 158.938 191.515 157.174L188.869 157.048C188.671 157.696 188.077 158.074 187.159 158.074C185.971 158.074 185.269 157.336 185.215 156.184H191.605ZM187.141 152.566C188.329 152.566 188.905 153.304 188.959 154.438H185.215C185.287 153.25 186.025 152.566 187.141 152.566Z" fill="#003960"/>
<path fill-rule="evenodd" clip-rule="evenodd" d="M208.999 161.667C212.405 161.667 215.166 158.906 215.166 155.5C215.166 152.095 212.405 149.334 208.999 149.334C205.594 149.334 202.833 152.095 202.833 155.5C202.833 158.906 205.594 161.667 208.999 161.667ZM208.999 162.834C204.949 162.834 201.666 159.55 201.666 155.5C201.666 151.45 204.949 148.167 208.999 148.167C213.049 148.167 216.333 151.45 216.333 155.5C216.333 159.55 213.049 162.834 208.999 162.834ZM208.266 154.767H209.733V159.167H208.266V154.767ZM208.999 153.3C209.404 153.3 209.733 152.972 209.733 152.567C209.733 152.162 209.404 151.834 208.999 151.834C208.594 151.834 208.266 152.162 208.266 152.567C208.266 152.972 208.594 153.3 208.999 153.3Z" fill="#BFCDD7"/>
<path opacity="0.75" d="M70.952 182L67.148 173.024H65.936L62.144 182H63.704L64.544 179.996H68.552L69.38 182H70.952ZM65.096 178.724L66.56 175.232L68.012 178.724H65.096ZM74.6251 175.736C72.8491 175.736 71.5411 176.9 71.5411 178.928C71.5411 180.944 72.8611 182.12 74.6251 182.12C76.1251 182.12 77.2291 181.256 77.4691 179.852L76.1491 179.732C76.0291 180.488 75.4651 180.956 74.6251 180.956C73.6411 180.956 72.9091 180.224 72.9091 178.928C72.9091 177.62 73.6291 176.888 74.6251 176.888C75.4411 176.888 76.0411 177.38 76.1371 178.184L77.4571 178.064C77.2531 176.612 76.1011 175.736 74.6251 175.736ZM81.5969 180.884C81.0449 180.884 80.5769 180.632 80.5769 179.828L80.5889 177.008H82.1609V175.844H80.6009L80.6129 173.756H79.2569L79.2449 175.844H78.1049V177.008H79.2449L79.2329 180.104C79.2209 181.496 80.0609 182.096 81.2729 182.096C81.7049 182.096 81.9449 182.06 82.1729 182.024V180.824C82.0289 180.848 81.8489 180.884 81.5969 180.884ZM88.6761 182V175.844H87.3321V179.36C87.3321 180.164 86.8401 180.86 86.0001 180.86C85.1841 180.86 84.7521 180.32 84.7521 179.432V175.844H83.4081V179.636C83.4081 181.124 84.2721 182.12 85.6641 182.12C86.6241 182.12 87.1761 181.652 87.4041 181.196V182H88.6761ZM92.8485 175.736C91.3125 175.736 90.4005 176.828 90.4005 177.908L91.7565 177.956C91.7565 177.404 92.0925 176.912 92.8605 176.912C93.6165 176.912 93.9525 177.404 93.9525 178.196V178.376L92.4885 178.46C91.2285 178.532 90.2325 179 90.2325 180.32C90.2325 181.472 91.0605 182.12 92.2845 182.12C92.9685 182.12 93.5205 181.856 93.9525 181.448V182H95.3085V178.172C95.3085 176.6 94.4325 175.736 92.8485 175.736ZM93.9645 179.42V179.636C93.9645 180.572 93.3645 180.992 92.5125 180.992C91.9725 180.992 91.5885 180.812 91.5885 180.296C91.5885 179.744 92.0445 179.54 92.6805 179.504L93.9645 179.42ZM98.5348 182V172.676H97.1908V182H98.5348Z" fill="#809CAF"/>
<circle cx="52" cy="177" r="4.5" fill="white" stroke="#4199EB" stroke-width="3"/>
<path opacity="0.6" d="M133.964 173.024H132.26L129.164 177.272C128.768 177.824 128.528 178.412 128.528 179.168C128.528 180.968 129.848 182.12 131.612 182.12C133.364 182.12 134.684 180.968 134.684 179.168C134.684 177.392 133.388 176.204 131.648 176.18L133.964 173.024ZM131.612 180.848C130.652 180.848 129.98 180.188 129.98 179.12C129.98 178.652 130.1 178.292 130.316 178.004C130.604 177.62 131.06 177.428 131.612 177.428C132.56 177.428 133.244 178.052 133.244 179.12C133.244 180.188 132.56 180.848 131.612 180.848ZM139.072 172.904C137.092 172.904 135.76 174.536 135.76 177.512C135.76 180.476 137.092 182.12 139.072 182.12C141.04 182.12 142.372 180.476 142.372 177.512C142.372 174.536 141.04 172.904 139.072 172.904ZM139.072 174.176C140.296 174.176 140.92 175.328 140.92 177.512C140.92 179.696 140.296 180.848 139.072 180.848C137.836 180.848 137.212 179.696 137.212 177.512C137.212 175.328 137.836 174.176 139.072 174.176ZM152.606 182V172.676H151.262V176.588C150.926 176.108 150.23 175.736 149.306 175.736C147.59 175.736 146.342 176.96 146.342 178.928C146.342 180.884 147.59 182.12 149.306 182.12C150.266 182.12 150.998 181.712 151.334 181.148V182H152.606ZM149.522 176.888C150.53 176.888 151.262 177.548 151.262 178.76V179.084C151.262 180.308 150.53 180.956 149.522 180.956C148.478 180.956 147.71 180.236 147.71 178.928C147.71 177.62 148.478 176.888 149.522 176.888ZM156.786 175.736C155.25 175.736 154.338 176.828 154.338 177.908L155.694 177.956C155.694 177.404 156.03 176.912 156.798 176.912C157.554 176.912 157.89 177.404 157.89 178.196V178.376L156.426 178.46C155.166 178.532 154.17 179 154.17 180.32C154.17 181.472 154.998 182.12 156.222 182.12C156.906 182.12 157.458 181.856 157.89 181.448V182H159.246V178.172C159.246 176.6 158.37 175.736 156.786 175.736ZM157.902 179.42V179.636C157.902 180.572 157.302 180.992 156.45 180.992C155.91 180.992 155.526 180.812 155.526 180.296C155.526 179.744 155.982 179.54 156.618 179.504L157.902 179.42ZM162.63 185.06L166.542 175.844H165.042L163.386 180.056L161.73 175.844H160.23L162.666 181.568L161.154 185.06H162.63ZM172.677 175.736C171.141 175.736 170.229 176.828 170.229 177.908L171.585 177.956C171.585 177.404 171.921 176.912 172.689 176.912C173.445 176.912 173.781 177.404 173.781 178.196V178.376L172.317 178.46C171.057 178.532 170.061 179 170.061 180.32C170.061 181.472 170.889 182.12 172.113 182.12C172.797 182.12 173.349 181.856 173.781 181.448V182H175.137V178.172C175.137 176.6 174.261 175.736 172.677 175.736ZM173.793 179.42V179.636C173.793 180.572 173.193 180.992 172.341 180.992C171.801 180.992 171.417 180.812 171.417 180.296C171.417 179.744 171.873 179.54 172.509 179.504L173.793 179.42ZM179.817 182L182.469 175.844H180.981L179.277 179.96L177.549 175.844H176.073L178.737 182H179.817ZM188.88 179.432V178.772C188.88 176.9 187.764 175.736 186 175.736C184.212 175.736 182.928 176.924 182.928 178.928C182.928 180.92 184.224 182.12 186.036 182.12C187.464 182.12 188.58 181.244 188.82 180.152L187.464 180.08C187.296 180.632 186.78 180.956 186 180.956C185.064 180.956 184.428 180.368 184.356 179.432H188.88ZM185.988 176.888C186.984 176.888 187.488 177.488 187.524 178.376H184.368C184.44 177.416 185.088 176.888 185.988 176.888ZM193.497 175.772C192.513 175.772 191.973 176.228 191.745 176.708V175.844H190.437V182H191.781V178.652C191.781 177.752 192.441 177.08 193.497 177.08V175.772ZM196.958 175.736C195.422 175.736 194.51 176.828 194.51 177.908L195.866 177.956C195.866 177.404 196.202 176.912 196.97 176.912C197.726 176.912 198.062 177.404 198.062 178.196V178.376L196.598 178.46C195.338 178.532 194.342 179 194.342 180.32C194.342 181.472 195.17 182.12 196.394 182.12C197.078 182.12 197.63 181.856 198.062 181.448V182H199.418V178.172C199.418 176.6 198.542 175.736 196.958 175.736ZM198.074 179.42V179.636C198.074 180.572 197.474 180.992 196.622 180.992C196.082 180.992 195.698 180.812 195.698 180.296C195.698 179.744 196.154 179.54 196.79 179.504L198.074 179.42ZM203.88 175.736C202.164 175.736 200.916 176.972 200.916 178.928C200.916 180.896 202.164 182.12 203.88 182.12C204.804 182.12 205.5 181.748 205.836 181.268V182.396C205.836 183.464 205.14 184.028 204.12 184.028C203.22 184.028 202.56 183.584 202.44 182.864L201.096 182.912C201.336 184.244 202.344 185.168 204.156 185.168C205.98 185.168 207.18 184.064 207.18 182.3V175.844H205.908V176.708C205.572 176.144 204.84 175.736 203.88 175.736ZM204.096 176.9C205.104 176.9 205.836 177.548 205.836 178.772V179.096C205.836 180.308 205.104 180.968 204.096 180.968C203.052 180.968 202.284 180.236 202.284 178.928C202.284 177.62 203.052 176.9 204.096 176.9ZM214.626 179.432V178.772C214.626 176.9 213.51 175.736 211.746 175.736C209.958 175.736 208.674 176.924 208.674 178.928C208.674 180.92 209.97 182.12 211.782 182.12C213.21 182.12 214.326 181.244 214.566 180.152L213.21 180.08C213.042 180.632 212.526 180.956 211.746 180.956C210.81 180.956 210.174 180.368 210.102 179.432H214.626ZM211.734 176.888C212.73 176.888 213.234 177.488 213.27 178.376H210.114C210.186 177.416 210.834 176.888 211.734 176.888Z" fill="#809CAF"/>
<circle cx="120" cy="177" r="4" fill="#BFCDD7"/>
<path d="M55.5336 244.872C53.1976 244.872 51.4376 246.408 51.4376 248.808C51.4376 251.176 53.1656 252.76 55.4856 252.792L52.3976 257H54.6696L58.7976 251.336C59.3256 250.6 59.6456 249.816 59.6456 248.808C59.6456 246.408 57.8856 244.872 55.5336 244.872ZM55.5336 251.128C54.2696 251.128 53.3576 250.296 53.3576 248.872C53.3576 247.448 54.2696 246.568 55.5336 246.568C56.8136 246.568 57.7096 247.448 57.7096 248.872C57.7096 249.496 57.5496 249.976 57.2616 250.36C56.8776 250.872 56.2696 251.128 55.5336 251.128ZM65.1118 244.872C62.7758 244.872 61.0158 246.408 61.0158 248.808C61.0158 251.176 62.7438 252.76 65.0638 252.792L61.9758 257H64.2478L68.3758 251.336C68.9038 250.6 69.2238 249.816 69.2238 248.808C69.2238 246.408 67.4638 244.872 65.1118 244.872ZM65.1118 251.128C63.8478 251.128 62.9358 250.296 62.9358 248.872C62.9358 247.448 63.8478 246.568 65.1118 246.568C66.3918 246.568 67.2878 247.448 67.2878 248.872C67.2878 249.496 67.1278 249.976 66.8398 250.36C66.4558 250.872 65.8478 251.128 65.1118 251.128ZM71.7299 254.856C71.1059 254.856 70.5939 255.368 70.5939 256.024C70.5939 256.648 71.1059 257.16 71.7299 257.16C72.3699 257.16 72.8979 256.648 72.8979 256.024C72.8979 255.368 72.3699 254.856 71.7299 254.856ZM81.7549 246.568V245.032H73.8829V246.712H79.6589L74.4589 257H76.5549L81.7549 246.568ZM85.4515 244.872C83.8995 244.872 82.7475 245.992 82.7475 247.784C82.7475 249.56 83.8995 250.712 85.4515 250.712C87.0195 250.712 88.1555 249.56 88.1555 247.784C88.1555 245.992 87.0195 244.872 85.4515 244.872ZM85.8515 257L94.0595 245.032H92.3155L84.1075 257H85.8515ZM85.4515 246.136C86.2675 246.136 86.8275 246.744 86.8275 247.784C86.8275 248.84 86.2515 249.448 85.4515 249.448C84.6515 249.448 84.0755 248.824 84.0755 247.784C84.0755 246.744 84.6515 246.136 85.4515 246.136ZM92.7155 251.32C91.1635 251.32 90.0115 252.44 90.0115 254.232C90.0115 256.008 91.1635 257.16 92.7155 257.16C94.2835 257.16 95.4195 256.008 95.4195 254.232C95.4195 252.44 94.2835 251.32 92.7155 251.32ZM92.7155 252.584C93.5315 252.584 94.0915 253.192 94.0915 254.232C94.0915 255.288 93.5315 255.896 92.7155 255.896C91.9155 255.896 91.3395 255.272 91.3395 254.232C91.3395 253.192 91.8995 252.584 92.7155 252.584Z" fill="#406A88"/>
<rect opacity="0.75" x="112" y="241" width="279" height="2" fill="#E6EBEF"/>
<path d="M393 226.319L389.034 224.491C388.004 224.015 386.882 223.769 385.747 223.769V223.769C383.343 223.769 381.071 222.668 379.582 220.78L376.41 216.758L370.88 208.473L366.611 199.618C365.84 198.017 364.22 197 362.443 197V197C360.816 197 359.308 197.855 358.472 199.251L354.48 205.923L348.95 215.484L344.498 225.746C343.812 227.327 342.486 228.543 340.851 229.089V229.089C338.887 229.746 336.724 229.356 335.112 228.056L334.338 227.431C332.934 226.299 331.185 225.681 329.382 225.681H326.796L321.108 226.319L317.223 226.767C316.138 226.892 315.09 227.237 314.144 227.782L310.59 229.831C310.229 230.038 309.885 230.274 309.561 230.536L307.514 232.187C305.707 233.645 303.192 233.845 301.177 232.692V232.692C299.761 231.883 298.064 231.725 296.524 232.262L295.924 232.471C294.333 233.025 292.994 234.132 292.15 235.59L290.072 239.183C288.745 241.477 286.295 242.89 283.645 242.89V242.89C282.819 242.89 281.999 243.028 281.219 243.298L279.384 243.932C277.772 244.489 276.005 244.387 274.468 243.647L273.766 243.309C272.25 242.579 270.468 242.659 269.022 243.521V243.521C267.115 244.659 264.687 244.407 263.055 242.902L261.55 241.515C260.712 240.742 259.713 240.163 258.625 239.82L254.848 238.63C254.423 238.496 254.01 238.327 253.614 238.124L252.615 237.614C250.466 236.517 247.935 236.448 245.73 237.428L244.099 238.152C243.685 238.336 243.287 238.555 242.91 238.806L239.661 240.972C238.518 241.733 237.629 242.818 237.107 244.089L235.44 248.148C234.182 251.211 230.09 251.784 228.039 249.184V249.184C227.429 248.411 226.573 247.868 225.613 247.647L221.566 246.714L216.036 244.802L212.151 242.932C211.068 242.41 209.882 242.14 208.681 242.14H207.745C205.951 242.14 204.209 241.537 202.799 240.428L199.446 237.791L193.916 232.055V232.055C191.164 229.027 186.269 229.518 184.174 233.032L182.855 235.242L178.461 240.723C177.713 241.656 176.766 242.409 175.689 242.927L175.265 243.132C173.072 244.187 170.518 244.187 168.325 243.132L166.265 242.14L161.28 240.112C160.917 239.964 160.544 239.844 160.163 239.751L156.373 238.826C155.599 238.637 154.857 238.333 154.172 237.924L151.349 236.241C150.249 235.584 149.322 234.673 148.647 233.584L145.023 227.736C144.443 226.801 143.678 225.996 142.773 225.37L138.614 222.495L138.5 222.429C135.317 220.595 131.295 221.163 128.746 223.808L128.126 224.451C127.746 224.845 127.407 225.277 127.115 225.741L122.024 233.826L117.215 240.248C116.609 241.058 115.854 241.745 114.992 242.274L110 245.333" stroke="#BFCDD7" stroke-width="2" stroke-linecap="round" stroke-linejoin="round"/>
<path d="M110 241.474L115.735 233.826L120.833 225.741C121.125 225.277 121.464 224.845 121.845 224.451L122.475 223.798C125.024 221.159 129.041 220.591 132.221 222.421L132.349 222.495L136.514 225.371C137.42 225.996 138.186 226.801 138.766 227.736L142.397 233.585C143.072 234.674 143.999 235.584 145.1 236.24L147.93 237.926C148.615 238.333 149.356 238.637 150.13 238.825L153.929 239.751C154.31 239.844 154.683 239.964 155.046 240.112L160.039 242.14L162.11 243.136C164.301 244.189 166.852 244.189 169.043 243.136L169.479 242.926C170.556 242.409 171.503 241.656 172.251 240.724L176.653 235.242L177.972 233.034C180.072 229.517 184.971 229.025 187.729 232.055V232.055L193.267 237.791L196.629 240.432C198.039 241.538 199.778 242.14 201.57 242.14H202.519C203.72 242.14 204.904 242.41 205.986 242.93L209.881 244.802L215.419 246.714L219.472 247.647C220.433 247.868 221.29 248.411 221.901 249.185V249.185C223.956 251.786 228.052 251.213 229.313 248.146L230.981 244.091C231.504 242.819 232.395 241.733 233.54 240.971L236.794 238.805C237.171 238.555 237.569 238.336 237.982 238.153L239.625 237.424C241.829 236.447 244.356 236.515 246.503 237.61L247.513 238.125C247.909 238.327 248.322 238.496 248.746 238.629L252.53 239.82C253.62 240.163 254.62 240.742 255.46 241.515L256.965 242.901C258.601 244.407 261.032 244.659 262.942 243.521V243.521C264.39 242.658 266.174 242.579 267.693 243.309L268.396 243.647C269.935 244.387 271.704 244.49 273.318 243.932L275.156 243.298C275.938 243.028 276.759 242.89 277.585 242.89V242.89C280.24 242.89 282.694 241.476 284.025 239.178L286.101 235.594C286.947 234.133 288.29 233.025 289.884 232.47L290.484 232.262C292.026 231.725 293.725 231.882 295.142 232.692V232.692C297.161 233.846 299.679 233.645 301.49 232.187L303.54 230.535C303.864 230.274 304.208 230.039 304.568 229.831L308.132 227.781C309.077 227.237 310.123 226.892 311.207 226.767L315.102 226.319L320.798 225.681H323.389C325.194 225.681 326.945 226.299 328.351 227.431L329.126 228.056C330.74 229.357 332.905 229.746 334.872 229.09V229.09C336.51 228.543 337.839 227.326 338.527 225.742L342.984 215.484L348.522 205.923L352.518 199.254C353.356 197.856 354.866 197 356.496 197V197C358.275 197 359.898 198.019 360.672 199.621L364.944 208.473L370.482 216.758L373.657 220.777C375.15 222.667 377.425 223.769 379.834 223.769V223.769C380.97 223.769 382.093 224.015 383.125 224.49L386.309 225.956C386.833 226.197 387.328 226.494 387.788 226.841L393 230.78" stroke="#4199EB" stroke-width="3" stroke-linecap="round" stroke-linejoin="round"/>
<circle cx="393" cy="223" r="4" fill="#BFCDD7"/>
<circle cx="393" cy="228" r="5.5" fill="white" stroke="#4199EB" stroke-width="3"/>
<path opacity="0.75" d="M119.622 276V266.276H118.27L114.37 273.66L110.457 266.276H109.092V276H110.639V269.747L113.863 275.922H114.877L118.088 269.747V276H119.622ZM124.179 269.214C122.515 269.214 121.527 270.397 121.527 271.567L122.996 271.619C122.996 271.021 123.36 270.488 124.192 270.488C125.011 270.488 125.375 271.021 125.375 271.879V272.074L123.789 272.165C122.424 272.243 121.345 272.75 121.345 274.18C121.345 275.428 122.242 276.13 123.568 276.13C124.309 276.13 124.907 275.844 125.375 275.402V276H126.844V271.853C126.844 270.15 125.895 269.214 124.179 269.214ZM125.388 273.205V273.439C125.388 274.453 124.738 274.908 123.815 274.908C123.23 274.908 122.814 274.713 122.814 274.154C122.814 273.556 123.308 273.335 123.997 273.296L125.388 273.205ZM132.198 269.253C131.132 269.253 130.547 269.747 130.3 270.267V269.331H128.883V276H130.339V272.373C130.339 271.398 131.054 270.67 132.198 270.67V269.253ZM139.099 266.146C137.266 266.146 136.2 267.264 136.174 269.123L137.721 269.214C137.734 268.148 138.176 267.524 139.138 267.524C139.97 267.524 140.425 268.083 140.425 268.954C140.425 270.085 140.022 270.644 138.995 271.736L136.2 274.726V276H142.063V274.622H138.332L140.139 272.685C141.14 271.606 141.972 270.501 141.972 268.889C141.972 267.16 140.932 266.146 139.099 266.146ZM146.731 266.146C144.586 266.146 143.143 267.914 143.143 271.138C143.143 274.349 144.586 276.13 146.731 276.13C148.863 276.13 150.306 274.349 150.306 271.138C150.306 267.914 148.863 266.146 146.731 266.146ZM146.731 267.524C148.057 267.524 148.733 268.772 148.733 271.138C148.733 273.504 148.057 274.752 146.731 274.752C145.392 274.752 144.716 273.504 144.716 271.138C144.716 268.772 145.392 267.524 146.731 267.524ZM154.784 276V266.276H153.653L151.027 268.187L151.768 269.409L153.25 268.317V276H154.784ZM159.761 266.146C157.863 266.146 156.433 267.394 156.433 269.344C156.433 271.268 157.837 272.555 159.722 272.581L157.213 276H159.059L162.413 271.398C162.842 270.8 163.102 270.163 163.102 269.344C163.102 267.394 161.672 266.146 159.761 266.146ZM159.761 271.229C158.734 271.229 157.993 270.553 157.993 269.396C157.993 268.239 158.734 267.524 159.761 267.524C160.801 267.524 161.529 268.239 161.529 269.396C161.529 269.903 161.399 270.293 161.165 270.605C160.853 271.021 160.359 271.229 159.761 271.229Z" fill="#809CAF"/>
<path d="M369.102 267.641V266.276H360.639V267.641H364.097V276H365.644V267.641H369.102ZM372.816 269.214C370.827 269.214 369.332 270.553 369.332 272.672C369.332 274.778 370.827 276.13 372.816 276.13C374.792 276.13 376.287 274.778 376.287 272.672C376.287 270.553 374.792 269.214 372.816 269.214ZM372.816 270.462C373.96 270.462 374.818 271.281 374.818 272.672C374.818 274.05 373.96 274.869 372.816 274.869C371.659 274.869 370.814 274.05 370.814 272.672C370.814 271.281 371.659 270.462 372.816 270.462ZM384.357 276V265.899H382.901V270.137C382.537 269.617 381.783 269.214 380.782 269.214C378.923 269.214 377.571 270.54 377.571 272.672C377.571 274.791 378.923 276.13 380.782 276.13C381.822 276.13 382.615 275.688 382.979 275.077V276H384.357ZM381.016 270.462C382.108 270.462 382.901 271.177 382.901 272.49V272.841C382.901 274.167 382.108 274.869 381.016 274.869C379.885 274.869 379.053 274.089 379.053 272.672C379.053 271.255 379.885 270.462 381.016 270.462ZM388.886 269.214C387.222 269.214 386.234 270.397 386.234 271.567L387.703 271.619C387.703 271.021 388.067 270.488 388.899 270.488C389.718 270.488 390.082 271.021 390.082 271.879V272.074L388.496 272.165C387.131 272.243 386.052 272.75 386.052 274.18C386.052 275.428 386.949 276.13 388.275 276.13C389.016 276.13 389.614 275.844 390.082 275.402V276H391.551V271.853C391.551 270.15 390.602 269.214 388.886 269.214ZM390.095 273.205V273.439C390.095 274.453 389.445 274.908 388.522 274.908C387.937 274.908 387.521 274.713 387.521 274.154C387.521 273.556 388.015 273.335 388.704 273.296L390.095 273.205ZM395.216 279.315L399.454 269.331H397.829L396.035 273.894L394.241 269.331H392.616L395.255 275.532L393.617 279.315H395.216Z" fill="#003960"/>
<path d="M432.39 235.5V214.556H429.954L424.298 218.672L425.894 221.304L429.086 218.952V235.5H432.39ZM443.838 214.276C439.218 214.276 436.11 218.084 436.11 225.028C436.11 231.944 439.218 235.78 443.838 235.78C448.43 235.78 451.538 231.944 451.538 225.028C451.538 218.084 448.43 214.276 443.838 214.276ZM443.838 217.244C446.694 217.244 448.15 219.932 448.15 225.028C448.15 230.124 446.694 232.812 443.838 232.812C440.954 232.812 439.498 230.124 439.498 225.028C439.498 219.932 440.954 217.244 443.838 217.244ZM461.967 214.276C457.347 214.276 454.239 218.084 454.239 225.028C454.239 231.944 457.347 235.78 461.967 235.78C466.559 235.78 469.667 231.944 469.667 225.028C469.667 218.084 466.559 214.276 461.967 214.276ZM461.967 217.244C464.823 217.244 466.279 219.932 466.279 225.028C466.279 230.124 464.823 232.812 461.967 232.812C459.083 232.812 457.627 230.124 457.627 225.028C457.627 219.932 459.083 217.244 461.967 217.244ZM474.187 231.748C473.095 231.748 472.199 232.644 472.199 233.792C472.199 234.884 473.095 235.78 474.187 235.78C475.307 235.78 476.231 234.884 476.231 233.792C476.231 232.644 475.307 231.748 474.187 231.748ZM485.095 214.276C481.147 214.276 478.851 216.684 478.795 220.688L482.127 220.884C482.155 218.588 483.107 217.244 485.179 217.244C486.971 217.244 487.951 218.448 487.951 220.324C487.951 222.76 487.083 223.964 484.871 226.316L478.851 232.756V235.5H491.479V232.532H483.443L487.335 228.36C489.491 226.036 491.283 223.656 491.283 220.184C491.283 216.46 489.043 214.276 485.095 214.276ZM495.693 223.372C494.189 223.372 493.069 224.46 493.069 226.22C493.069 227.98 494.189 229.084 495.693 229.084C497.197 229.084 498.301 227.98 498.301 226.22C498.301 224.46 497.197 223.372 495.693 223.372ZM495.629 235.5L504.077 223.532H502.717L494.269 235.5H495.629ZM495.677 224.364C496.605 224.364 497.261 225.052 497.261 226.22C497.261 227.404 496.589 228.108 495.677 228.108C494.781 228.108 494.093 227.404 494.093 226.22C494.093 225.052 494.781 224.364 495.677 224.364ZM502.653 229.948C501.165 229.948 500.045 231.036 500.045 232.796C500.045 234.54 501.165 235.66 502.653 235.66C504.173 235.66 505.277 234.54 505.277 232.796C505.277 231.036 504.173 229.948 502.653 229.948ZM502.653 230.924C503.581 230.924 504.237 231.612 504.237 232.796C504.237 233.98 503.581 234.668 502.653 234.668C501.757 234.668 501.069 233.964 501.069 232.796C501.069 231.612 501.741 230.924 502.653 230.924Z" fill="#003960"/>
<path fill-rule="evenodd" clip-rule="evenodd" d="M435.95 256.559C436.178 256.787 436.178 257.156 435.95 257.384L431.428 261.906C431.423 261.911 431.418 261.916 431.413 261.921C431.3 262.035 431.15 262.092 431.001 262.092C430.851 262.092 430.702 262.035 430.588 261.921C430.583 261.916 430.578 261.911 430.574 261.906L426.051 257.384C425.823 257.156 425.823 256.787 426.051 256.559C426.279 256.331 426.648 256.331 426.876 256.559L430.417 260.1V251.25C430.417 250.928 430.679 250.667 431.001 250.667C431.323 250.667 431.584 250.928 431.584 251.25V260.1L435.125 256.559C435.353 256.331 435.722 256.331 435.95 256.559Z" fill="#E05547"/>
<path d="M444.184 249.372C441.544 249.372 439.768 251.548 439.768 255.516C439.768 259.468 441.544 261.66 444.184 261.66C446.808 261.66 448.584 259.468 448.584 255.516C448.584 251.548 446.808 249.372 444.184 249.372ZM444.184 251.068C445.816 251.068 446.648 252.604 446.648 255.516C446.648 258.428 445.816 259.964 444.184 259.964C442.536 259.964 441.704 258.428 441.704 255.516C441.704 252.604 442.536 251.068 444.184 251.068ZM451.167 259.356C450.543 259.356 450.031 259.868 450.031 260.524C450.031 261.148 450.543 261.66 451.167 261.66C451.807 261.66 452.335 261.148 452.335 260.524C452.335 259.868 451.807 259.356 451.167 259.356ZM457.432 249.372C455.144 249.372 453.848 250.684 453.784 252.828L455.672 252.924C455.736 251.74 456.376 251.068 457.432 251.068C458.456 251.068 459.08 251.644 459.08 252.748C459.08 253.836 458.296 254.476 457.288 254.476H456.12V256.172H457.32C458.504 256.172 459.336 256.764 459.336 258.012C459.336 259.244 458.648 259.964 457.448 259.964C456.248 259.964 455.608 259.228 455.512 257.98L453.608 258.092C453.72 260.284 455.032 261.66 457.464 261.66C459.72 261.66 461.256 260.3 461.256 258.044C461.256 256.572 460.44 255.596 459.416 255.308C460.28 254.908 461 254.108 461 252.748C461 250.684 459.672 249.372 457.432 249.372ZM465.233 249.372C463.681 249.372 462.529 250.492 462.529 252.284C462.529 254.06 463.681 255.212 465.233 255.212C466.801 255.212 467.937 254.06 467.937 252.284C467.937 250.492 466.801 249.372 465.233 249.372ZM465.633 261.5L473.841 249.532H472.097L463.889 261.5H465.633ZM465.233 250.636C466.049 250.636 466.609 251.244 466.609 252.284C466.609 253.34 466.033 253.948 465.233 253.948C464.433 253.948 463.857 253.324 463.857 252.284C463.857 251.244 464.433 250.636 465.233 250.636ZM472.497 255.82C470.945 255.82 469.793 256.94 469.793 258.732C469.793 260.508 470.945 261.66 472.497 261.66C474.065 261.66 475.201 260.508 475.201 258.732C475.201 256.94 474.065 255.82 472.497 255.82ZM472.497 257.084C473.313 257.084 473.873 257.692 473.873 258.732C473.873 259.788 473.313 260.396 472.497 260.396C471.697 260.396 471.121 259.772 471.121 258.732C471.121 257.692 471.681 257.084 472.497 257.084Z" fill="#E05547"/>
<path d="M489.21 252.064V251.028H482.322V252.162H487.796L482.882 261.5H484.296L489.21 252.064ZM497.401 261.5V250.622H496.197V255.438C495.805 254.752 494.923 254.234 493.733 254.234C491.773 254.234 490.289 255.634 490.289 257.944C490.289 260.24 491.773 261.64 493.733 261.64C494.951 261.64 495.861 261.08 496.267 260.338V261.5H497.401ZM493.901 255.284C495.217 255.284 496.197 256.11 496.197 257.72V258.14C496.197 259.764 495.217 260.59 493.901 260.59C492.543 260.59 491.507 259.652 491.507 257.93C491.507 256.222 492.543 255.284 493.901 255.284Z" fill="#809CAF"/>
<rect x="46" y="299" width="466" height="1" rx="0.5" fill="#E6EBEF"/>
<path d="M62.164 332V318.536H59.716L54.784 327.788L49.816 318.536H47.35V332H50.14V324.728L53.866 331.856H55.702L59.41 324.728V332H62.164ZM73.4974 328.184V327.14C73.4974 324.242 71.7334 322.514 69.0514 322.514C66.2794 322.514 64.3174 324.35 64.3174 327.356C64.3174 330.344 66.2794 332.198 69.1234 332.198C71.3014 332.198 73.0834 330.938 73.4074 329.174L70.7614 329.048C70.5634 329.696 69.9694 330.074 69.0514 330.074C67.8634 330.074 67.1614 329.336 67.1074 328.184H73.4974ZM69.0334 324.566C70.2214 324.566 70.7974 325.304 70.8514 326.438H67.1074C67.1794 325.25 67.9174 324.566 69.0334 324.566ZM84.7952 332V318.014H82.1852V323.504C81.6992 322.946 80.7632 322.514 79.5572 322.514C76.9292 322.514 75.0752 324.422 75.0752 327.356C75.0752 330.272 76.9292 332.198 79.5572 332.198C80.8712 332.198 81.8432 331.676 82.3292 331.046V332H84.7952ZM79.9892 324.764C81.2852 324.764 82.1852 325.646 82.1852 327.14V327.554C82.1852 329.066 81.2852 329.93 79.9892 329.93C78.6752 329.93 77.7392 329.012 77.7392 327.356C77.7392 325.7 78.6752 324.764 79.9892 324.764ZM88.7233 318.068C87.8773 318.068 87.1573 318.77 87.1573 319.652C87.1573 320.516 87.8413 321.218 88.7233 321.218C89.6053 321.218 90.3073 320.516 90.3073 319.652C90.3073 318.77 89.6053 318.068 88.7233 318.068ZM90.0373 332V322.694H87.4093V332H90.0373ZM96.2836 322.514C93.8896 322.514 92.3956 324.206 92.3956 325.844L95.0236 325.952C95.0236 325.34 95.4196 324.728 96.3196 324.728C97.1296 324.728 97.5256 325.232 97.5256 326.168V326.528L95.8696 326.618C93.8896 326.708 92.1436 327.374 92.1436 329.444C92.1436 331.244 93.3676 332.198 95.2396 332.198C96.3016 332.198 97.0936 331.784 97.6156 331.244V332H100.154V326.258C100.154 323.81 98.7856 322.514 96.2836 322.514ZM97.5256 328.256V328.652C97.5256 329.642 96.8056 330.164 95.8516 330.164C95.2216 330.164 94.7716 329.93 94.7716 329.318C94.7716 328.652 95.3296 328.382 96.1216 328.346L97.5256 328.256ZM107.653 322.514C106.393 322.514 105.565 323 105.151 323.648V322.694H102.667V332H105.295V326.834C105.295 325.718 105.979 324.962 107.023 324.962C108.031 324.962 108.661 325.628 108.661 326.816V332H111.289V326.312C111.289 323.9 109.795 322.514 107.653 322.514ZM120.483 332V318.014H117.855V332H120.483ZM124.407 318.068C123.561 318.068 122.841 318.77 122.841 319.652C122.841 320.516 123.525 321.218 124.407 321.218C125.289 321.218 125.991 320.516 125.991 319.652C125.991 318.77 125.289 318.068 124.407 318.068ZM125.721 332V322.694H123.093V332H125.721ZM131.517 322.514C129.177 322.514 127.791 323.666 127.791 325.448C127.791 327.356 129.105 327.77 131.085 328.274C132.435 328.598 132.777 328.778 132.777 329.336C132.777 329.876 132.327 330.182 131.607 330.182C130.707 330.182 130.293 329.714 130.257 329.03L127.629 329.174C127.827 331.118 129.213 332.198 131.589 332.198C134.019 332.198 135.405 330.992 135.405 329.102C135.405 327.41 134.091 326.834 132.237 326.348C131.121 326.06 130.419 325.97 130.419 325.322C130.419 324.818 130.779 324.53 131.481 324.53C132.291 324.53 132.633 324.998 132.669 325.664L135.279 325.52C135.117 323.792 133.875 322.514 131.517 322.514ZM140.659 324.962H142.855V322.694H140.677L140.695 319.616H138.067L138.049 322.694H136.339V324.962H138.031L138.013 329.048C137.995 331.208 139.381 332.18 141.397 332.18C142.117 332.18 142.477 332.126 142.855 332.072V329.732C142.657 329.768 142.423 329.822 142.045 329.822C141.307 329.822 140.641 329.444 140.641 328.418L140.659 324.962ZM154.013 322.514C152.717 322.514 151.745 323.018 151.259 323.666V322.694H148.775V336.59H151.403V331.208C151.889 331.748 152.825 332.198 154.013 332.198C156.659 332.198 158.513 330.272 158.513 327.356C158.513 324.44 156.659 322.514 154.013 322.514ZM153.599 324.764C154.913 324.764 155.849 325.7 155.849 327.356C155.849 329.012 154.913 329.948 153.599 329.948C152.303 329.948 151.403 329.066 151.403 327.572V327.14C151.403 325.646 152.303 324.764 153.599 324.764ZM165.699 322.604C164.277 322.604 163.539 323.144 163.143 323.756V322.694H160.605V332H163.233V327.284C163.233 326.006 164.187 325.142 165.699 325.142V322.604ZM168.721 318.068C167.875 318.068 167.155 318.77 167.155 319.652C167.155 320.516 167.839 321.218 168.721 321.218C169.603 321.218 170.305 320.516 170.305 319.652C170.305 318.77 169.603 318.068 168.721 318.068ZM170.035 332V322.694H167.407V332H170.035ZM176.912 322.514C174.158 322.514 172.142 324.296 172.142 327.356C172.142 330.398 174.176 332.198 176.912 332.198C179.198 332.198 180.962 330.848 181.322 328.652L178.766 328.418C178.622 329.354 177.938 329.93 176.912 329.93C175.688 329.93 174.806 328.994 174.806 327.356C174.806 325.7 175.688 324.764 176.912 324.764C177.92 324.764 178.622 325.376 178.748 326.33L181.322 326.114C180.98 323.864 179.18 322.514 176.912 322.514ZM191.974 328.184V327.14C191.974 324.242 190.21 322.514 187.528 322.514C184.756 322.514 182.794 324.35 182.794 327.356C182.794 330.344 184.756 332.198 187.6 332.198C189.778 332.198 191.56 330.938 191.884 329.174L189.238 329.048C189.04 329.696 188.446 330.074 187.528 330.074C186.34 330.074 185.638 329.336 185.584 328.184H191.974ZM187.51 324.566C188.698 324.566 189.274 325.304 189.328 326.438H185.584C185.656 325.25 186.394 324.566 187.51 324.566Z" fill="#003960"/>
<path fill-rule="evenodd" clip-rule="evenodd" d="M208.999 333.667C212.405 333.667 215.166 330.906 215.166 327.5C215.166 324.095 212.405 321.334 208.999 321.334C205.594 321.334 202.833 324.095 202.833 327.5C202.833 330.906 205.594 333.667 208.999 333.667ZM208.999 334.834C204.949 334.834 201.666 331.55 201.666 327.5C201.666 323.45 204.949 320.167 208.999 320.167C213.049 320.167 216.333 323.45 216.333 327.5C216.333 331.55 213.049 334.834 208.999 334.834ZM208.266 326.767H209.733V331.167H208.266V326.767ZM208.999 325.3C209.404 325.3 209.733 324.972 209.733 324.567C209.733 324.162 209.404 323.834 208.999 323.834C208.594 323.834 208.266 324.162 208.266 324.567C208.266 324.972 208.594 325.3 208.999 325.3Z" fill="#BFCDD7"/>
<path d="M58.0733 392.124C58.0733 390.012 56.4893 389.292 53.9773 388.684C52.2493 388.284 51.3213 388.012 51.3213 386.812C51.3213 385.788 52.0893 385.02 53.5453 385.02C54.8893 385.02 55.7693 385.756 55.8333 386.956L57.7693 386.844C57.7053 384.924 56.3612 383.708 54.3933 383.436V381.66H52.8893V383.404C50.5213 383.628 49.3693 385.132 49.3693 386.876C49.3693 389.164 51.1293 389.772 53.2733 390.3C55.0973 390.732 56.1373 391.052 56.1373 392.252C56.1373 393.5 55.1293 394.012 53.7533 394.012C52.2493 394.012 51.1133 393.196 51.0333 391.916L49.0973 392.028C49.1613 394.092 50.7133 395.356 52.8893 395.612V397.388H54.3933V395.628C56.4573 395.452 58.0733 394.364 58.0733 392.124ZM63.6601 383.372C61.5321 383.372 59.9481 384.588 59.9481 386.652C59.9481 387.836 60.5241 388.7 61.4201 389.164C60.3641 389.676 59.6601 390.684 59.6601 392.06C59.6601 394.3 61.3881 395.66 63.6761 395.66C65.9641 395.66 67.6921 394.3 67.6921 392.06C67.6921 390.668 66.9721 389.66 65.9161 389.148C66.7961 388.684 67.3881 387.836 67.3881 386.652C67.3881 384.588 65.7721 383.372 63.6601 383.372ZM63.6761 385.068C64.7161 385.068 65.5001 385.676 65.5001 386.748C65.5001 387.788 64.7161 388.396 63.6761 388.396C62.6521 388.396 61.8521 387.788 61.8521 386.748C61.8521 385.676 62.6521 385.068 63.6761 385.068ZM63.6601 390.06C64.8761 390.06 65.7881 390.764 65.7881 392.012C65.7881 393.244 64.8761 393.964 63.6601 393.964C62.4761 393.964 61.5481 393.244 61.5481 392.012C61.5481 390.764 62.4761 390.06 63.6601 390.06ZM72.9793 383.372C70.6913 383.372 69.3953 384.684 69.3313 386.828L71.2193 386.924C71.2833 385.74 71.9233 385.068 72.9793 385.068C74.0033 385.068 74.6273 385.644 74.6273 386.748C74.6273 387.836 73.8433 388.476 72.8353 388.476H71.6673V390.172H72.8673C74.0513 390.172 74.8833 390.764 74.8833 392.012C74.8833 393.244 74.1953 393.964 72.9953 393.964C71.7953 393.964 71.1553 393.228 71.0593 391.98L69.1553 392.092C69.2673 394.284 70.5793 395.66 73.0113 395.66C75.2673 395.66 76.8033 394.3 76.8033 392.044C76.8033 390.572 75.9873 389.596 74.9633 389.308C75.8273 388.908 76.5473 388.108 76.5473 386.748C76.5473 384.684 75.2193 383.372 72.9793 383.372ZM85.4676 383.532H83.1956L79.0676 389.196C78.5396 389.932 78.2196 390.716 78.2196 391.724C78.2196 394.124 79.9796 395.66 82.3316 395.66C84.6676 395.66 86.4276 394.124 86.4276 391.724C86.4276 389.356 84.6996 387.772 82.3796 387.74L85.4676 383.532ZM82.3316 393.964C81.0516 393.964 80.1556 393.084 80.1556 391.66C80.1556 391.036 80.3156 390.556 80.6036 390.172C80.9876 389.66 81.5956 389.404 82.3316 389.404C83.5956 389.404 84.5076 390.236 84.5076 391.66C84.5076 393.084 83.5956 393.964 82.3316 393.964ZM90.1818 390.588V383.068H88.3898V395.5H90.1818V393.004L90.9978 392.172L93.6218 395.5H95.8938L92.2618 390.828L95.5578 387.292H93.3658L90.1818 390.588Z" fill="#406A88"/>
<circle cx="393" cy="363" r="4" fill="#BFCDD7"/>
<path d="M393 366.387L387.47 363.323L384.015 361.408C382.661 360.658 381.553 359.53 380.827 358.162L378.405 353.599C377.281 351.481 374.71 350.592 372.518 351.564V351.564C371.464 352.031 370.626 352.879 370.171 353.938V353.938C368.501 357.826 362.901 357.565 361.603 353.538L361.234 352.393C360.433 349.908 357.865 348.449 355.32 349.033L354.479 349.226L351.4 349.567C349.805 349.744 348.304 350.41 347.103 351.475L346.179 352.295C344.494 353.789 342.098 354.176 340.028 353.289V353.289C338.542 352.652 336.857 352.663 335.379 353.318L332.167 354.742L327.467 357.423C327.019 357.678 326.597 357.976 326.207 358.312L322.004 361.936C321.409 362.449 320.741 362.872 320.023 363.19L317.125 364.475C316.104 364.927 314.999 365.161 313.882 365.161H312.062C310.74 365.161 309.439 365.498 308.282 366.139V366.139C305.938 367.438 303.091 367.442 300.743 366.15L299.509 365.471C299.134 365.265 298.777 365.029 298.44 364.766L295.071 362.134C294.024 361.315 292.733 360.871 291.404 360.871V360.871C289.254 360.871 287.272 362.029 286.216 363.901L283.202 369.246C282.669 370.19 281.95 371.017 281.088 371.675L278.308 373.797C277.371 374.512 276.226 374.9 275.048 374.9H274.308C272.518 374.9 270.915 373.792 270.283 372.117V372.117C268.83 368.271 263.327 368.457 262.138 372.393L260.775 376.905C260.447 377.989 259.815 378.956 258.954 379.69L256.449 381.826C255.001 383.06 253.161 383.738 251.258 383.738H249.213L247.042 383.869C244.771 384.005 242.549 383.168 240.933 381.566L238.722 379.377C238.179 378.839 237.559 378.385 236.882 378.03V378.03C234.276 376.663 231.118 376.903 228.749 378.649L227.092 379.871L224.438 381.892C222.609 383.285 220.27 383.823 218.016 383.37L217.645 383.296C216.584 383.083 215.59 382.62 214.743 381.946L214.616 381.844C212.208 379.925 208.794 379.925 206.386 381.844V381.844C205.459 382.582 204.351 383.058 203.178 383.22L200.043 383.655C199.642 383.71 199.245 383.797 198.856 383.912L195.361 384.955C194.402 385.24 193.505 385.704 192.717 386.32L189.445 388.88C188.74 389.432 188.132 390.098 187.647 390.851L183.767 396.878C183.162 397.818 182.366 398.621 181.432 399.235L177.319 401.935L174.439 403.531C172.731 404.478 170.737 404.767 168.83 404.344L166.258 403.774L160.728 401.935L156.924 400.671C155.793 400.295 154.778 399.631 153.979 398.746L153.104 397.775C151.169 395.63 147.904 395.349 145.631 397.132V397.132C144.663 397.891 143.469 398.304 142.239 398.304H141.88C139.82 398.304 137.881 397.332 136.647 395.682L135.964 394.768C134.293 392.533 131.261 391.815 128.765 393.064V393.064C127.964 393.465 127.08 393.674 126.184 393.674H122.016H117.972C116.862 393.674 115.765 393.443 114.75 392.996L110 390.906" stroke="#BFCDD7" stroke-width="2" stroke-linecap="round" stroke-linejoin="round"/>
<path d="M110 393.674H115.742H119.922C120.82 393.674 121.705 393.465 122.509 393.064V393.064C125.013 391.814 128.052 392.533 129.731 394.773L130.409 395.677C131.648 397.331 133.594 398.304 135.66 398.304H136.021C137.253 398.304 138.45 397.891 139.421 397.132V397.132C141.701 395.348 144.972 395.629 146.915 397.777L147.79 398.744C148.592 399.631 149.609 400.295 150.744 400.671L154.558 401.935L160.103 403.774L162.697 404.348C164.599 404.768 166.589 404.48 168.294 403.538L171.194 401.935L175.32 399.233C176.256 398.62 177.052 397.818 177.659 396.879L181.55 390.85C182.036 390.097 182.645 389.432 183.351 388.881L186.637 386.317C187.425 385.703 188.321 385.241 189.278 384.956L192.792 383.912C193.18 383.796 193.576 383.711 193.976 383.655L197.123 383.22C198.299 383.058 199.41 382.582 200.34 381.843V381.843C202.755 379.924 206.175 379.924 208.59 381.843L208.718 381.945C209.567 382.62 210.564 383.083 211.628 383.296L212.017 383.374C214.267 383.825 216.601 383.288 218.428 381.901L221.1 379.871L222.762 378.649C225.139 376.903 228.302 376.662 230.916 378.029V378.029C231.595 378.384 232.218 378.839 232.764 379.378L234.987 381.575C236.602 383.171 238.82 384.005 241.087 383.87L243.281 383.738H245.346C247.245 383.738 249.081 383.063 250.528 381.833L253.045 379.693C253.911 378.957 254.546 377.987 254.876 376.9L256.241 372.391C257.435 368.448 262.947 368.261 264.406 372.113V372.113C265.041 373.79 266.648 374.9 268.441 374.9H269.187C270.367 374.9 271.515 374.512 272.455 373.797L275.244 371.673C276.107 371.016 276.827 370.191 277.361 369.246L280.379 363.909C281.441 362.032 283.43 360.871 285.586 360.871V360.871C286.919 360.871 288.213 361.316 289.263 362.134L292.642 364.767C292.978 365.029 293.336 365.265 293.71 365.47L294.95 366.15C297.305 367.442 300.158 367.438 302.509 366.139V366.139C303.669 365.498 304.973 365.161 306.298 365.161H308.133C309.247 365.161 310.349 364.929 311.368 364.478L314.285 363.188C315.003 362.871 315.67 362.45 316.266 361.938L320.484 358.311C320.874 357.975 321.296 357.678 321.744 357.424L326.458 354.742L329.679 353.318C331.162 352.662 332.85 352.652 334.34 353.289V353.289C336.416 354.176 338.818 353.789 340.51 352.293L341.434 351.476C342.638 350.411 344.143 349.744 345.741 349.567L348.83 349.226L349.679 349.031C352.228 348.448 354.801 349.909 355.605 352.397L355.974 353.54C357.277 357.574 362.885 357.836 364.562 353.943V353.943C365.02 352.881 365.862 352.03 366.92 351.563V351.563C369.118 350.591 371.693 351.481 372.823 353.603L375.249 358.163C375.977 359.53 377.086 360.657 378.442 361.406L381.91 363.323L385.994 365.58C386.958 366.112 387.801 366.838 388.471 367.711L393 373.611" stroke="#4199EB" stroke-width="3" stroke-linecap="round" stroke-linejoin="round"/>
<circle cx="393" cy="370" r="5.5" fill="white" stroke="#4199EB" stroke-width="3"/>
<path d="M432.727 352.276C429.003 352.276 426.231 354.404 426.231 358.016C426.231 360.088 427.239 361.6 428.807 362.412C426.959 363.308 425.727 365.072 425.727 367.48C425.727 371.4 428.751 373.78 432.755 373.78C436.759 373.78 439.783 371.4 439.783 367.48C439.783 365.044 438.523 363.28 436.675 362.384C438.215 361.572 439.251 360.088 439.251 358.016C439.251 354.404 436.423 352.276 432.727 352.276ZM432.755 355.244C434.575 355.244 435.947 356.308 435.947 358.184C435.947 360.004 434.575 361.068 432.755 361.068C430.963 361.068 429.563 360.004 429.563 358.184C429.563 356.308 430.963 355.244 432.755 355.244ZM432.727 363.98C434.855 363.98 436.451 365.212 436.451 367.396C436.451 369.552 434.855 370.812 432.727 370.812C430.655 370.812 429.031 369.552 429.031 367.396C429.031 365.212 430.655 363.98 432.727 363.98ZM455.616 355.244V352.556H441.84V355.496H451.948L442.848 373.5H446.516L455.616 355.244ZM464.717 352.276C460.629 352.276 457.549 354.964 457.549 359.164C457.549 363.308 460.573 366.08 464.633 366.136L459.229 373.5H463.205L470.429 363.588C471.353 362.3 471.913 360.928 471.913 359.164C471.913 354.964 468.833 352.276 464.717 352.276ZM464.717 363.224C462.505 363.224 460.909 361.768 460.909 359.276C460.909 356.784 462.505 355.244 464.717 355.244C466.957 355.244 468.525 356.784 468.525 359.276C468.525 360.368 468.245 361.208 467.741 361.88C467.069 362.776 466.005 363.224 464.717 363.224ZM475.903 368.924V361.068H474.527V373.5H475.903V370.764L476.783 369.9L479.823 373.5H481.583L477.759 368.892L481.199 365.34H479.487L475.903 368.924Z" fill="#003960"/>
<path fill-rule="evenodd" clip-rule="evenodd" d="M435.95 394.559C436.178 394.787 436.178 395.156 435.95 395.384L431.428 399.906C431.423 399.911 431.418 399.916 431.413 399.921C431.3 400.035 431.15 400.092 431.001 400.092C430.851 400.092 430.702 400.035 430.588 399.921C430.583 399.916 430.578 399.911 430.574 399.906L426.051 395.384C425.823 395.156 425.823 394.787 426.051 394.559C426.279 394.331 426.648 394.331 426.876 394.559L430.417 398.1V389.25C430.417 388.928 430.679 388.667 431.001 388.667C431.323 388.667 431.584 388.928 431.584 389.25V398.1L435.125 394.559C435.353 394.331 435.722 394.331 435.95 394.559Z" fill="#E05547"/>
<path d="M444.184 387.372C441.544 387.372 439.768 389.548 439.768 393.516C439.768 397.468 441.544 399.66 444.184 399.66C446.808 399.66 448.584 397.468 448.584 393.516C448.584 389.548 446.808 387.372 444.184 387.372ZM444.184 389.068C445.816 389.068 446.648 390.604 446.648 393.516C446.648 396.428 445.816 397.964 444.184 397.964C442.536 397.964 441.704 396.428 441.704 393.516C441.704 390.604 442.536 389.068 444.184 389.068ZM451.167 397.356C450.543 397.356 450.031 397.868 450.031 398.524C450.031 399.148 450.543 399.66 451.167 399.66C451.807 399.66 452.335 399.148 452.335 398.524C452.335 397.868 451.807 397.356 451.167 397.356ZM457.4 387.372C455.144 387.372 453.832 388.748 453.8 391.036L455.704 391.148C455.72 389.836 456.264 389.068 457.448 389.068C458.472 389.068 459.032 389.756 459.032 390.828C459.032 392.22 458.536 392.908 457.272 394.252L453.832 397.932V399.5H461.048V397.804H456.456L458.68 395.42C459.912 394.092 460.936 392.732 460.936 390.748C460.936 388.62 459.656 387.372 457.4 387.372ZM464.873 387.372C463.321 387.372 462.169 388.492 462.169 390.284C462.169 392.06 463.321 393.212 464.873 393.212C466.441 393.212 467.577 392.06 467.577 390.284C467.577 388.492 466.441 387.372 464.873 387.372ZM465.273 399.5L473.481 387.532H471.737L463.529 399.5H465.273ZM464.873 388.636C465.689 388.636 466.249 389.244 466.249 390.284C466.249 391.34 465.673 391.948 464.873 391.948C464.073 391.948 463.497 391.324 463.497 390.284C463.497 389.244 464.073 388.636 464.873 388.636ZM472.137 393.82C470.585 393.82 469.433 394.94 469.433 396.732C469.433 398.508 470.585 399.66 472.137 399.66C473.705 399.66 474.841 398.508 474.841 396.732C474.841 394.94 473.705 393.82 472.137 393.82ZM472.137 395.084C472.953 395.084 473.513 395.692 473.513 396.732C473.513 397.788 472.953 398.396 472.137 398.396C471.337 398.396 470.761 397.772 470.761 396.732C470.761 395.692 471.321 395.084 472.137 395.084Z" fill="#E05547"/>
<path d="M489.21 390.064V389.028H482.322V390.162H487.796L482.882 399.5H484.296L489.21 390.064ZM497.401 399.5V388.622H496.197V393.438C495.805 392.752 494.923 392.234 493.733 392.234C491.773 392.234 490.289 393.634 490.289 395.944C490.289 398.24 491.773 399.64 493.733 399.64C494.951 399.64 495.861 399.08 496.267 398.338V399.5H497.401ZM493.901 393.284C495.217 393.284 496.197 394.11 496.197 395.72V396.14C496.197 397.764 495.217 398.59 493.901 398.59C492.543 398.59 491.507 397.652 491.507 395.93C491.507 394.222 492.543 393.284 493.901 393.284Z" fill="#809CAF"/>
<rect x="46" y="423" width="466" height="1" rx="0.5" fill="#E6EBEF"/>
<path d="M47.35 442.536V456H50.14V451.212H53.182C55.738 451.212 57.52 449.646 57.52 446.874C57.52 444.102 55.738 442.536 53.182 442.536H47.35ZM50.122 444.984H52.822C53.902 444.984 54.694 445.65 54.694 446.874C54.694 448.098 53.902 448.746 52.822 448.746H50.122V444.984ZM64.3959 446.604C62.9739 446.604 62.2359 447.144 61.8399 447.756V446.694H59.3019V456H61.9299V451.284C61.9299 450.006 62.8839 449.142 64.3959 449.142V446.604ZM67.4186 442.068C66.5726 442.068 65.8526 442.77 65.8526 443.652C65.8526 444.516 66.5366 445.218 67.4186 445.218C68.3006 445.218 69.0026 444.516 69.0026 443.652C69.0026 442.77 68.3006 442.068 67.4186 442.068ZM68.7326 456V446.694H66.1046V456H68.7326ZM75.6089 446.514C72.8549 446.514 70.8389 448.296 70.8389 451.356C70.8389 454.398 72.8729 456.198 75.6089 456.198C77.8949 456.198 79.6589 454.848 80.0189 452.652L77.4629 452.418C77.3189 453.354 76.6349 453.93 75.6089 453.93C74.3849 453.93 73.5029 452.994 73.5029 451.356C73.5029 449.7 74.3849 448.764 75.6089 448.764C76.6169 448.764 77.3189 449.376 77.4449 450.33L80.0189 450.114C79.6769 447.864 77.8769 446.514 75.6089 446.514ZM90.6712 452.184V451.14C90.6712 448.242 88.9072 446.514 86.2252 446.514C83.4532 446.514 81.4912 448.35 81.4912 451.356C81.4912 454.344 83.4532 456.198 86.2972 456.198C88.4752 456.198 90.2572 454.938 90.5812 453.174L87.9352 453.048C87.7372 453.696 87.1432 454.074 86.2252 454.074C85.0372 454.074 84.3352 453.336 84.2812 452.184H90.6712ZM86.2072 448.566C87.3952 448.566 87.9712 449.304 88.0252 450.438H84.2812C84.3532 449.25 85.0912 448.566 86.2072 448.566ZM102.052 446.514C100.756 446.514 99.7836 447.018 99.2976 447.666V446.694H96.8136V460.59H99.4416V455.208C99.9276 455.748 100.864 456.198 102.052 456.198C104.698 456.198 106.552 454.272 106.552 451.356C106.552 448.44 104.698 446.514 102.052 446.514ZM101.638 448.764C102.952 448.764 103.888 449.7 103.888 451.356C103.888 453.012 102.952 453.948 101.638 453.948C100.342 453.948 99.4416 453.066 99.4416 451.572V451.14C99.4416 449.646 100.342 448.764 101.638 448.764ZM117.32 452.184V451.14C117.32 448.242 115.556 446.514 112.874 446.514C110.102 446.514 108.14 448.35 108.14 451.356C108.14 454.344 110.102 456.198 112.946 456.198C115.124 456.198 116.906 454.938 117.23 453.174L114.584 453.048C114.386 453.696 113.792 454.074 112.874 454.074C111.686 454.074 110.984 453.336 110.93 452.184H117.32ZM112.856 448.566C114.044 448.566 114.62 449.304 114.674 450.438H110.93C111.002 449.25 111.74 448.566 112.856 448.566ZM124.495 446.604C123.073 446.604 122.335 447.144 121.939 447.756V446.694H119.401V456H122.029V451.284C122.029 450.006 122.983 449.142 124.495 449.142V446.604ZM133.451 446.514C131.111 446.514 129.725 447.666 129.725 449.448C129.725 451.356 131.039 451.77 133.019 452.274C134.369 452.598 134.711 452.778 134.711 453.336C134.711 453.876 134.261 454.182 133.541 454.182C132.641 454.182 132.227 453.714 132.191 453.03L129.563 453.174C129.761 455.118 131.147 456.198 133.523 456.198C135.953 456.198 137.339 454.992 137.339 453.102C137.339 451.41 136.025 450.834 134.171 450.348C133.055 450.06 132.353 449.97 132.353 449.322C132.353 448.818 132.713 448.53 133.415 448.53C134.225 448.53 134.567 448.998 134.603 449.664L137.213 449.52C137.051 447.792 135.809 446.514 133.451 446.514ZM143.348 446.514C140.72 446.514 138.866 448.44 138.866 451.356C138.866 454.272 140.72 456.198 143.348 456.198C144.554 456.198 145.49 455.748 145.976 455.208V460.59H148.586V446.694H146.12V447.666C145.634 447.018 144.662 446.514 143.348 446.514ZM143.78 448.764C145.076 448.764 145.976 449.646 145.976 451.14V451.572C145.976 453.066 145.076 453.948 143.78 453.948C142.466 453.948 141.53 453.012 141.53 451.356C141.53 449.7 142.466 448.764 143.78 448.764ZM155.556 441.906C153.216 441.906 151.686 443.4 151.686 445.74V446.694H149.994V448.962H151.686V456H154.296V448.962H156.456V446.694H154.296V445.668C154.296 444.786 154.944 444.192 155.862 444.192C156.132 444.192 156.312 444.21 156.474 444.228V441.96C156.204 441.924 155.952 441.906 155.556 441.906ZM161.436 448.962H163.632V446.694H161.454L161.472 443.616H158.844L158.826 446.694H157.116V448.962H158.808L158.79 453.048C158.772 455.208 160.158 456.18 162.174 456.18C162.894 456.18 163.254 456.126 163.632 456.072V453.732C163.434 453.768 163.2 453.822 162.822 453.822C162.084 453.822 161.418 453.444 161.418 452.418L161.436 448.962Z" fill="#003960"/>
<path fill-rule="evenodd" clip-rule="evenodd" d="M180.999 457.667C184.405 457.667 187.166 454.906 187.166 451.5C187.166 448.095 184.405 445.334 180.999 445.334C177.594 445.334 174.833 448.095 174.833 451.5C174.833 454.906 177.594 457.667 180.999 457.667ZM180.999 458.834C176.949 458.834 173.666 455.55 173.666 451.5C173.666 447.45 176.949 444.167 180.999 444.167C185.049 444.167 188.333 447.45 188.333 451.5C188.333 455.55 185.049 458.834 180.999 458.834ZM180.266 450.767H181.733V455.167H180.266V450.767ZM180.999 449.3C181.404 449.3 181.733 448.972 181.733 448.567C181.733 448.162 181.404 447.834 180.999 447.834C180.594 447.834 180.266 448.162 180.266 448.567C180.266 448.972 180.594 449.3 180.999 449.3Z" fill="#BFCDD7"/>
<path d="M389 477V477C385.718 477 382.798 479.082 381.729 482.185L379.452 488.79C378.602 491.254 376.283 492.908 373.677 492.908V492.908C372.931 492.908 372.191 492.771 371.494 492.504L366.857 490.73L365.188 489.812C362.941 488.576 360.218 488.574 357.969 489.807V489.807C356.865 490.413 355.625 490.73 354.365 490.73H353.937C351.921 490.73 349.98 489.969 348.501 488.599L346.902 487.118C345.864 486.157 344.59 485.488 343.21 485.179L340.506 484.575C339.933 484.447 339.348 484.383 338.761 484.383H336.464C334.959 484.383 333.484 484.807 332.209 485.608L329.256 487.463C328.87 487.706 328.508 487.983 328.174 488.293L327.756 488.68C325.181 491.065 321.203 491.065 318.628 488.68L318.401 488.469C317.943 488.045 317.411 487.709 316.831 487.479V487.479C314.272 486.463 311.371 487.682 310.305 490.22L307.852 496.065C307.133 497.777 305.841 499.186 304.197 500.05L302.409 500.99C301.62 501.405 300.906 501.948 300.296 502.599L296.412 506.74C295.987 507.193 295.51 507.596 294.991 507.939L292.461 509.613C291.144 510.485 289.432 510.485 288.115 509.613V509.613C286.291 508.406 283.832 508.917 282.64 510.75L281.681 512.225C280.296 514.355 277.632 515.258 275.238 514.41L274.942 514.305C274.218 514.048 273.575 513.604 273.079 513.017V513.017C270.952 510.5 266.906 511.183 265.723 514.258L264.077 518.541C263.312 520.529 261.69 522.065 259.663 522.719L256.851 523.627L253.519 525.196C252.453 525.698 251.289 525.958 250.111 525.958H248.046C246.97 525.958 245.906 525.741 244.916 525.32L242.432 524.264C241.442 523.844 240.378 523.627 239.302 523.627H236.146C235.681 523.627 235.218 523.586 234.761 523.506L232.195 523.055C230.736 522.798 229.235 522.952 227.858 523.499L227.222 523.751C225.461 524.45 223.499 524.45 221.738 523.751V523.751C219.977 523.052 218.015 523.052 216.254 523.751V523.751C214.493 524.45 212.531 524.45 210.77 523.751V523.751C209.009 523.052 207.047 523.052 205.286 523.751V523.751C203.525 524.45 201.563 524.45 199.802 523.751V523.751C198.041 523.052 196.079 523.052 194.318 523.751L191.576 524.84L187.241 526.172C186.479 526.407 185.687 526.526 184.89 526.526H181.983C181.073 526.526 180.17 526.681 179.312 526.985L175.124 528.468L171.062 530.081C170.122 530.454 169.121 530.646 168.11 530.646H166.143C164.838 530.646 163.553 530.965 162.4 531.575L159.482 533.12C158.944 533.405 158.375 533.627 157.786 533.783L154.194 534.734C153.526 534.91 152.838 535 152.147 535H148.745C148.054 535 147.366 534.91 146.698 534.734L143.226 533.815C142.558 533.638 141.87 533.549 141.179 533.549H140.639C138.176 533.549 135.85 532.414 134.334 530.472L133.654 529.602C132.138 527.66 129.812 526.526 127.349 526.526H125.768H121.392C120.657 526.526 119.925 526.424 119.218 526.225L114.851 524.992L110 522.997" stroke="#BFCDD7" stroke-width="2" stroke-linecap="round" stroke-linejoin="round"/>
<path d="M110 523.494H115.484H117.693C119.791 523.494 121.806 524.319 123.302 525.79L124.116 526.59C125.612 528.061 127.627 528.886 129.725 528.886H131.13C131.665 528.886 132.198 528.939 132.723 529.046L136.629 529.84C137.154 529.946 137.687 530 138.223 530H142.097C142.632 530 143.166 529.946 143.69 529.84L147.656 529.034C148.141 528.935 148.616 528.792 149.075 528.605L152.42 527.246C153.377 526.857 154.4 526.657 155.432 526.657H158.16C158.951 526.657 159.737 526.54 160.493 526.309L164.836 524.986L169.288 523.775C169.973 523.588 170.679 523.494 171.388 523.494H174.872C175.49 523.494 176.107 523.422 176.709 523.28L181.287 522.2L184.438 521.239C185.958 520.776 187.582 520.776 189.103 521.239L189.921 521.489C191.442 521.952 193.066 521.952 194.586 521.489L195.405 521.239C196.925 520.776 198.549 520.776 200.07 521.239L200.888 521.489C202.409 521.952 204.033 521.952 205.553 521.489L206.372 521.239C207.892 520.776 209.517 520.776 211.037 521.239L211.856 521.489C213.376 521.952 215 521.952 216.521 521.489L218 521.038C219.102 520.702 220.262 520.608 221.403 520.762L225.155 521.269H229.366C230.209 521.269 231.047 521.402 231.848 521.663L234.913 522.663C235.714 522.925 236.552 523.058 237.395 523.058H240.204C241.132 523.058 242.052 522.897 242.924 522.582L246.557 521.269L249.496 520.54C251.449 520.056 253.092 518.742 253.993 516.943L255.251 514.432C256.66 511.618 260.366 510.926 262.695 513.043V513.043C263.251 513.548 263.918 513.914 264.643 514.111L265.373 514.31C267.6 514.916 269.977 514.177 271.47 512.415L272.087 511.686C273.506 510.011 275.889 509.53 277.846 510.524V510.524C279.194 511.209 280.788 511.209 282.136 510.524L284.701 509.221C285.215 508.96 285.7 508.644 286.146 508.279L289.976 505.143C290.601 504.631 291.3 504.217 292.05 503.915L293.789 503.213C295.504 502.521 296.927 501.255 297.814 499.632L299.633 496.306C300.968 493.864 303.834 492.695 306.496 493.507V493.507C307.101 493.691 307.672 493.972 308.187 494.338L308.429 494.511C311.101 496.411 314.684 496.411 317.356 494.511L317.824 494.177C318.192 493.916 318.58 493.687 318.986 493.491L322.213 491.935C323.297 491.412 324.485 491.14 325.688 491.14H328.662C329.115 491.14 329.568 491.179 330.015 491.256L333.219 491.805C334.402 492.008 335.524 492.475 336.503 493.171L338.418 494.533C339.772 495.496 341.393 496.014 343.055 496.014H344.368C345.434 496.014 346.49 495.801 347.472 495.387L348.169 495.094C350.157 494.257 352.398 494.258 354.385 495.097L356.555 496.014L361.288 497.404C361.923 497.591 362.581 497.685 363.242 497.685V497.685C365.972 497.685 368.448 496.083 369.566 493.592L371.278 489.779C372.455 487.159 375.06 485.473 377.933 485.473V485.473C378.44 485.473 378.946 485.42 379.442 485.315L382.618 484.644C383.648 484.426 384.626 484.006 385.494 483.409L389 481" stroke="#4199EB" stroke-width="3" stroke-linecap="round" stroke-linejoin="round"/>
<circle cx="393" cy="476" r="4" fill="#BFCDD7"/>
<circle cx="393" cy="481" r="5.5" fill="white" stroke="#4199EB" stroke-width="3"/>
<path d="M441.136 490.092C441.136 486.396 438.364 485.136 433.968 484.072C430.944 483.372 429.32 482.896 429.32 480.796C429.32 479.004 430.664 477.66 433.212 477.66C435.564 477.66 437.104 478.948 437.216 481.048L440.604 480.852C440.492 477.492 438.14 475.364 434.696 474.888V471.78H432.064V474.832C427.92 475.224 425.904 477.856 425.904 480.908C425.904 484.912 428.984 485.976 432.736 486.9C435.928 487.656 437.748 488.216 437.748 490.316C437.748 492.5 435.984 493.396 433.576 493.396C430.944 493.396 428.956 491.968 428.816 489.728L425.428 489.924C425.54 493.536 428.256 495.748 432.064 496.196V499.304H434.696V496.224C438.308 495.916 441.136 494.012 441.136 490.092ZM450.241 474.776C446.237 474.776 443.969 477.072 443.857 480.824L447.161 480.992C447.273 478.92 448.393 477.744 450.241 477.744C452.033 477.744 453.125 478.752 453.125 480.684C453.125 482.588 451.753 483.708 449.989 483.708H447.945V486.676H450.045C452.117 486.676 453.573 487.712 453.573 489.896C453.573 492.052 452.369 493.312 450.269 493.312C448.169 493.312 447.049 492.024 446.881 489.84L443.549 490.036C443.745 493.872 446.041 496.28 450.297 496.28C454.245 496.28 456.933 493.9 456.933 489.952C456.933 487.376 455.505 485.668 453.713 485.164C455.225 484.464 456.485 483.064 456.485 480.684C456.485 477.072 454.161 474.776 450.241 474.776ZM471.004 488.636V475.056H468.204L458.936 488.86V491.604H467.728V496H471.004V491.604H474.28V488.636H471.004ZM462.604 488.636L467.7 481.076V488.636H462.604ZM483.173 482.952C481.941 482.952 480.933 483.232 480.121 483.708V477.996H488.689V475.056H476.817V486.928H479.897C480.737 486.284 481.661 485.92 482.837 485.92C484.881 485.92 486.169 487.32 486.169 489.56C486.169 491.744 484.993 493.312 482.753 493.312C480.681 493.312 479.589 492.08 479.421 490.064L476.089 490.26C476.285 493.928 478.637 496.28 482.725 496.28C486.953 496.28 489.501 493.536 489.501 489.476C489.501 485.304 486.813 482.952 483.173 482.952ZM425.414 514.938L428.97 503.528H427.724L424.14 514.938H425.414ZM432.543 506.748C430.863 506.734 429.925 507.588 429.925 508.834C429.925 510.234 430.961 510.5 432.347 510.822C433.635 511.13 434.111 511.298 434.111 512.026C434.111 512.74 433.495 513.09 432.641 513.09C431.689 513.09 431.101 512.67 430.989 511.886L429.785 511.97C429.967 513.342 431.003 514.14 432.613 514.14C434.265 514.14 435.315 513.342 435.315 511.928C435.315 510.654 434.349 510.234 432.837 509.87C431.815 509.632 431.143 509.576 431.143 508.82C431.143 508.19 431.591 507.77 432.501 507.784C433.411 507.77 433.873 508.246 433.957 508.96L435.161 508.89C435.007 507.658 434.139 506.734 432.543 506.748ZM440.299 506.734C438.339 506.734 436.855 508.134 436.855 510.43C436.855 512.74 438.339 514.14 440.299 514.14C441.489 514.14 442.371 513.622 442.763 512.936V517.57H443.967V506.86H442.833V508.036C442.427 507.294 441.517 506.734 440.299 506.734ZM440.467 507.784C441.783 507.784 442.763 508.61 442.763 510.234V510.654C442.763 512.264 441.783 513.09 440.467 513.09C439.109 513.09 438.073 512.152 438.073 510.444C438.073 508.722 439.109 507.784 440.467 507.784ZM449.293 503.066C447.753 503.066 446.759 504.032 446.759 505.67V506.86H445.373V507.91H446.759V514H447.963V507.91H449.797V506.86H447.963V505.642C447.963 504.676 448.551 504.116 449.419 504.116C449.601 504.116 449.713 504.13 449.825 504.144V503.094C449.671 503.08 449.531 503.066 449.293 503.066ZM454.103 513.006C453.403 513.006 452.843 512.656 452.843 511.62L452.871 507.91H454.789V506.86H452.871L452.885 504.396H451.667L451.653 506.86H450.323V507.91H451.653L451.639 511.858C451.625 513.426 452.535 514.098 453.837 514.098C454.285 514.098 454.565 514.056 454.803 514.014V512.936C454.635 512.964 454.397 513.006 454.103 513.006Z" fill="#003960"/>
</g>
</g>
<defs>
<filter id="filter0_ddd_130_75899" x="0" y="0" width="558" height="500" filterUnits="userSpaceOnUse" color-interpolation-filters="sRGB">
<feFlood flood-opacity="0" result="BackgroundImageFix"/>
<feColorMatrix in="SourceAlpha" type="matrix" values="0 0 0 0 0 0 0 0 0 0 0 0 0 0 0 0 0 0 127 0" result="hardAlpha"/>
<feOffset dy="2"/>
<feGaussianBlur stdDeviation="2"/>
<feColorMatrix type="matrix" values="0 0 0 0 0.505882 0 0 0 0 0.505882 0 0 0 0 0.505882 0 0 0 0.2 0"/>
<feBlend mode="normal" in2="BackgroundImageFix" result="effect1_dropShadow_130_75899"/>
<feColorMatrix in="SourceAlpha" type="matrix" values="0 0 0 0 0 0 0 0 0 0 0 0 0 0 0 0 0 0 127 0" result="hardAlpha"/>
<feOffset dy="1"/>
<feGaussianBlur stdDeviation="5"/>
<feColorMatrix type="matrix" values="0 0 0 0 0.505882 0 0 0 0 0.505882 0 0 0 0 0.505882 0 0 0 0.12 0"/>
<feBlend mode="normal" in2="effect1_dropShadow_130_75899" result="effect2_dropShadow_130_75899"/>
<feColorMatrix in="SourceAlpha" type="matrix" values="0 0 0 0 0 0 0 0 0 0 0 0 0 0 0 0 0 0 127 0" result="hardAlpha"/>
<feOffset dy="4"/>
<feGaussianBlur stdDeviation="2.5"/>
<feColorMatrix type="matrix" values="0 0 0 0 0.505882 0 0 0 0 0.505882 0 0 0 0 0.505882 0 0 0 0.14 0"/>
<feBlend mode="normal" in2="effect2_dropShadow_130_75899" result="effect3_dropShadow_130_75899"/>
<feBlend mode="normal" in="SourceGraphic" in2="effect3_dropShadow_130_75899" result="shape"/>
</filter>
<clipPath id="clip0_130_75899">
<path d="M10 25C10 16.1635 17.1634 9 26 9H532C540.837 9 548 16.1634 548 25V489H10V25Z" fill="white"/>
</clipPath>
</defs>
</svg>
