<svg width="558" height="500" viewBox="0 0 558 500" fill="none" xmlns="http://www.w3.org/2000/svg">
<g filter="url(#filter0_ddd_130_75798)">
<rect x="10" y="9" width="538" height="480" rx="16" fill="white"/>
<path d="M49.15 51.544V68H52.56V62.148H56.278C59.402 62.148 61.58 60.234 61.58 56.846C61.58 53.458 59.402 51.544 56.278 51.544H49.15ZM52.538 54.536H55.838C57.158 54.536 58.126 55.35 58.126 56.846C58.126 58.342 57.158 59.134 55.838 59.134H52.538V54.536ZM66.9698 68V50.906H63.7578V68H66.9698ZM80.2362 68V56.626H77.0242V63.05C77.0242 64.326 76.3202 65.25 75.0882 65.25C73.8342 65.25 73.2622 64.48 73.2622 63.094V56.626H70.0502V63.776C70.0502 66.548 71.6342 68.242 74.2522 68.242C75.8582 68.242 76.7602 67.56 77.2002 66.856V68H80.2362ZM89.4885 56.406C87.9485 56.406 86.9365 57 86.4305 57.792V56.626H83.3945V68H86.6065V61.686C86.6065 60.322 87.4425 59.398 88.7185 59.398C89.9505 59.398 90.7205 60.212 90.7205 61.664V68H93.9325V61.048C93.9325 58.1 92.1065 56.406 89.4885 56.406ZM100.206 60.674V50.906H96.9942V68H100.206V64.986L101.218 63.886L104.188 68H108.082L103.484 61.488L107.774 56.626H103.88L100.206 60.674ZM124.2 68H128.028L124.53 61.532C126.158 60.74 127.17 59.112 127.17 56.824C127.17 53.436 124.992 51.544 121.868 51.544H114.828V68H118.238V62.082H120.988L124.2 68ZM118.216 59.068V54.536H121.45C122.77 54.536 123.716 55.328 123.716 56.824C123.716 58.276 122.77 59.068 121.45 59.068H118.216ZM140.62 63.336V62.06C140.62 58.518 138.464 56.406 135.186 56.406C131.798 56.406 129.4 58.65 129.4 62.324C129.4 65.976 131.798 68.242 135.274 68.242C137.936 68.242 140.114 66.702 140.51 64.546L137.276 64.392C137.034 65.184 136.308 65.646 135.186 65.646C133.734 65.646 132.876 64.744 132.81 63.336H140.62ZM135.164 58.914C136.616 58.914 137.32 59.816 137.386 61.202H132.81C132.898 59.75 133.8 58.914 135.164 58.914ZM156.254 56.406C154.538 56.406 153.416 57.176 152.756 58.21C152.008 57.044 150.754 56.406 149.192 56.406C147.63 56.406 146.706 57 146.2 57.792V56.626H143.164V68H146.376V61.686C146.376 60.322 147.146 59.398 148.422 59.398C149.588 59.398 150.27 60.212 150.27 61.664V68H153.482V61.29C153.614 60.146 154.318 59.398 155.462 59.398C156.694 59.398 157.354 60.212 157.354 61.664V68H160.566V61.026C160.566 58.144 158.85 56.406 156.254 56.406ZM169.051 56.406C165.575 56.406 163.001 58.738 163.001 62.324C163.001 65.888 165.575 68.242 169.051 68.242C172.527 68.242 175.101 65.888 175.101 62.324C175.101 58.738 172.527 56.406 169.051 56.406ZM169.051 59.156C170.701 59.156 171.845 60.322 171.845 62.324C171.845 64.304 170.701 65.47 169.051 65.47C167.401 65.47 166.257 64.304 166.257 62.324C166.257 60.322 167.401 59.156 169.051 59.156ZM188.911 68V50.906H185.721V57.616C185.127 56.934 183.983 56.406 182.509 56.406C179.296 56.406 177.031 58.738 177.031 62.324C177.031 65.888 179.296 68.242 182.509 68.242C184.115 68.242 185.303 67.604 185.897 66.834V68H188.911ZM183.037 59.156C184.621 59.156 185.721 60.234 185.721 62.06V62.566C185.721 64.414 184.621 65.47 183.037 65.47C181.431 65.47 180.287 64.348 180.287 62.324C180.287 60.3 181.431 59.156 183.037 59.156ZM202.709 63.336V62.06C202.709 58.518 200.553 56.406 197.275 56.406C193.887 56.406 191.489 58.65 191.489 62.324C191.489 65.976 193.887 68.242 197.363 68.242C200.025 68.242 202.203 66.702 202.599 64.546L199.365 64.392C199.123 65.184 198.397 65.646 197.275 65.646C195.823 65.646 194.965 64.744 194.899 63.336H202.709ZM197.253 58.914C198.705 58.914 199.409 59.816 199.475 61.202H194.899C194.987 59.75 195.889 58.914 197.253 58.914ZM208.466 68V50.906H205.254V68H208.466ZM225.089 68L232.019 51.544H228.279L223.659 62.72L219.017 51.544H215.299L222.229 68H225.089ZM236.446 56.406C233.52 56.406 231.694 58.474 231.694 60.476L234.906 60.608C234.906 59.86 235.39 59.112 236.49 59.112C237.48 59.112 237.964 59.728 237.964 60.872V61.312L235.94 61.422C233.52 61.532 231.386 62.346 231.386 64.876C231.386 67.076 232.882 68.242 235.17 68.242C236.468 68.242 237.436 67.736 238.074 67.076V68H241.176V60.982C241.176 57.99 239.504 56.406 236.446 56.406ZM237.964 63.424V63.908C237.964 65.118 237.084 65.756 235.918 65.756C235.148 65.756 234.598 65.47 234.598 64.722C234.598 63.908 235.28 63.578 236.248 63.534L237.964 63.424ZM247.46 68V50.906H244.248V68H247.46ZM260.726 68V56.626H257.514V63.05C257.514 64.326 256.81 65.25 255.578 65.25C254.324 65.25 253.752 64.48 253.752 63.094V56.626H250.54V63.776C250.54 66.548 252.124 68.242 254.742 68.242C256.348 68.242 257.25 67.56 257.69 66.856V68H260.726ZM274.489 63.336V62.06C274.489 58.518 272.333 56.406 269.055 56.406C265.667 56.406 263.269 58.65 263.269 62.324C263.269 65.976 265.667 68.242 269.143 68.242C271.805 68.242 273.983 66.702 274.379 64.546L271.145 64.392C270.903 65.184 270.177 65.646 269.055 65.646C267.603 65.646 266.745 64.744 266.679 63.336H274.489ZM269.033 58.914C270.485 58.914 271.189 59.816 271.255 61.202H266.679C266.767 59.75 267.669 58.914 269.033 58.914ZM280.214 51.486V50.1264H275.726V51.486H277.258V54.8652H278.67V51.486H280.214ZM286.484 54.8652V50.1264H285.283L283.686 52.9908L282.089 50.1264H280.888V54.8652H282.3V52.9116L283.369 54.8124H284.003L285.072 52.9116V54.8652H286.484Z" fill="#003960"/>
<path fill-rule="evenodd" clip-rule="evenodd" d="M306.499 68.9795C311.182 68.9795 314.979 65.1832 314.979 60.5003C314.979 55.8174 311.182 52.0212 306.499 52.0212C301.816 52.0212 298.02 55.8174 298.02 60.5003C298.02 65.1832 301.816 68.9795 306.499 68.9795ZM306.499 70.5837C300.93 70.5837 296.416 66.0692 296.416 60.5003C296.416 54.9315 300.93 50.417 306.499 50.417C312.068 50.417 316.583 54.9315 316.583 60.5003C316.583 66.0692 312.068 70.5837 306.499 70.5837ZM305.491 59.492H307.508V65.542H305.491V59.492ZM306.499 57.4753C307.056 57.4753 307.508 57.0239 307.508 56.467C307.508 55.9101 307.056 55.4587 306.499 55.4587C305.942 55.4587 305.491 55.9101 305.491 56.467C305.491 57.0239 305.942 57.4753 306.499 57.4753Z" fill="#809CAF"/>
<rect x="268" y="144" width="48" height="6" rx="3" fill="#169973"/>
<rect x="272" y="150" width="40" height="45" fill="#2DD9A2"/>
<rect opacity="0.5" x="272" y="193" width="40" height="2" fill="white"/>
<rect x="272" y="195" width="40" height="44" fill="#2DD9A2"/>
<rect opacity="0.5" x="272" y="237" width="40" height="2" fill="white"/>
<rect x="272" y="239" width="40" height="44" fill="#2DD9A2"/>
<rect opacity="0.5" x="272" y="281" width="40" height="2" fill="white"/>
<rect x="272" y="283" width="40" height="44" fill="#2DD9A2"/>
<rect opacity="0.5" x="272" y="325" width="40" height="2" fill="white"/>
<rect x="272" y="327" width="40" height="43" fill="#2DD9A2"/>
<rect x="268" y="370" width="48" height="6" rx="3" fill="#169973"/>
<rect x="315" y="171" width="16" height="2" rx="1" fill="#BFCDD7"/>
<circle cx="312" cy="172" r="4" fill="white" stroke="#BFCDD7" stroke-width="2"/>
<path d="M344.236 169.924L348.058 165.528H345.916L341.842 170.218V165.528H340.176V176H341.842V172.71L343.116 171.24L346.546 176H348.59L344.236 169.924ZM350.652 165.346C350.12 165.346 349.672 165.78 349.672 166.326C349.672 166.872 350.106 167.306 350.652 167.306C351.198 167.306 351.646 166.872 351.646 166.326C351.646 165.78 351.198 165.346 350.652 165.346ZM351.436 176V168.818H349.868V176H351.436ZM356.818 174.698C356.174 174.698 355.628 174.404 355.628 173.466L355.642 170.176H357.476V168.818H355.656L355.67 166.382H354.088L354.074 168.818H352.744V170.176H354.074L354.06 173.788C354.046 175.412 355.026 176.112 356.44 176.112C356.944 176.112 357.224 176.07 357.49 176.028V174.628C357.322 174.656 357.112 174.698 356.818 174.698ZM362.151 168.692C360.079 168.692 358.553 170.05 358.553 172.416C358.553 174.768 360.093 176.14 362.151 176.14C363.901 176.14 365.189 175.132 365.469 173.494L363.929 173.354C363.789 174.236 363.131 174.782 362.151 174.782C361.003 174.782 360.149 173.928 360.149 172.416C360.149 170.89 360.989 170.036 362.151 170.036C363.103 170.036 363.803 170.61 363.915 171.548L365.455 171.408C365.217 169.714 363.873 168.692 362.151 168.692ZM368.745 165.122H367.177V176H368.745V171.898C368.745 170.904 369.417 170.148 370.411 170.148C371.363 170.148 371.979 170.806 371.979 171.884V176H373.561V171.674C373.561 169.812 372.399 168.692 370.761 168.692C369.753 168.692 369.081 169.126 368.745 169.63V165.122ZM382.204 173.004V172.234C382.204 170.05 380.902 168.692 378.844 168.692C376.758 168.692 375.26 170.078 375.26 172.416C375.26 174.74 376.772 176.14 378.886 176.14C380.552 176.14 381.854 175.118 382.134 173.844L380.552 173.76C380.356 174.404 379.754 174.782 378.844 174.782C377.752 174.782 377.01 174.096 376.926 173.004H382.204ZM378.83 170.036C379.992 170.036 380.58 170.736 380.622 171.772H376.94C377.024 170.652 377.78 170.036 378.83 170.036ZM387.605 168.692C386.555 168.692 385.869 169.14 385.505 169.77V168.818H384.021V176H385.589V171.898C385.589 170.904 386.261 170.148 387.255 170.148C388.207 170.148 388.823 170.806 388.823 171.884V176H390.405V171.674C390.405 169.812 389.243 168.692 387.605 168.692ZM399.444 168.734C398.296 168.734 397.666 169.266 397.4 169.826V168.818H395.874V176H397.442V172.094C397.442 171.044 398.212 170.26 399.444 170.26V168.734ZM407.319 173.004V172.234C407.319 170.05 406.017 168.692 403.959 168.692C401.873 168.692 400.375 170.078 400.375 172.416C400.375 174.74 401.887 176.14 404.001 176.14C405.667 176.14 406.969 175.118 407.249 173.844L405.667 173.76C405.471 174.404 404.869 174.782 403.959 174.782C402.867 174.782 402.125 174.096 402.041 173.004H407.319ZM403.945 170.036C405.107 170.036 405.695 170.736 405.737 171.772H402.055C402.139 170.652 402.895 170.036 403.945 170.036ZM417.312 168.692C416.178 168.692 415.394 169.252 414.974 169.994C414.512 169.154 413.686 168.692 412.692 168.692C411.642 168.692 410.984 169.14 410.62 169.77V168.818H409.136V176H410.704V171.898C410.704 170.904 411.348 170.148 412.342 170.148C413.196 170.148 413.784 170.806 413.784 171.884V176H415.366V171.674V171.632C415.464 170.778 416.024 170.148 416.92 170.148C417.872 170.148 418.418 170.806 418.418 171.884V176H420V171.646C420 169.868 418.922 168.692 417.312 168.692ZM425.497 168.692C423.355 168.692 421.745 170.134 421.745 172.416C421.745 174.684 423.355 176.14 425.497 176.14C427.625 176.14 429.235 174.684 429.235 172.416C429.235 170.134 427.625 168.692 425.497 168.692ZM425.497 170.036C426.729 170.036 427.653 170.918 427.653 172.416C427.653 173.9 426.729 174.782 425.497 174.782C424.251 174.782 423.341 173.9 423.341 172.416C423.341 170.918 424.251 170.036 425.497 170.036ZM437.926 176V165.122H436.358V169.686C435.966 169.126 435.154 168.692 434.076 168.692C432.074 168.692 430.618 170.12 430.618 172.416C430.618 174.698 432.074 176.14 434.076 176.14C435.196 176.14 436.05 175.664 436.442 175.006V176H437.926ZM434.328 170.036C435.504 170.036 436.358 170.806 436.358 172.22V172.598C436.358 174.026 435.504 174.782 434.328 174.782C433.11 174.782 432.214 173.942 432.214 172.416C432.214 170.89 433.11 170.036 434.328 170.036ZM446.694 173.004V172.234C446.694 170.05 445.392 168.692 443.334 168.692C441.248 168.692 439.75 170.078 439.75 172.416C439.75 174.74 441.262 176.14 443.376 176.14C445.042 176.14 446.344 175.118 446.624 173.844L445.042 173.76C444.846 174.404 444.244 174.782 443.334 174.782C442.242 174.782 441.5 174.096 441.416 173.004H446.694ZM443.32 170.036C444.482 170.036 445.07 170.736 445.112 171.772H441.43C441.514 170.652 442.27 170.036 443.32 170.036ZM450.079 176V165.122H448.511V176H450.079Z" fill="#003960"/>
<rect x="315" y="259" width="16" height="2" rx="1" fill="#BFCDD7"/>
<circle cx="312" cy="260" r="4" fill="white" stroke="#BFCDD7" stroke-width="2"/>
<path d="M349.444 264L345.006 253.528H343.592L339.168 264H340.988L341.968 261.662H346.644L347.61 264H349.444ZM342.612 260.178L344.32 256.104L346.014 260.178H342.612ZM357.439 264V253.122H355.871V257.686C355.479 257.126 354.667 256.692 353.589 256.692C351.587 256.692 350.131 258.12 350.131 260.416C350.131 262.698 351.587 264.14 353.589 264.14C354.709 264.14 355.563 263.664 355.955 263.006V264H357.439ZM353.841 258.036C355.017 258.036 355.871 258.806 355.871 260.22V260.598C355.871 262.026 355.017 262.782 353.841 262.782C352.623 262.782 351.727 261.942 351.727 260.416C351.727 258.89 352.623 258.036 353.841 258.036ZM366.572 264V253.122H365.004V257.686C364.612 257.126 363.8 256.692 362.722 256.692C360.72 256.692 359.264 258.12 359.264 260.416C359.264 262.698 360.72 264.14 362.722 264.14C363.842 264.14 364.696 263.664 365.088 263.006V264H366.572ZM362.974 258.036C364.15 258.036 365.004 258.806 365.004 260.22V260.598C365.004 262.026 364.15 262.782 362.974 262.782C361.756 262.782 360.86 261.942 360.86 260.416C360.86 258.89 361.756 258.036 362.974 258.036ZM374.717 256.692C372.925 256.692 371.861 257.966 371.861 259.226L373.443 259.282C373.443 258.638 373.835 258.064 374.731 258.064C375.613 258.064 376.005 258.638 376.005 259.562V259.772L374.297 259.87C372.827 259.954 371.665 260.5 371.665 262.04C371.665 263.384 372.631 264.14 374.059 264.14C374.857 264.14 375.501 263.832 376.005 263.356V264H377.587V259.534C377.587 257.7 376.565 256.692 374.717 256.692ZM376.019 260.99V261.242C376.019 262.334 375.319 262.824 374.325 262.824C373.695 262.824 373.247 262.614 373.247 262.012C373.247 261.368 373.779 261.13 374.521 261.088L376.019 260.99ZM391.226 256.692C390.092 256.692 389.308 257.252 388.888 257.994C388.426 257.154 387.6 256.692 386.606 256.692C385.556 256.692 384.898 257.14 384.534 257.77V256.818H383.05V264H384.618V259.898C384.618 258.904 385.262 258.148 386.256 258.148C387.11 258.148 387.698 258.806 387.698 259.884V264H389.28V259.674V259.632C389.378 258.778 389.938 258.148 390.834 258.148C391.786 258.148 392.332 258.806 392.332 259.884V264H393.914V259.646C393.914 257.868 392.836 256.692 391.226 256.692ZM398.711 256.692C396.919 256.692 395.855 257.966 395.855 259.226L397.437 259.282C397.437 258.638 397.829 258.064 398.725 258.064C399.607 258.064 399.999 258.638 399.999 259.562V259.772L398.291 259.87C396.821 259.954 395.659 260.5 395.659 262.04C395.659 263.384 396.625 264.14 398.053 264.14C398.851 264.14 399.495 263.832 399.999 263.356V264H401.581V259.534C401.581 257.7 400.559 256.692 398.711 256.692ZM400.013 260.99V261.242C400.013 262.334 399.313 262.824 398.319 262.824C397.689 262.824 397.241 262.614 397.241 262.012C397.241 261.368 397.773 261.13 398.515 261.088L400.013 260.99ZM406.087 256.692C404.351 256.692 403.357 257.574 403.357 258.862C403.357 260.304 404.393 260.612 405.849 260.962C407.025 261.242 407.403 261.382 407.403 261.97C407.403 262.502 406.899 262.782 406.185 262.782C405.331 262.782 404.869 262.404 404.785 261.746L403.217 261.844C403.385 263.272 404.435 264.14 406.157 264.14C407.907 264.14 408.971 263.286 408.971 261.844C408.971 260.556 407.977 260.108 406.493 259.73C405.541 259.506 404.925 259.45 404.925 258.834C404.925 258.344 405.303 258.036 406.045 258.036C406.843 258.036 407.221 258.456 407.277 259.058L408.845 258.974C408.705 257.7 407.795 256.692 406.087 256.692ZM413.912 262.698C413.268 262.698 412.722 262.404 412.722 261.466L412.736 258.176H414.57V256.818H412.75L412.764 254.382H411.182L411.168 256.818H409.838V258.176H411.168L411.154 261.788C411.14 263.412 412.12 264.112 413.534 264.112C414.038 264.112 414.318 264.07 414.584 264.028V262.628C414.416 262.656 414.206 262.698 413.912 262.698ZM422.591 261.004V260.234C422.591 258.05 421.289 256.692 419.231 256.692C417.145 256.692 415.647 258.078 415.647 260.416C415.647 262.74 417.159 264.14 419.273 264.14C420.939 264.14 422.241 263.118 422.521 261.844L420.939 261.76C420.743 262.404 420.141 262.782 419.231 262.782C418.139 262.782 417.397 262.096 417.313 261.004H422.591ZM419.217 258.036C420.379 258.036 420.967 258.736 421.009 259.772H417.327C417.411 258.652 418.167 258.036 419.217 258.036ZM427.977 256.734C426.829 256.734 426.199 257.266 425.933 257.826V256.818H424.407V264H425.975V260.094C425.975 259.044 426.745 258.26 427.977 258.26V256.734ZM434.247 253.122H432.679V264H434.163V263.006C434.555 263.664 435.409 264.14 436.529 264.14C438.531 264.14 439.987 262.698 439.987 260.416C439.987 258.12 438.531 256.692 436.529 256.692C435.451 256.692 434.639 257.126 434.247 257.686V253.122ZM436.277 258.036C437.495 258.036 438.391 258.89 438.391 260.416C438.391 261.942 437.495 262.782 436.277 262.782C435.101 262.782 434.247 262.026 434.247 260.598V260.22C434.247 258.806 435.101 258.036 436.277 258.036ZM444.416 256.692C442.624 256.692 441.56 257.966 441.56 259.226L443.142 259.282C443.142 258.638 443.534 258.064 444.43 258.064C445.312 258.064 445.704 258.638 445.704 259.562V259.772L443.996 259.87C442.526 259.954 441.364 260.5 441.364 262.04C441.364 263.384 442.33 264.14 443.758 264.14C444.556 264.14 445.2 263.832 445.704 263.356V264H447.286V259.534C447.286 257.7 446.264 256.692 444.416 256.692ZM445.718 260.99V261.242C445.718 262.334 445.018 262.824 444.024 262.824C443.394 262.824 442.946 262.614 442.946 262.012C442.946 261.368 443.478 261.13 444.22 261.088L445.718 260.99ZM452.59 262.698C451.946 262.698 451.4 262.404 451.4 261.466L451.414 258.176H453.248V256.818H451.428L451.442 254.382H449.86L449.846 256.818H448.516V258.176H449.846L449.832 261.788C449.818 263.412 450.798 264.112 452.212 264.112C452.716 264.112 452.996 264.07 453.262 264.028V262.628C453.094 262.656 452.884 262.698 452.59 262.698ZM456.341 253.122H454.773V264H456.341V259.898C456.341 258.904 457.013 258.148 458.007 258.148C458.959 258.148 459.575 258.806 459.575 259.884V264H461.157V259.674C461.157 257.812 459.995 256.692 458.357 256.692C457.349 256.692 456.677 257.126 456.341 257.63V253.122Z" fill="#003960"/>
<rect x="315" y="216" width="16" height="2" rx="1" fill="#BFCDD7"/>
<circle cx="312" cy="217" r="4" fill="white" stroke="#BFCDD7" stroke-width="2"/>
<path d="M351.516 212V201.528H350.06L345.86 209.48L341.646 201.528H340.176V212H341.842V205.266L345.314 211.916H346.406L349.864 205.266V212H351.516ZM356.424 204.692C354.632 204.692 353.568 205.966 353.568 207.226L355.15 207.282C355.15 206.638 355.542 206.064 356.438 206.064C357.32 206.064 357.712 206.638 357.712 207.562V207.772L356.004 207.87C354.534 207.954 353.372 208.5 353.372 210.04C353.372 211.384 354.338 212.14 355.766 212.14C356.564 212.14 357.208 211.832 357.712 211.356V212H359.294V207.534C359.294 205.7 358.272 204.692 356.424 204.692ZM357.726 208.99V209.242C357.726 210.334 357.026 210.824 356.032 210.824C355.402 210.824 354.954 210.614 354.954 210.012C354.954 209.368 355.486 209.13 356.228 209.088L357.726 208.99ZM363.799 204.692C362.063 204.692 361.069 205.574 361.069 206.862C361.069 208.304 362.105 208.612 363.561 208.962C364.737 209.242 365.115 209.382 365.115 209.97C365.115 210.502 364.611 210.782 363.897 210.782C363.043 210.782 362.581 210.404 362.497 209.746L360.929 209.844C361.097 211.272 362.147 212.14 363.869 212.14C365.619 212.14 366.683 211.286 366.683 209.844C366.683 208.556 365.689 208.108 364.205 207.73C363.253 207.506 362.637 207.45 362.637 206.834C362.637 206.344 363.015 206.036 363.757 206.036C364.555 206.036 364.933 206.456 364.989 207.058L366.557 206.974C366.417 205.7 365.507 204.692 363.799 204.692ZM371.625 210.698C370.981 210.698 370.435 210.404 370.435 209.466L370.449 206.176H372.283V204.818H370.463L370.477 202.382H368.895L368.881 204.818H367.551V206.176H368.881L368.867 209.788C368.853 211.412 369.833 212.112 371.247 212.112C371.751 212.112 372.031 212.07 372.297 212.028V210.628C372.129 210.656 371.919 210.698 371.625 210.698ZM380.304 209.004V208.234C380.304 206.05 379.002 204.692 376.944 204.692C374.858 204.692 373.36 206.078 373.36 208.416C373.36 210.74 374.872 212.14 376.986 212.14C378.652 212.14 379.954 211.118 380.234 209.844L378.652 209.76C378.456 210.404 377.854 210.782 376.944 210.782C375.852 210.782 375.11 210.096 375.026 209.004H380.304ZM376.93 206.036C378.092 206.036 378.68 206.736 378.722 207.772H375.04C375.124 206.652 375.88 206.036 376.93 206.036ZM385.69 204.734C384.542 204.734 383.912 205.266 383.646 205.826V204.818H382.12V212H383.688V208.094C383.688 207.044 384.458 206.26 385.69 206.26V204.734ZM391.96 201.122H390.392V212H391.876V211.006C392.268 211.664 393.122 212.14 394.242 212.14C396.244 212.14 397.7 210.698 397.7 208.416C397.7 206.12 396.244 204.692 394.242 204.692C393.164 204.692 392.352 205.126 391.96 205.686V201.122ZM393.99 206.036C395.208 206.036 396.104 206.89 396.104 208.416C396.104 209.942 395.208 210.782 393.99 210.782C392.814 210.782 391.96 210.026 391.96 208.598V208.22C391.96 206.806 392.814 206.036 393.99 206.036ZM406.021 209.004V208.234C406.021 206.05 404.719 204.692 402.661 204.692C400.575 204.692 399.077 206.078 399.077 208.416C399.077 210.74 400.589 212.14 402.703 212.14C404.369 212.14 405.671 211.118 405.951 209.844L404.369 209.76C404.173 210.404 403.571 210.782 402.661 210.782C401.569 210.782 400.827 210.096 400.743 209.004H406.021ZM402.647 206.036C403.809 206.036 404.397 206.736 404.439 207.772H400.757C400.841 206.652 401.597 206.036 402.647 206.036ZM414.697 212V201.122H413.129V205.686C412.737 205.126 411.925 204.692 410.847 204.692C408.845 204.692 407.389 206.12 407.389 208.416C407.389 210.698 408.845 212.14 410.847 212.14C411.967 212.14 412.821 211.664 413.213 211.006V212H414.697ZM411.099 206.036C412.275 206.036 413.129 206.806 413.129 208.22V208.598C413.129 210.026 412.275 210.782 411.099 210.782C409.881 210.782 408.985 209.942 408.985 208.416C408.985 206.89 409.881 206.036 411.099 206.036ZM420.54 204.734C419.392 204.734 418.762 205.266 418.496 205.826V204.818H416.97V212H418.538V208.094C418.538 207.044 419.308 206.26 420.54 206.26V204.734ZM425.223 204.692C423.081 204.692 421.471 206.134 421.471 208.416C421.471 210.684 423.081 212.14 425.223 212.14C427.351 212.14 428.961 210.684 428.961 208.416C428.961 206.134 427.351 204.692 425.223 204.692ZM425.223 206.036C426.455 206.036 427.379 206.918 427.379 208.416C427.379 209.9 426.455 210.782 425.223 210.782C423.977 210.782 423.067 209.9 423.067 208.416C423.067 206.918 423.977 206.036 425.223 206.036ZM434.096 204.692C431.954 204.692 430.344 206.134 430.344 208.416C430.344 210.684 431.954 212.14 434.096 212.14C436.224 212.14 437.834 210.684 437.834 208.416C437.834 206.134 436.224 204.692 434.096 204.692ZM434.096 206.036C435.328 206.036 436.252 206.918 436.252 208.416C436.252 209.9 435.328 210.782 434.096 210.782C432.85 210.782 431.94 209.9 431.94 208.416C431.94 206.918 432.85 206.036 434.096 206.036ZM447.841 204.692C446.707 204.692 445.923 205.252 445.503 205.994C445.041 205.154 444.215 204.692 443.221 204.692C442.171 204.692 441.513 205.14 441.149 205.77V204.818H439.665V212H441.233V207.898C441.233 206.904 441.877 206.148 442.871 206.148C443.725 206.148 444.313 206.806 444.313 207.884V212H445.895V207.674V207.632C445.993 206.778 446.553 206.148 447.449 206.148C448.401 206.148 448.947 206.806 448.947 207.884V212H450.529V207.646C450.529 205.868 449.451 204.692 447.841 204.692ZM343.704 222.734C342.556 222.734 341.926 223.266 341.66 223.826V222.818H340.134V230H341.702V226.094C341.702 225.044 342.472 224.26 343.704 224.26V222.734ZM351.579 227.004V226.234C351.579 224.05 350.277 222.692 348.219 222.692C346.133 222.692 344.635 224.078 344.635 226.416C344.635 228.74 346.147 230.14 348.261 230.14C349.927 230.14 351.229 229.118 351.509 227.844L349.927 227.76C349.731 228.404 349.129 228.782 348.219 228.782C347.127 228.782 346.385 228.096 346.301 227.004H351.579ZM348.205 224.036C349.367 224.036 349.955 224.736 349.997 225.772H346.315C346.399 224.652 347.155 224.036 348.205 224.036ZM361.572 222.692C360.438 222.692 359.654 223.252 359.234 223.994C358.772 223.154 357.946 222.692 356.952 222.692C355.902 222.692 355.244 223.14 354.88 223.77V222.818H353.396V230H354.964V225.898C354.964 224.904 355.608 224.148 356.602 224.148C357.456 224.148 358.044 224.806 358.044 225.884V230H359.626V225.674V225.632C359.724 224.778 360.284 224.148 361.18 224.148C362.132 224.148 362.678 224.806 362.678 225.884V230H364.26V225.646C364.26 223.868 363.182 222.692 361.572 222.692ZM369.756 222.692C367.614 222.692 366.004 224.134 366.004 226.416C366.004 228.684 367.614 230.14 369.756 230.14C371.884 230.14 373.494 228.684 373.494 226.416C373.494 224.134 371.884 222.692 369.756 222.692ZM369.756 224.036C370.988 224.036 371.912 224.918 371.912 226.416C371.912 227.9 370.988 228.782 369.756 228.782C368.51 228.782 367.6 227.9 367.6 226.416C367.6 224.918 368.51 224.036 369.756 224.036ZM382.185 230V219.122H380.617V223.686C380.225 223.126 379.413 222.692 378.335 222.692C376.333 222.692 374.877 224.12 374.877 226.416C374.877 228.698 376.333 230.14 378.335 230.14C379.455 230.14 380.309 229.664 380.701 229.006V230H382.185ZM378.587 224.036C379.763 224.036 380.617 224.806 380.617 226.22V226.598C380.617 228.026 379.763 228.782 378.587 228.782C377.369 228.782 376.473 227.942 376.473 226.416C376.473 224.89 377.369 224.036 378.587 224.036ZM390.954 227.004V226.234C390.954 224.05 389.652 222.692 387.594 222.692C385.508 222.692 384.01 224.078 384.01 226.416C384.01 228.74 385.522 230.14 387.636 230.14C389.302 230.14 390.604 229.118 390.884 227.844L389.302 227.76C389.106 228.404 388.504 228.782 387.594 228.782C386.502 228.782 385.76 228.096 385.676 227.004H390.954ZM387.58 224.036C388.742 224.036 389.33 224.736 389.372 225.772H385.69C385.774 224.652 386.53 224.036 387.58 224.036ZM394.339 230V219.122H392.771V230H394.339Z" fill="#003960"/>
<rect x="315" y="303" width="16" height="2" rx="1" fill="#BFCDD7"/>
<circle cx="312" cy="304" r="4" fill="white" stroke="#BFCDD7" stroke-width="2"/>
<path d="M349.444 299L345.006 288.528H343.592L339.168 299H340.988L341.968 296.662H346.644L347.61 299H349.444ZM342.612 295.178L344.32 291.104L346.014 295.178H342.612ZM357.439 299V288.122H355.871V292.686C355.479 292.126 354.667 291.692 353.589 291.692C351.587 291.692 350.131 293.12 350.131 295.416C350.131 297.698 351.587 299.14 353.589 299.14C354.709 299.14 355.563 298.664 355.955 298.006V299H357.439ZM353.841 293.036C355.017 293.036 355.871 293.806 355.871 295.22V295.598C355.871 297.026 355.017 297.782 353.841 297.782C352.623 297.782 351.727 296.942 351.727 295.416C351.727 293.89 352.623 293.036 353.841 293.036ZM366.572 299V288.122H365.004V292.686C364.612 292.126 363.8 291.692 362.722 291.692C360.72 291.692 359.264 293.12 359.264 295.416C359.264 297.698 360.72 299.14 362.722 299.14C363.842 299.14 364.696 298.664 365.088 298.006V299H366.572ZM362.974 293.036C364.15 293.036 365.004 293.806 365.004 295.22V295.598C365.004 297.026 364.15 297.782 362.974 297.782C361.756 297.782 360.86 296.942 360.86 295.416C360.86 293.89 361.756 293.036 362.974 293.036ZM374.717 291.692C372.925 291.692 371.861 292.966 371.861 294.226L373.443 294.282C373.443 293.638 373.835 293.064 374.731 293.064C375.613 293.064 376.005 293.638 376.005 294.562V294.772L374.297 294.87C372.827 294.954 371.665 295.5 371.665 297.04C371.665 298.384 372.631 299.14 374.059 299.14C374.857 299.14 375.501 298.832 376.005 298.356V299H377.587V294.534C377.587 292.7 376.565 291.692 374.717 291.692ZM376.019 295.99V296.242C376.019 297.334 375.319 297.824 374.325 297.824C373.695 297.824 373.247 297.614 373.247 297.012C373.247 296.368 373.779 296.13 374.521 296.088L376.019 295.99ZM383.366 291.692C382.316 291.692 381.63 292.14 381.266 292.77V291.818H379.782V299H381.35V294.898C381.35 293.904 382.022 293.148 383.016 293.148C383.968 293.148 384.584 293.806 384.584 294.884V299H386.166V294.674C386.166 292.812 385.004 291.692 383.366 291.692ZM394.24 291.692C392.448 291.692 391.384 292.966 391.384 294.226L392.966 294.282C392.966 293.638 393.358 293.064 394.254 293.064C395.136 293.064 395.528 293.638 395.528 294.562V294.772L393.82 294.87C392.35 294.954 391.188 295.5 391.188 297.04C391.188 298.384 392.154 299.14 393.582 299.14C394.38 299.14 395.024 298.832 395.528 298.356V299H397.11V294.534C397.11 292.7 396.088 291.692 394.24 291.692ZM395.542 295.99V296.242C395.542 297.334 394.842 297.824 393.848 297.824C393.218 297.824 392.77 297.614 392.77 297.012C392.77 296.368 393.302 296.13 394.044 296.088L395.542 295.99ZM402.414 297.698C401.77 297.698 401.224 297.404 401.224 296.466L401.238 293.176H403.072V291.818H401.252L401.266 289.382H399.684L399.67 291.818H398.34V293.176H399.67L399.656 296.788C399.642 298.412 400.622 299.112 402.036 299.112C402.54 299.112 402.82 299.07 403.086 299.028V297.628C402.918 297.656 402.708 297.698 402.414 297.698ZM407.801 297.698C407.157 297.698 406.611 297.404 406.611 296.466L406.625 293.176H408.459V291.818H406.639L406.653 289.382H405.071L405.057 291.818H403.727V293.176H405.057L405.043 296.788C405.029 298.412 406.009 299.112 407.423 299.112C407.927 299.112 408.207 299.07 408.473 299.028V297.628C408.305 297.656 408.095 297.698 407.801 297.698ZM412.588 291.692C410.796 291.692 409.732 292.966 409.732 294.226L411.314 294.282C411.314 293.638 411.706 293.064 412.602 293.064C413.484 293.064 413.876 293.638 413.876 294.562V294.772L412.168 294.87C410.698 294.954 409.536 295.5 409.536 297.04C409.536 298.384 410.502 299.14 411.93 299.14C412.728 299.14 413.372 298.832 413.876 298.356V299H415.458V294.534C415.458 292.7 414.436 291.692 412.588 291.692ZM413.89 295.99V296.242C413.89 297.334 413.19 297.824 412.196 297.824C411.566 297.824 411.118 297.614 411.118 297.012C411.118 296.368 411.65 296.13 412.392 296.088L413.89 295.99ZM420.804 291.692C418.732 291.692 417.206 293.05 417.206 295.416C417.206 297.768 418.746 299.14 420.804 299.14C422.554 299.14 423.842 298.132 424.122 296.494L422.582 296.354C422.442 297.236 421.784 297.782 420.804 297.782C419.656 297.782 418.802 296.928 418.802 295.416C418.802 293.89 419.642 293.036 420.804 293.036C421.756 293.036 422.456 293.61 422.568 294.548L424.108 294.408C423.87 292.714 422.526 291.692 420.804 291.692ZM427.397 288.122H425.829V299H427.397V294.898C427.397 293.904 428.069 293.148 429.063 293.148C430.015 293.148 430.631 293.806 430.631 294.884V299H432.213V294.674C432.213 292.812 431.051 291.692 429.413 291.692C428.405 291.692 427.733 292.126 427.397 292.63V288.122ZM440.857 296.004V295.234C440.857 293.05 439.555 291.692 437.497 291.692C435.411 291.692 433.913 293.078 433.913 295.416C433.913 297.74 435.425 299.14 437.539 299.14C439.205 299.14 440.507 298.118 440.787 296.844L439.205 296.76C439.009 297.404 438.407 297.782 437.497 297.782C436.405 297.782 435.663 297.096 435.579 296.004H440.857ZM437.483 293.036C438.645 293.036 439.233 293.736 439.275 294.772H435.593C435.677 293.652 436.433 293.036 437.483 293.036ZM449.533 299V288.122H447.965V292.686C447.573 292.126 446.761 291.692 445.683 291.692C443.681 291.692 442.225 293.12 442.225 295.416C442.225 297.698 443.681 299.14 445.683 299.14C446.803 299.14 447.657 298.664 448.049 298.006V299H449.533ZM445.935 293.036C447.111 293.036 447.965 293.806 447.965 295.22V295.598C447.965 297.026 447.111 297.782 445.935 297.782C444.717 297.782 443.821 296.942 443.821 295.416C443.821 293.89 444.717 293.036 445.935 293.036ZM458.181 297.698C457.537 297.698 456.991 297.404 456.991 296.466L457.005 293.176H458.839V291.818H457.019L457.033 289.382H455.451L455.437 291.818H454.107V293.176H455.437L455.423 296.788C455.409 298.412 456.389 299.112 457.803 299.112C458.307 299.112 458.587 299.07 458.853 299.028V297.628C458.685 297.656 458.475 297.698 458.181 297.698ZM468.022 299L470.766 291.818H469.072L467.35 296.438L465.6 291.818H464.494L462.758 296.438L461.036 291.818H459.342L462.086 299H463.332L465.054 294.45L466.762 299H468.022ZM475.057 291.692C472.915 291.692 471.305 293.134 471.305 295.416C471.305 297.684 472.915 299.14 475.057 299.14C477.185 299.14 478.795 297.684 478.795 295.416C478.795 293.134 477.185 291.692 475.057 291.692ZM475.057 293.036C476.289 293.036 477.213 293.918 477.213 295.416C477.213 296.9 476.289 297.782 475.057 297.782C473.811 297.782 472.901 296.9 472.901 295.416C472.901 293.918 473.811 293.036 475.057 293.036ZM343.284 309.692C341.212 309.692 339.686 311.05 339.686 313.416C339.686 315.768 341.226 317.14 343.284 317.14C345.034 317.14 346.322 316.132 346.602 314.494L345.062 314.354C344.922 315.236 344.264 315.782 343.284 315.782C342.136 315.782 341.282 314.928 341.282 313.416C341.282 311.89 342.122 311.036 343.284 311.036C344.236 311.036 344.936 311.61 345.048 312.548L346.588 312.408C346.35 310.714 345.006 309.692 343.284 309.692ZM350.914 309.692C349.122 309.692 348.058 310.966 348.058 312.226L349.64 312.282C349.64 311.638 350.032 311.064 350.928 311.064C351.81 311.064 352.202 311.638 352.202 312.562V312.772L350.494 312.87C349.024 312.954 347.862 313.5 347.862 315.04C347.862 316.384 348.828 317.14 350.256 317.14C351.054 317.14 351.698 316.832 352.202 316.356V317H353.784V312.534C353.784 310.7 352.762 309.692 350.914 309.692ZM352.216 313.99V314.242C352.216 315.334 351.516 315.824 350.522 315.824C349.892 315.824 349.444 315.614 349.444 315.012C349.444 314.368 349.976 314.13 350.718 314.088L352.216 313.99ZM359.55 309.734C358.402 309.734 357.772 310.266 357.506 310.826V309.818H355.98V317H357.548V313.094C357.548 312.044 358.318 311.26 359.55 311.26V309.734ZM367.261 309.692C365.259 309.692 363.803 311.134 363.803 313.416C363.803 315.712 365.259 317.14 367.261 317.14C368.339 317.14 369.151 316.706 369.543 316.146V317.462C369.543 318.708 368.731 319.366 367.541 319.366C366.491 319.366 365.721 318.848 365.581 318.008L364.013 318.064C364.293 319.618 365.469 320.696 367.583 320.696C369.711 320.696 371.111 319.408 371.111 317.35V309.818H369.627V310.826C369.235 310.168 368.381 309.692 367.261 309.692ZM367.513 311.05C368.689 311.05 369.543 311.806 369.543 313.234V313.612C369.543 315.026 368.689 315.796 367.513 315.796C366.295 315.796 365.399 314.942 365.399 313.416C365.399 311.89 366.295 311.05 367.513 311.05ZM375.906 309.692C374.114 309.692 373.05 310.966 373.05 312.226L374.632 312.282C374.632 311.638 375.024 311.064 375.92 311.064C376.802 311.064 377.194 311.638 377.194 312.562V312.772L375.486 312.87C374.016 312.954 372.854 313.5 372.854 315.04C372.854 316.384 373.82 317.14 375.248 317.14C376.046 317.14 376.69 316.832 377.194 316.356V317H378.776V312.534C378.776 310.7 377.754 309.692 375.906 309.692ZM377.208 313.99V314.242C377.208 315.334 376.508 315.824 375.514 315.824C374.884 315.824 374.436 315.614 374.436 315.012C374.436 314.368 374.968 314.13 375.71 314.088L377.208 313.99ZM384.542 309.734C383.394 309.734 382.764 310.266 382.498 310.826V309.818H380.972V317H382.54V313.094C382.54 312.044 383.31 311.26 384.542 311.26V309.734ZM388.58 309.692C386.788 309.692 385.724 310.966 385.724 312.226L387.306 312.282C387.306 311.638 387.698 311.064 388.594 311.064C389.476 311.064 389.868 311.638 389.868 312.562V312.772L388.16 312.87C386.69 312.954 385.528 313.5 385.528 315.04C385.528 316.384 386.494 317.14 387.922 317.14C388.72 317.14 389.364 316.832 389.868 316.356V317H391.45V312.534C391.45 310.7 390.428 309.692 388.58 309.692ZM389.882 313.99V314.242C389.882 315.334 389.182 315.824 388.188 315.824C387.558 315.824 387.11 315.614 387.11 315.012C387.11 314.368 387.642 314.13 388.384 314.088L389.882 313.99ZM396.656 309.692C394.654 309.692 393.198 311.134 393.198 313.416C393.198 315.712 394.654 317.14 396.656 317.14C397.734 317.14 398.546 316.706 398.938 316.146V317.462C398.938 318.708 398.126 319.366 396.936 319.366C395.886 319.366 395.116 318.848 394.976 318.008L393.408 318.064C393.688 319.618 394.864 320.696 396.978 320.696C399.106 320.696 400.506 319.408 400.506 317.35V309.818H399.022V310.826C398.63 310.168 397.776 309.692 396.656 309.692ZM396.908 311.05C398.084 311.05 398.938 311.806 398.938 313.234V313.612C398.938 315.026 398.084 315.796 396.908 315.796C395.69 315.796 394.794 314.942 394.794 313.416C394.794 311.89 395.69 311.05 396.908 311.05ZM409.193 314.004V313.234C409.193 311.05 407.891 309.692 405.833 309.692C403.747 309.692 402.249 311.078 402.249 313.416C402.249 315.74 403.761 317.14 405.875 317.14C407.541 317.14 408.843 316.118 409.123 314.844L407.541 314.76C407.345 315.404 406.743 315.782 405.833 315.782C404.741 315.782 403.999 315.096 403.915 314.004H409.193ZM405.819 311.036C406.981 311.036 407.569 311.736 407.611 312.772H403.929C404.013 311.652 404.769 311.036 405.819 311.036Z" fill="#003960"/>
<rect x="315" y="347" width="16" height="2" rx="1" fill="#BFCDD7"/>
<circle cx="312" cy="348" r="4" fill="white" stroke="#BFCDD7" stroke-width="2"/>
<path d="M341.842 343V332.528H340.176V343H341.842ZM352.316 335.692C351.182 335.692 350.398 336.252 349.978 336.994C349.516 336.154 348.69 335.692 347.696 335.692C346.646 335.692 345.988 336.14 345.624 336.77V335.818H344.14V343H345.708V338.898C345.708 337.904 346.352 337.148 347.346 337.148C348.2 337.148 348.788 337.806 348.788 338.884V343H350.37V338.674V338.632C350.468 337.778 351.028 337.148 351.924 337.148C352.876 337.148 353.422 337.806 353.422 338.884V343H355.004V338.646C355.004 336.868 353.926 335.692 352.316 335.692ZM361.047 335.692C359.927 335.692 359.073 336.168 358.681 336.826V335.818H357.197V346.57H358.765V342.146C359.157 342.706 359.969 343.14 361.047 343.14C363.049 343.14 364.505 341.712 364.505 339.416C364.505 337.134 363.049 335.692 361.047 335.692ZM360.795 337.05C362.013 337.05 362.909 337.89 362.909 339.416C362.909 340.942 362.013 341.796 360.795 341.796C359.619 341.796 358.765 341.026 358.765 339.612V339.234C358.765 337.806 359.619 337.05 360.795 337.05ZM369.899 335.734C368.751 335.734 368.121 336.266 367.855 336.826V335.818H366.329V343H367.897V339.094C367.897 338.044 368.667 337.26 369.899 337.26V335.734ZM374.583 335.692C372.441 335.692 370.831 337.134 370.831 339.416C370.831 341.684 372.441 343.14 374.583 343.14C376.711 343.14 378.321 341.684 378.321 339.416C378.321 337.134 376.711 335.692 374.583 335.692ZM374.583 337.036C375.815 337.036 376.739 337.918 376.739 339.416C376.739 340.9 375.815 341.782 374.583 341.782C373.337 341.782 372.427 340.9 372.427 339.416C372.427 337.918 373.337 337.036 374.583 337.036ZM383.238 343L386.332 335.818H384.596L382.608 340.62L380.592 335.818H378.87L381.978 343H383.238ZM393.812 340.004V339.234C393.812 337.05 392.51 335.692 390.452 335.692C388.366 335.692 386.868 337.078 386.868 339.416C386.868 341.74 388.38 343.14 390.494 343.14C392.16 343.14 393.462 342.118 393.742 340.844L392.16 340.76C391.964 341.404 391.362 341.782 390.452 341.782C389.36 341.782 388.618 341.096 388.534 340.004H393.812ZM390.438 337.036C391.6 337.036 392.188 337.736 392.23 338.772H388.548C388.632 337.652 389.388 337.036 390.438 337.036ZM405.392 340.004V339.234C405.392 337.05 404.09 335.692 402.032 335.692C399.946 335.692 398.448 337.078 398.448 339.416C398.448 341.74 399.96 343.14 402.074 343.14C403.74 343.14 405.042 342.118 405.322 340.844L403.74 340.76C403.544 341.404 402.942 341.782 402.032 341.782C400.94 341.782 400.198 341.096 400.114 340.004H405.392ZM402.018 337.036C403.18 337.036 403.768 337.736 403.81 338.772H400.128C400.212 337.652 400.968 337.036 402.018 337.036ZM410.768 339.346L413.05 335.818H411.188L409.62 338.282L408.024 335.818H406.162L408.43 339.318L406.106 343H407.94L409.62 340.424L411.286 343H413.162L410.768 339.346ZM417.59 341.698C416.946 341.698 416.4 341.404 416.4 340.466L416.414 337.176H418.248V335.818H416.428L416.442 333.382H414.86L414.846 335.818H413.516V337.176H414.846L414.832 340.788C414.818 342.412 415.798 343.112 417.212 343.112C417.716 343.112 417.996 343.07 418.262 343.028V341.628C418.094 341.656 417.884 341.698 417.59 341.698ZM426.269 340.004V339.234C426.269 337.05 424.967 335.692 422.909 335.692C420.823 335.692 419.325 337.078 419.325 339.416C419.325 341.74 420.837 343.14 422.951 343.14C424.617 343.14 425.919 342.118 426.199 340.844L424.617 340.76C424.421 341.404 423.819 341.782 422.909 341.782C421.817 341.782 421.075 341.096 420.991 340.004H426.269ZM422.895 337.036C424.057 337.036 424.645 337.736 424.687 338.772H421.005C421.089 337.652 421.845 337.036 422.895 337.036ZM431.655 335.734C430.507 335.734 429.877 336.266 429.611 336.826V335.818H428.085V343H429.653V339.094C429.653 338.044 430.423 337.26 431.655 337.26V335.734ZM433.873 332.346C433.341 332.346 432.893 332.78 432.893 333.326C432.893 333.872 433.327 334.306 433.873 334.306C434.419 334.306 434.867 333.872 434.867 333.326C434.867 332.78 434.419 332.346 433.873 332.346ZM434.657 343V335.818H433.089V343H434.657ZM440.235 335.692C438.093 335.692 436.483 337.134 436.483 339.416C436.483 341.684 438.093 343.14 440.235 343.14C442.363 343.14 443.973 341.684 443.973 339.416C443.973 337.134 442.363 335.692 440.235 335.692ZM440.235 337.036C441.467 337.036 442.391 337.918 442.391 339.416C442.391 340.9 441.467 341.782 440.235 341.782C438.989 341.782 438.079 340.9 438.079 339.416C438.079 337.918 438.989 337.036 440.235 337.036ZM449.374 335.734C448.226 335.734 447.596 336.266 447.33 336.826V335.818H445.804V343H447.372V339.094C447.372 338.044 448.142 337.26 449.374 337.26V335.734ZM343.284 353.692C341.212 353.692 339.686 355.05 339.686 357.416C339.686 359.768 341.226 361.14 343.284 361.14C345.034 361.14 346.322 360.132 346.602 358.494L345.062 358.354C344.922 359.236 344.264 359.782 343.284 359.782C342.136 359.782 341.282 358.928 341.282 357.416C341.282 355.89 342.122 355.036 343.284 355.036C344.236 355.036 344.936 355.61 345.048 356.548L346.588 356.408C346.35 354.714 345.006 353.692 343.284 353.692ZM351.614 353.692C349.472 353.692 347.862 355.134 347.862 357.416C347.862 359.684 349.472 361.14 351.614 361.14C353.742 361.14 355.352 359.684 355.352 357.416C355.352 355.134 353.742 353.692 351.614 353.692ZM351.614 355.036C352.846 355.036 353.77 355.918 353.77 357.416C353.77 358.9 352.846 359.782 351.614 359.782C350.368 359.782 349.458 358.9 349.458 357.416C349.458 355.918 350.368 355.036 351.614 355.036ZM360.767 353.692C359.717 353.692 359.031 354.14 358.667 354.77V353.818H357.183V361H358.751V356.898C358.751 355.904 359.423 355.148 360.417 355.148C361.369 355.148 361.985 355.806 361.985 356.884V361H363.567V356.674C363.567 354.812 362.405 353.692 360.767 353.692ZM372.629 361V350.122H371.061V354.686C370.669 354.126 369.857 353.692 368.779 353.692C366.777 353.692 365.321 355.12 365.321 357.416C365.321 359.698 366.777 361.14 368.779 361.14C369.899 361.14 370.753 360.664 371.145 360.006V361H372.629ZM369.031 355.036C370.207 355.036 371.061 355.806 371.061 357.22V357.598C371.061 359.026 370.207 359.782 369.031 359.782C367.813 359.782 366.917 358.942 366.917 357.416C366.917 355.89 367.813 355.036 369.031 355.036ZM375.686 350.346C375.154 350.346 374.706 350.78 374.706 351.326C374.706 351.872 375.14 352.306 375.686 352.306C376.232 352.306 376.68 351.872 376.68 351.326C376.68 350.78 376.232 350.346 375.686 350.346ZM376.47 361V353.818H374.902V361H376.47ZM381.851 359.698C381.207 359.698 380.661 359.404 380.661 358.466L380.675 355.176H382.509V353.818H380.689L380.703 351.382H379.121L379.107 353.818H377.777V355.176H379.107L379.093 358.788C379.079 360.412 380.059 361.112 381.473 361.112C381.977 361.112 382.257 361.07 382.523 361.028V359.628C382.355 359.656 382.145 359.698 381.851 359.698ZM384.818 350.346C384.286 350.346 383.838 350.78 383.838 351.326C383.838 351.872 384.272 352.306 384.818 352.306C385.364 352.306 385.812 351.872 385.812 351.326C385.812 350.78 385.364 350.346 384.818 350.346ZM385.602 361V353.818H384.034V361H385.602ZM391.18 353.692C389.038 353.692 387.428 355.134 387.428 357.416C387.428 359.684 389.038 361.14 391.18 361.14C393.308 361.14 394.918 359.684 394.918 357.416C394.918 355.134 393.308 353.692 391.18 353.692ZM391.18 355.036C392.412 355.036 393.336 355.918 393.336 357.416C393.336 358.9 392.412 359.782 391.18 359.782C389.934 359.782 389.024 358.9 389.024 357.416C389.024 355.918 389.934 355.036 391.18 355.036ZM400.333 353.692C399.283 353.692 398.597 354.14 398.233 354.77V353.818H396.749V361H398.317V356.898C398.317 355.904 398.989 355.148 399.983 355.148C400.935 355.148 401.551 355.806 401.551 356.884V361H403.133V356.674C403.133 354.812 401.971 353.692 400.333 353.692ZM410.171 350.122H408.603V361H410.087V360.006C410.479 360.664 411.333 361.14 412.453 361.14C414.455 361.14 415.911 359.698 415.911 357.416C415.911 355.12 414.455 353.692 412.453 353.692C411.375 353.692 410.563 354.126 410.171 354.686V350.122ZM412.201 355.036C413.419 355.036 414.315 355.89 414.315 357.416C414.315 358.942 413.419 359.782 412.201 359.782C411.025 359.782 410.171 359.026 410.171 357.598V357.22C410.171 355.806 411.025 355.036 412.201 355.036ZM419.31 364.57L423.874 353.818H422.124L420.192 358.732L418.26 353.818H416.51L419.352 360.496L417.588 364.57H419.31ZM431.157 350.388C429.183 350.388 428.035 351.592 428.007 353.594L429.673 353.692C429.687 352.544 430.163 351.872 431.199 351.872C432.095 351.872 432.585 352.474 432.585 353.412C432.585 354.63 432.151 355.232 431.045 356.408L428.035 359.628V361H434.349V359.516H430.331L432.277 357.43C433.355 356.268 434.251 355.078 434.251 353.342C434.251 351.48 433.131 350.388 431.157 350.388ZM443.091 353.692C441.971 353.692 441.117 354.168 440.725 354.826V353.818H439.241V364.57H440.809V360.146C441.201 360.706 442.013 361.14 443.091 361.14C445.093 361.14 446.549 359.712 446.549 357.416C446.549 355.134 445.093 353.692 443.091 353.692ZM442.839 355.05C444.057 355.05 444.953 355.89 444.953 357.416C444.953 358.942 444.057 359.796 442.839 359.796C441.663 359.796 440.809 359.026 440.809 357.612V357.234C440.809 355.806 441.663 355.05 442.839 355.05ZM451.678 353.692C449.536 353.692 447.926 355.134 447.926 357.416C447.926 359.684 449.536 361.14 451.678 361.14C453.806 361.14 455.416 359.684 455.416 357.416C455.416 355.134 453.806 353.692 451.678 353.692ZM451.678 355.036C452.91 355.036 453.834 355.918 453.834 357.416C453.834 358.9 452.91 359.782 451.678 359.782C450.432 359.782 449.522 358.9 449.522 357.416C449.522 355.918 450.432 355.036 451.678 355.036ZM458.031 350.346C457.499 350.346 457.051 350.78 457.051 351.326C457.051 351.872 457.485 352.306 458.031 352.306C458.577 352.306 459.025 351.872 459.025 351.326C459.025 350.78 458.577 350.346 458.031 350.346ZM458.815 361V353.818H457.247V361H458.815ZM464.673 353.692C463.623 353.692 462.937 354.14 462.573 354.77V353.818H461.089V361H462.657V356.898C462.657 355.904 463.329 355.148 464.323 355.148C465.275 355.148 465.891 355.806 465.891 356.884V361H467.473V356.674C467.473 354.812 466.311 353.692 464.673 353.692ZM472.783 359.698C472.139 359.698 471.593 359.404 471.593 358.466L471.607 355.176H473.441V353.818H471.621L471.635 351.382H470.053L470.039 353.818H468.709V355.176H470.039L470.025 358.788C470.011 360.412 470.991 361.112 472.405 361.112C472.909 361.112 473.189 361.07 473.455 361.028V359.628C473.287 359.656 473.077 359.698 472.783 359.698ZM477.276 353.692C475.54 353.692 474.546 354.574 474.546 355.862C474.546 357.304 475.582 357.612 477.038 357.962C478.214 358.242 478.592 358.382 478.592 358.97C478.592 359.502 478.088 359.782 477.374 359.782C476.52 359.782 476.058 359.404 475.974 358.746L474.406 358.844C474.574 360.272 475.624 361.14 477.346 361.14C479.096 361.14 480.16 360.286 480.16 358.844C480.16 357.556 479.166 357.108 477.682 356.73C476.73 356.506 476.114 356.45 476.114 355.834C476.114 355.344 476.492 355.036 477.234 355.036C478.032 355.036 478.41 355.456 478.466 356.058L480.034 355.974C479.894 354.7 478.984 353.692 477.276 353.692Z" fill="#003960"/>
<rect x="74" y="112" width="175" height="65" rx="16" fill="#C0F4E3"/>
<path d="M87.5967 122.528V133H89.2627V129.052H91.8807C93.7707 129.052 95.1707 127.904 95.1707 125.79C95.1707 123.662 93.7707 122.528 91.8807 122.528H87.5967ZM89.2487 123.998H91.6707C92.6647 123.998 93.4627 124.586 93.4627 125.79C93.4627 126.98 92.6647 127.568 91.6707 127.568H89.2487V123.998ZM98.3239 133V122.122H96.7559V133H98.3239ZM106.674 133V125.818H105.106V129.92C105.106 130.858 104.532 131.67 103.552 131.67C102.6 131.67 102.096 131.04 102.096 130.004V125.818H100.528V130.242C100.528 131.978 101.536 133.14 103.16 133.14C104.28 133.14 104.924 132.594 105.19 132.062V133H106.674ZM112.522 125.692C111.472 125.692 110.786 126.14 110.422 126.77V125.818H108.938V133H110.506V128.898C110.506 127.904 111.178 127.148 112.172 127.148C113.124 127.148 113.74 127.806 113.74 128.884V133H115.322V128.674C115.322 126.812 114.16 125.692 112.522 125.692ZM119.091 128.702V122.122H117.523V133H119.091V130.816L119.805 130.088L122.101 133H124.089L120.911 128.912L123.795 125.818H121.877L119.091 128.702ZM134.814 133H136.69L134.338 128.716C135.43 128.268 136.144 127.274 136.144 125.762C136.144 123.648 134.744 122.528 132.854 122.528H128.626V133H130.292V128.996H132.602L134.814 133ZM130.278 127.512V123.998H132.644C133.638 123.998 134.436 124.572 134.436 125.762C134.436 126.938 133.638 127.512 132.644 127.512H130.278ZM144.637 130.004V129.234C144.637 127.05 143.335 125.692 141.277 125.692C139.191 125.692 137.693 127.078 137.693 129.416C137.693 131.74 139.205 133.14 141.319 133.14C142.985 133.14 144.287 132.118 144.567 130.844L142.985 130.76C142.789 131.404 142.187 131.782 141.277 131.782C140.185 131.782 139.443 131.096 139.359 130.004H144.637ZM141.263 127.036C142.425 127.036 143.013 127.736 143.055 128.772H139.373C139.457 127.652 140.213 127.036 141.263 127.036ZM154.629 125.692C153.495 125.692 152.711 126.252 152.291 126.994C151.829 126.154 151.003 125.692 150.009 125.692C148.959 125.692 148.301 126.14 147.937 126.77V125.818H146.453V133H148.021V128.898C148.021 127.904 148.665 127.148 149.659 127.148C150.513 127.148 151.101 127.806 151.101 128.884V133H152.683V128.674V128.632C152.781 127.778 153.341 127.148 154.237 127.148C155.189 127.148 155.735 127.806 155.735 128.884V133H157.317V128.646C157.317 126.868 156.239 125.692 154.629 125.692ZM162.814 125.692C160.672 125.692 159.062 127.134 159.062 129.416C159.062 131.684 160.672 133.14 162.814 133.14C164.942 133.14 166.552 131.684 166.552 129.416C166.552 127.134 164.942 125.692 162.814 125.692ZM162.814 127.036C164.046 127.036 164.97 127.918 164.97 129.416C164.97 130.9 164.046 131.782 162.814 131.782C161.568 131.782 160.658 130.9 160.658 129.416C160.658 127.918 161.568 127.036 162.814 127.036ZM175.243 133V122.122H173.675V126.686C173.283 126.126 172.471 125.692 171.393 125.692C169.391 125.692 167.935 127.12 167.935 129.416C167.935 131.698 169.391 133.14 171.393 133.14C172.513 133.14 173.367 132.664 173.759 132.006V133H175.243ZM171.645 127.036C172.821 127.036 173.675 127.806 173.675 129.22V129.598C173.675 131.026 172.821 131.782 171.645 131.782C170.427 131.782 169.531 130.942 169.531 129.416C169.531 127.89 170.427 127.036 171.645 127.036ZM184.012 130.004V129.234C184.012 127.05 182.71 125.692 180.652 125.692C178.566 125.692 177.068 127.078 177.068 129.416C177.068 131.74 178.58 133.14 180.694 133.14C182.36 133.14 183.662 132.118 183.942 130.844L182.36 130.76C182.164 131.404 181.562 131.782 180.652 131.782C179.56 131.782 178.818 131.096 178.734 130.004H184.012ZM180.638 127.036C181.8 127.036 182.388 127.736 182.43 128.772H178.748C178.832 127.652 179.588 127.036 180.638 127.036ZM187.396 133V122.122H185.828V133H187.396ZM197.838 133L202.248 122.528H200.414L197.138 130.396L193.862 122.528H192.042L196.438 133H197.838ZM205.125 125.692C203.333 125.692 202.269 126.966 202.269 128.226L203.851 128.282C203.851 127.638 204.243 127.064 205.139 127.064C206.021 127.064 206.413 127.638 206.413 128.562V128.772L204.705 128.87C203.235 128.954 202.073 129.5 202.073 131.04C202.073 132.384 203.039 133.14 204.467 133.14C205.265 133.14 205.909 132.832 206.413 132.356V133H207.995V128.534C207.995 126.7 206.973 125.692 205.125 125.692ZM206.427 129.99V130.242C206.427 131.334 205.727 131.824 204.733 131.824C204.103 131.824 203.655 131.614 203.655 131.012C203.655 130.368 204.187 130.13 204.929 130.088L206.427 129.99ZM211.759 133V122.122H210.191V133H211.759ZM220.109 133V125.818H218.541V129.92C218.541 130.858 217.967 131.67 216.987 131.67C216.035 131.67 215.531 131.04 215.531 130.004V125.818H213.963V130.242C213.963 131.978 214.971 133.14 216.595 133.14C217.715 133.14 218.359 132.594 218.625 132.062V133H220.109ZM228.869 130.004V129.234C228.869 127.05 227.567 125.692 225.509 125.692C223.423 125.692 221.925 127.078 221.925 129.416C221.925 131.74 223.437 133.14 225.551 133.14C227.217 133.14 228.519 132.118 228.799 130.844L227.217 130.76C227.021 131.404 226.419 131.782 225.509 131.782C224.417 131.782 223.675 131.096 223.591 130.004H228.869ZM225.495 127.036C226.657 127.036 227.245 127.736 227.287 128.772H223.605C223.689 127.652 224.445 127.036 225.495 127.036ZM232.567 122.389V121.717H229.778V122.389H230.82V124.732H231.517V122.389H232.567ZM236.473 124.732V121.717H235.885L234.743 123.691L233.6 121.717H233.012V124.732H233.71V123.212L234.583 124.707H234.902L235.776 123.212V124.732H236.473Z" fill="#003960"/>
<path d="M117.855 157.092C117.855 153.396 115.083 152.136 110.687 151.072C107.663 150.372 106.039 149.896 106.039 147.796C106.039 146.004 107.383 144.66 109.931 144.66C112.283 144.66 113.823 145.948 113.935 148.048L117.323 147.852C117.211 144.492 114.859 142.364 111.415 141.888V138.78H108.783V141.832C104.639 142.224 102.623 144.856 102.623 147.908C102.623 151.912 105.703 152.976 109.455 153.9C112.647 154.656 114.467 155.216 114.467 157.316C114.467 159.5 112.703 160.396 110.295 160.396C107.663 160.396 105.675 158.968 105.535 156.728L102.147 156.924C102.259 160.536 104.975 162.748 108.783 163.196V166.304H111.415V163.224C115.027 162.916 117.855 161.012 117.855 157.092ZM127.464 163V142.056H125.028L119.372 146.172L120.968 148.804L124.16 146.452V163H127.464ZM132.948 159.276C131.828 159.276 131.016 160.172 131.016 161.292C131.016 162.356 131.856 163.196 132.92 163.252C132.724 164.372 132.164 165.268 131.184 165.968V167.312C133.732 165.94 134.824 163.924 134.824 161.516C134.824 160.2 134.152 159.276 132.948 159.276ZM144.476 141.776C140.752 141.776 137.98 143.904 137.98 147.516C137.98 149.588 138.988 151.1 140.556 151.912C138.708 152.808 137.476 154.572 137.476 156.98C137.476 160.9 140.5 163.28 144.504 163.28C148.508 163.28 151.532 160.9 151.532 156.98C151.532 154.544 150.272 152.78 148.424 151.884C149.964 151.072 151 149.588 151 147.516C151 143.904 148.172 141.776 144.476 141.776ZM144.504 144.744C146.324 144.744 147.696 145.808 147.696 147.684C147.696 149.504 146.324 150.568 144.504 150.568C142.712 150.568 141.312 149.504 141.312 147.684C141.312 145.808 142.712 144.744 144.504 144.744ZM144.476 153.48C146.604 153.48 148.2 154.712 148.2 156.896C148.2 159.052 146.604 160.312 144.476 160.312C142.404 160.312 140.78 159.052 140.78 156.896C140.78 154.712 142.404 153.48 144.476 153.48ZM161.288 163V142.056H158.852L153.196 146.172L154.792 148.804L157.984 146.452V163H161.288ZM171.392 141.776C167.444 141.776 165.148 144.184 165.092 148.188L168.424 148.384C168.452 146.088 169.404 144.744 171.476 144.744C173.268 144.744 174.248 145.948 174.248 147.824C174.248 150.26 173.38 151.464 171.168 153.816L165.148 160.256V163H177.776V160.032H169.74L173.632 155.86C175.788 153.536 177.58 151.156 177.58 147.684C177.58 143.96 175.34 141.776 171.392 141.776ZM181.866 159.276C180.746 159.276 179.934 160.172 179.934 161.292C179.934 162.356 180.774 163.196 181.838 163.252C181.642 164.372 181.082 165.268 180.102 165.968V167.312C182.65 165.94 183.742 163.924 183.742 161.516C183.742 160.2 183.07 159.276 181.866 159.276ZM194.01 141.776C189.39 141.776 186.282 145.584 186.282 152.528C186.282 159.444 189.39 163.28 194.01 163.28C198.602 163.28 201.71 159.444 201.71 152.528C201.71 145.584 198.602 141.776 194.01 141.776ZM194.01 144.744C196.866 144.744 198.322 147.432 198.322 152.528C198.322 157.624 196.866 160.312 194.01 160.312C191.126 160.312 189.67 157.624 189.67 152.528C189.67 147.432 191.126 144.744 194.01 144.744ZM211.298 149.952C210.066 149.952 209.058 150.232 208.246 150.708V144.996H216.814V142.056H204.942V153.928H208.022C208.862 153.284 209.786 152.92 210.962 152.92C213.006 152.92 214.294 154.32 214.294 156.56C214.294 158.744 213.118 160.312 210.878 160.312C208.806 160.312 207.714 159.08 207.546 157.064L204.214 157.26C204.41 160.928 206.762 163.28 210.85 163.28C215.078 163.28 217.626 160.536 217.626 156.476C217.626 152.304 214.938 149.952 211.298 149.952ZM227.943 141.776C223.323 141.776 220.215 145.584 220.215 152.528C220.215 159.444 223.323 163.28 227.943 163.28C232.535 163.28 235.643 159.444 235.643 152.528C235.643 145.584 232.535 141.776 227.943 141.776ZM227.943 144.744C230.799 144.744 232.255 147.432 232.255 152.528C232.255 157.624 230.799 160.312 227.943 160.312C225.059 160.312 223.603 157.624 223.603 152.528C223.603 147.432 225.059 144.744 227.943 144.744Z" fill="#003960"/>
<path d="M248 152L256 147L248 142V152Z" fill="#C0F4E3"/>
<mask id="path-34-inside-1_130_75798" fill="white">
<path d="M243 257C243 256.448 243.448 256 244 256H258C258.552 256 259 256.448 259 257C259 257.552 258.552 258 258 258H244C243.448 258 243 257.552 243 257Z"/>
</mask>
<path d="M257 257C257 258.105 257.895 259 259 259C260.105 259 261 258.105 261 257H257ZM244 258H258V254H244V258ZM258 256H244V260H258V256ZM244 256C244.552 256 245 256.448 245 257H241C241 258.657 242.343 260 244 260V256ZM257 257C257 256.448 257.448 256 258 256V260C259.657 260 261 258.657 261 257H257ZM258 258C257.448 258 257 257.552 257 257H261C261 255.343 259.657 254 258 254V258ZM244 254C242.343 254 241 255.343 241 257H245C245 257.552 244.552 258 244 258V254Z" fill="#CFDAE1" mask="url(#path-34-inside-1_130_75798)"/>
<path d="M267 151C262.582 151 259 154.701 259 159.265V360.735C259 365.299 262.582 369 267 369" stroke="#CFDAE1" stroke-width="2" stroke-linecap="round" stroke-linejoin="round"/>
<g clip-path="url(#clip0_130_75798)">
<path d="M136.223 248H138.099L135.747 243.716C136.839 243.268 137.553 242.274 137.553 240.762C137.553 238.648 136.153 237.528 134.263 237.528H130.035V248H131.701V243.996H134.011L136.223 248ZM131.687 242.512V238.998H134.053C135.047 238.998 135.845 239.572 135.845 240.762C135.845 241.938 135.047 242.512 134.053 242.512H131.687ZM146.046 245.004V244.234C146.046 242.05 144.744 240.692 142.686 240.692C140.6 240.692 139.102 242.078 139.102 244.416C139.102 246.74 140.614 248.14 142.728 248.14C144.394 248.14 145.696 247.118 145.976 245.844L144.394 245.76C144.198 246.404 143.596 246.782 142.686 246.782C141.594 246.782 140.852 246.096 140.768 245.004H146.046ZM142.672 242.036C143.834 242.036 144.422 242.736 144.464 243.772H140.782C140.866 242.652 141.622 242.036 142.672 242.036ZM156.039 240.692C154.905 240.692 154.121 241.252 153.701 241.994C153.239 241.154 152.413 240.692 151.419 240.692C150.369 240.692 149.711 241.14 149.347 241.77V240.818H147.863V248H149.431V243.898C149.431 242.904 150.075 242.148 151.069 242.148C151.923 242.148 152.511 242.806 152.511 243.884V248H154.093V243.674V243.632C154.191 242.778 154.751 242.148 155.647 242.148C156.599 242.148 157.145 242.806 157.145 243.884V248H158.727V243.646C158.727 241.868 157.649 240.692 156.039 240.692ZM164.223 240.692C162.081 240.692 160.471 242.134 160.471 244.416C160.471 246.684 162.081 248.14 164.223 248.14C166.351 248.14 167.961 246.684 167.961 244.416C167.961 242.134 166.351 240.692 164.223 240.692ZM164.223 242.036C165.455 242.036 166.379 242.918 166.379 244.416C166.379 245.9 165.455 246.782 164.223 246.782C162.977 246.782 162.067 245.9 162.067 244.416C162.067 242.918 162.977 242.036 164.223 242.036ZM176.652 248V237.122H175.084V241.686C174.692 241.126 173.88 240.692 172.802 240.692C170.8 240.692 169.344 242.12 169.344 244.416C169.344 246.698 170.8 248.14 172.802 248.14C173.922 248.14 174.776 247.664 175.168 247.006V248H176.652ZM173.054 242.036C174.23 242.036 175.084 242.806 175.084 244.22V244.598C175.084 246.026 174.23 246.782 173.054 246.782C171.836 246.782 170.94 245.942 170.94 244.416C170.94 242.89 171.836 242.036 173.054 242.036ZM185.421 245.004V244.234C185.421 242.05 184.119 240.692 182.061 240.692C179.975 240.692 178.477 242.078 178.477 244.416C178.477 246.74 179.989 248.14 182.103 248.14C183.769 248.14 185.071 247.118 185.351 245.844L183.769 245.76C183.573 246.404 182.971 246.782 182.061 246.782C180.969 246.782 180.227 246.096 180.143 245.004H185.421ZM182.047 242.036C183.209 242.036 183.797 242.736 183.839 243.772H180.157C180.241 242.652 180.997 242.036 182.047 242.036ZM188.806 248V237.122H187.238V248H188.806ZM200.423 248V240.818H198.855V244.92C198.855 245.858 198.281 246.67 197.301 246.67C196.349 246.67 195.845 246.04 195.845 245.004V240.818H194.277V245.242C194.277 246.978 195.285 248.14 196.909 248.14C198.029 248.14 198.673 247.594 198.939 247.062V248H200.423ZM206.537 240.692C205.417 240.692 204.563 241.168 204.171 241.826V240.818H202.687V251.57H204.255V247.146C204.647 247.706 205.459 248.14 206.537 248.14C208.539 248.14 209.995 246.712 209.995 244.416C209.995 242.134 208.539 240.692 206.537 240.692ZM206.285 242.05C207.503 242.05 208.399 242.89 208.399 244.416C208.399 245.942 207.503 246.796 206.285 246.796C205.109 246.796 204.255 246.026 204.255 244.612V244.234C204.255 242.806 205.109 242.05 206.285 242.05ZM214.13 240.692C212.394 240.692 211.4 241.574 211.4 242.862C211.4 244.304 212.436 244.612 213.892 244.962C215.068 245.242 215.446 245.382 215.446 245.97C215.446 246.502 214.942 246.782 214.228 246.782C213.374 246.782 212.912 246.404 212.828 245.746L211.26 245.844C211.428 247.272 212.478 248.14 214.2 248.14C215.95 248.14 217.014 247.286 217.014 245.844C217.014 244.556 216.02 244.108 214.536 243.73C213.584 243.506 212.968 243.45 212.968 242.834C212.968 242.344 213.346 242.036 214.088 242.036C214.886 242.036 215.264 242.456 215.32 243.058L216.888 242.974C216.748 241.7 215.838 240.692 214.13 240.692ZM219.631 237.346C219.099 237.346 218.651 237.78 218.651 238.326C218.651 238.872 219.085 239.306 219.631 239.306C220.177 239.306 220.625 238.872 220.625 238.326C220.625 237.78 220.177 237.346 219.631 237.346ZM220.415 248V240.818H218.847V248H220.415ZM229.549 248V237.122H227.981V241.686C227.589 241.126 226.777 240.692 225.699 240.692C223.697 240.692 222.241 242.12 222.241 244.416C222.241 246.698 223.697 248.14 225.699 248.14C226.819 248.14 227.673 247.664 228.065 247.006V248H229.549ZM225.951 242.036C227.127 242.036 227.981 242.806 227.981 244.22V244.598C227.981 246.026 227.127 246.782 225.951 246.782C224.733 246.782 223.837 245.942 223.837 244.416C223.837 242.89 224.733 242.036 225.951 242.036ZM238.318 245.004V244.234C238.318 242.05 237.016 240.692 234.958 240.692C232.872 240.692 231.374 242.078 231.374 244.416C231.374 246.74 232.886 248.14 235 248.14C236.666 248.14 237.968 247.118 238.248 245.844L236.666 245.76C236.47 246.404 235.868 246.782 234.958 246.782C233.866 246.782 233.124 246.096 233.04 245.004H238.318ZM234.944 242.036C236.106 242.036 236.694 242.736 236.736 243.772H233.054C233.138 242.652 233.894 242.036 234.944 242.036Z" fill="#003960"/>
<path d="M160.068 266.78C160.068 264.14 158.088 263.24 154.948 262.48C152.788 261.98 151.628 261.64 151.628 260.14C151.628 258.86 152.588 257.9 154.408 257.9C156.088 257.9 157.188 258.82 157.268 260.32L159.688 260.18C159.608 257.78 157.928 256.26 155.468 255.92V253.7H153.588V255.88C150.628 256.16 149.188 258.04 149.188 260.22C149.188 263.08 151.388 263.84 154.068 264.5C156.348 265.04 157.648 265.44 157.648 266.94C157.648 268.5 156.388 269.14 154.668 269.14C152.788 269.14 151.368 268.12 151.268 266.52L148.848 266.66C148.928 269.24 150.868 270.82 153.588 271.14V273.36H155.468V271.16C158.048 270.94 160.068 269.58 160.068 266.78ZM166.532 255.84C163.712 255.84 162.072 257.56 162.032 260.42L164.412 260.56C164.432 258.92 165.112 257.96 166.592 257.96C167.872 257.96 168.572 258.82 168.572 260.16C168.572 261.9 167.952 262.76 166.372 264.44L162.072 269.04V271H171.092V268.88H165.352L168.132 265.9C169.672 264.24 170.952 262.54 170.952 260.06C170.952 257.4 169.352 255.84 166.532 255.84ZM181.733 256.04H178.893L173.733 263.12C173.073 264.04 172.673 265.02 172.673 266.28C172.673 269.28 174.873 271.2 177.813 271.2C180.733 271.2 182.933 269.28 182.933 266.28C182.933 263.32 180.773 261.34 177.873 261.3L181.733 256.04ZM177.813 269.08C176.213 269.08 175.093 267.98 175.093 266.2C175.093 265.42 175.293 264.82 175.653 264.34C176.133 263.7 176.893 263.38 177.813 263.38C179.393 263.38 180.533 264.42 180.533 266.2C180.533 267.98 179.393 269.08 177.813 269.08ZM192.926 265.74V256.04H190.926L184.306 265.9V267.86H190.586V271H192.926V267.86H195.266V265.74H192.926ZM186.926 265.74L190.566 260.34V265.74H186.926ZM197.958 268.34C197.158 268.34 196.578 268.98 196.578 269.78C196.578 270.54 197.178 271.14 197.938 271.18C197.798 271.98 197.398 272.62 196.698 273.12V274.08C198.518 273.1 199.298 271.66 199.298 269.94C199.298 269 198.818 268.34 197.958 268.34ZM206.632 255.84C203.332 255.84 201.112 258.56 201.112 263.52C201.112 268.46 203.332 271.2 206.632 271.2C209.912 271.2 212.132 268.46 212.132 263.52C212.132 258.56 209.912 255.84 206.632 255.84ZM206.632 257.96C208.672 257.96 209.712 259.88 209.712 263.52C209.712 267.16 208.672 269.08 206.632 269.08C204.572 269.08 203.532 267.16 203.532 263.52C203.532 259.88 204.572 257.96 206.632 257.96ZM219.582 255.84C216.282 255.84 214.062 258.56 214.062 263.52C214.062 268.46 216.282 271.2 219.582 271.2C222.862 271.2 225.082 268.46 225.082 263.52C225.082 258.56 222.862 255.84 219.582 255.84ZM219.582 257.96C221.622 257.96 222.662 259.88 222.662 263.52C222.662 267.16 221.622 269.08 219.582 269.08C217.522 269.08 216.482 267.16 216.482 263.52C216.482 259.88 217.522 257.96 219.582 257.96ZM232.531 255.84C229.231 255.84 227.011 258.56 227.011 263.52C227.011 268.46 229.231 271.2 232.531 271.2C235.811 271.2 238.031 268.46 238.031 263.52C238.031 258.56 235.811 255.84 232.531 255.84ZM232.531 257.96C234.571 257.96 235.611 259.88 235.611 263.52C235.611 267.16 234.571 269.08 232.531 269.08C230.471 269.08 229.431 267.16 229.431 263.52C229.431 259.88 230.471 257.96 232.531 257.96Z" fill="#003960"/>
</g>
<path d="M251 378L259 373L251 368V378Z" fill="#BFCDD7"/>
<path d="M243 373C243 372.448 243.448 372 244 372H251V374H244C243.448 374 243 373.552 243 373Z" fill="#BFCDD7"/>
<g clip-path="url(#clip1_130_75798)">
<path d="M109.845 338.528V349H111.511V345.052H114.129C116.019 345.052 117.419 343.904 117.419 341.79C117.419 339.662 116.019 338.528 114.129 338.528H109.845ZM111.497 339.998H113.919C114.913 339.998 115.711 340.586 115.711 341.79C115.711 342.98 114.913 343.568 113.919 343.568H111.497V339.998ZM120.572 349V338.122H119.004V349H120.572ZM128.922 349V341.818H127.354V345.92C127.354 346.858 126.78 347.67 125.8 347.67C124.848 347.67 124.344 347.04 124.344 346.004V341.818H122.776V346.242C122.776 347.978 123.784 349.14 125.408 349.14C126.528 349.14 127.172 348.594 127.438 348.062V349H128.922ZM134.77 341.692C133.72 341.692 133.034 342.14 132.67 342.77V341.818H131.186V349H132.754V344.898C132.754 343.904 133.426 343.148 134.42 343.148C135.372 343.148 135.988 343.806 135.988 344.884V349H137.57V344.674C137.57 342.812 136.408 341.692 134.77 341.692ZM141.339 344.702V338.122H139.771V349H141.339V346.816L142.053 346.088L144.349 349H146.337L143.159 344.912L146.043 341.818H144.125L141.339 344.702ZM159.134 349V338.528H157.468V342.854H152.54V338.528H150.874V349H152.54V344.338H157.468V349H159.134ZM164.732 341.692C162.59 341.692 160.98 343.134 160.98 345.416C160.98 347.684 162.59 349.14 164.732 349.14C166.86 349.14 168.47 347.684 168.47 345.416C168.47 343.134 166.86 341.692 164.732 341.692ZM164.732 343.036C165.964 343.036 166.888 343.918 166.888 345.416C166.888 346.9 165.964 347.782 164.732 347.782C163.486 347.782 162.576 346.9 162.576 345.416C162.576 343.918 163.486 343.036 164.732 343.036ZM178.477 341.692C177.343 341.692 176.559 342.252 176.139 342.994C175.677 342.154 174.851 341.692 173.857 341.692C172.807 341.692 172.149 342.14 171.785 342.77V341.818H170.301V349H171.869V344.898C171.869 343.904 172.513 343.148 173.507 343.148C174.361 343.148 174.949 343.806 174.949 344.884V349H176.531V344.674V344.632C176.629 343.778 177.189 343.148 178.085 343.148C179.037 343.148 179.583 343.806 179.583 344.884V349H181.165V344.646C181.165 342.868 180.087 341.692 178.477 341.692ZM189.853 346.004V345.234C189.853 343.05 188.551 341.692 186.493 341.692C184.407 341.692 182.909 343.078 182.909 345.416C182.909 347.74 184.421 349.14 186.535 349.14C188.201 349.14 189.503 348.118 189.783 346.844L188.201 346.76C188.005 347.404 187.403 347.782 186.493 347.782C185.401 347.782 184.659 347.096 184.575 346.004H189.853ZM186.479 343.036C187.641 343.036 188.229 343.736 188.271 344.772H184.589C184.673 343.652 185.429 343.036 186.479 343.036ZM199.838 349L204.248 338.528H202.414L199.138 346.396L195.862 338.528H194.042L198.438 349H199.838ZM207.125 341.692C205.333 341.692 204.269 342.966 204.269 344.226L205.851 344.282C205.851 343.638 206.243 343.064 207.139 343.064C208.021 343.064 208.413 343.638 208.413 344.562V344.772L206.705 344.87C205.235 344.954 204.073 345.5 204.073 347.04C204.073 348.384 205.039 349.14 206.467 349.14C207.265 349.14 207.909 348.832 208.413 348.356V349H209.995V344.534C209.995 342.7 208.973 341.692 207.125 341.692ZM208.427 345.99V346.242C208.427 347.334 207.727 347.824 206.733 347.824C206.103 347.824 205.655 347.614 205.655 347.012C205.655 346.368 206.187 346.13 206.929 346.088L208.427 345.99ZM213.759 349V338.122H212.191V349H213.759ZM222.109 349V341.818H220.541V345.92C220.541 346.858 219.967 347.67 218.987 347.67C218.035 347.67 217.531 347.04 217.531 346.004V341.818H215.963V346.242C215.963 347.978 216.971 349.14 218.595 349.14C219.715 349.14 220.359 348.594 220.625 348.062V349H222.109ZM230.869 346.004V345.234C230.869 343.05 229.567 341.692 227.509 341.692C225.423 341.692 223.925 343.078 223.925 345.416C223.925 347.74 225.437 349.14 227.551 349.14C229.217 349.14 230.519 348.118 230.799 346.844L229.217 346.76C229.021 347.404 228.419 347.782 227.509 347.782C226.417 347.782 225.675 347.096 225.591 346.004H230.869ZM227.495 343.036C228.657 343.036 229.245 343.736 229.287 344.772H225.605C225.689 343.652 226.445 343.036 227.495 343.036ZM234.567 338.389V337.717H231.778V338.389H232.82V340.732H233.517V338.389H234.567ZM238.473 340.732V337.717H237.885L236.743 339.691L235.6 337.717H235.012V340.732H235.71V339.212L236.583 340.707H236.902L237.776 339.212V340.732H238.473Z" fill="#003960"/>
<path d="M138.21 369.358C138.21 366.454 136.032 365.464 132.578 364.628C130.202 364.078 128.926 363.704 128.926 362.054C128.926 360.646 129.982 359.59 131.984 359.59C133.832 359.59 135.042 360.602 135.13 362.252L137.792 362.098C137.704 359.458 135.856 357.786 133.15 357.412V354.97H131.082V357.368C127.826 357.676 126.242 359.744 126.242 362.142C126.242 365.288 128.662 366.124 131.61 366.85C134.118 367.444 135.548 367.884 135.548 369.534C135.548 371.25 134.162 371.954 132.27 371.954C130.202 371.954 128.64 370.832 128.53 369.072L125.868 369.226C125.956 372.064 128.09 373.802 131.082 374.154V376.596H133.15V374.176C135.988 373.934 138.21 372.438 138.21 369.358ZM145.76 374V357.544H143.846L139.402 360.778L140.656 362.846L143.164 360.998V374H145.76ZM150.069 371.074C149.189 371.074 148.551 371.778 148.551 372.658C148.551 373.494 149.211 374.154 150.047 374.198C149.893 375.078 149.453 375.782 148.683 376.332V377.388C150.685 376.31 151.543 374.726 151.543 372.834C151.543 371.8 151.015 371.074 150.069 371.074ZM158.95 363.748C157.982 363.748 157.19 363.968 156.552 364.342V359.854H163.284V357.544H153.956V366.872H156.376C157.036 366.366 157.762 366.08 158.686 366.08C160.292 366.08 161.304 367.18 161.304 368.94C161.304 370.656 160.38 371.888 158.62 371.888C156.992 371.888 156.134 370.92 156.002 369.336L153.384 369.49C153.538 372.372 155.386 374.22 158.598 374.22C161.92 374.22 163.922 372.064 163.922 368.874C163.922 365.596 161.81 363.748 158.95 363.748ZM174.976 368.214V357.544H172.776L165.494 368.39V370.546H172.402V374H174.976V370.546H177.55V368.214H174.976ZM168.376 368.214L172.38 362.274V368.214H168.376ZM184.714 357.324C181.788 357.324 179.61 358.996 179.61 361.834C179.61 363.462 180.402 364.65 181.634 365.288C180.182 365.992 179.214 367.378 179.214 369.27C179.214 372.35 181.59 374.22 184.736 374.22C187.882 374.22 190.258 372.35 190.258 369.27C190.258 367.356 189.268 365.97 187.816 365.266C189.026 364.628 189.84 363.462 189.84 361.834C189.84 358.996 187.618 357.324 184.714 357.324ZM184.736 359.656C186.166 359.656 187.244 360.492 187.244 361.966C187.244 363.396 186.166 364.232 184.736 364.232C183.328 364.232 182.228 363.396 182.228 361.966C182.228 360.492 183.328 359.656 184.736 359.656ZM184.714 366.52C186.386 366.52 187.64 367.488 187.64 369.204C187.64 370.898 186.386 371.888 184.714 371.888C183.086 371.888 181.81 370.898 181.81 369.204C181.81 367.488 183.086 366.52 184.714 366.52ZM193.854 371.074C192.974 371.074 192.336 371.778 192.336 372.658C192.336 373.494 192.996 374.154 193.832 374.198C193.678 375.078 193.238 375.782 192.468 376.332V377.388C194.47 376.31 195.328 374.726 195.328 372.834C195.328 371.8 194.8 371.074 193.854 371.074ZM203.396 357.324C199.766 357.324 197.324 360.316 197.324 365.772C197.324 371.206 199.766 374.22 203.396 374.22C207.004 374.22 209.446 371.206 209.446 365.772C209.446 360.316 207.004 357.324 203.396 357.324ZM203.396 359.656C205.64 359.656 206.784 361.768 206.784 365.772C206.784 369.776 205.64 371.888 203.396 371.888C201.13 371.888 199.986 369.776 199.986 365.772C199.986 361.768 201.13 359.656 203.396 359.656ZM217.64 357.324C214.01 357.324 211.568 360.316 211.568 365.772C211.568 371.206 214.01 374.22 217.64 374.22C221.248 374.22 223.69 371.206 223.69 365.772C223.69 360.316 221.248 357.324 217.64 357.324ZM217.64 359.656C219.884 359.656 221.028 361.768 221.028 365.772C221.028 369.776 219.884 371.888 217.64 371.888C215.374 371.888 214.23 369.776 214.23 365.772C214.23 361.768 215.374 359.656 217.64 359.656ZM231.884 357.324C228.254 357.324 225.812 360.316 225.812 365.772C225.812 371.206 228.254 374.22 231.884 374.22C235.492 374.22 237.934 371.206 237.934 365.772C237.934 360.316 235.492 357.324 231.884 357.324ZM231.884 359.656C234.128 359.656 235.272 361.768 235.272 365.772C235.272 369.776 234.128 371.888 231.884 371.888C229.618 371.888 228.474 369.776 228.474 365.772C228.474 361.768 229.618 359.656 231.884 359.656Z" fill="#003960"/>
</g>
<g clip-path="url(#clip2_130_75798)">
<path d="M309.523 436.252C309.49 434.909 308.815 433.657 307.724 432.881C304.343 430.478 300.853 428.225 297.255 426.147C296.597 425.763 295.78 425.763 295.122 426.147C291.524 428.225 288.026 430.47 284.644 432.881C283.553 433.657 282.878 434.9 282.845 436.252C282.812 437.454 282.795 438.664 282.795 439.882C282.795 442.552 282.87 445.198 283.028 447.826C283.153 449.971 284.852 451.69 286.993 451.831C289.691 452.015 292.423 452.115 295.164 452.14C295.422 452.14 295.63 451.932 295.63 451.673V446.508C295.63 446.283 295.464 446.083 295.247 446.049C293.698 445.79 292.298 445.072 291.208 444.038C290.783 443.629 290.399 443.162 290.066 442.653C288.775 440.683 288.501 438.355 289.108 436.336C289.291 435.735 289.883 435.343 290.508 435.418C292.598 435.669 294.614 436.854 295.897 438.823C296.413 439.615 296.771 440.475 296.971 441.334C297.263 440.934 297.604 440.558 298.004 440.224C299.436 439.031 301.235 438.622 302.868 438.956C303.268 439.039 303.559 439.39 303.568 439.799C303.593 441.309 303.002 442.845 301.827 444.013C300.728 445.056 299.329 445.782 297.771 446.032C297.546 446.065 297.388 446.266 297.388 446.491V451.656C297.388 451.915 297.597 452.123 297.863 452.123C300.387 452.09 302.893 451.99 305.384 451.823C307.525 451.672 309.216 449.962 309.349 447.817C309.507 445.189 309.582 442.544 309.582 439.873C309.574 438.664 309.557 437.454 309.523 436.252V436.252Z" fill="url(#paint0_linear_130_75798)"/>
<path d="M331.439 431.207C330.791 431.207 330.266 431.732 330.266 432.38V444.853C330.266 445.501 330.791 446.027 331.439 446.027C332.088 446.027 332.613 445.502 332.613 444.853V432.38C332.613 431.732 332.088 431.206 331.439 431.206V431.207Z" fill="#003960"/>
<path d="M322.927 434.9C321.384 434.9 320.058 435.487 319.102 436.443V436.205C319.102 435.629 318.635 435.162 318.059 435.162C317.483 435.162 317.016 435.629 317.016 436.205V448.145C317.016 448.799 317.546 449.33 318.2 449.33C318.854 449.33 319.384 448.799 319.384 448.145V444.984C320.297 445.788 321.514 446.288 322.927 446.288C326.143 446.288 328.381 443.767 328.381 440.594C328.381 437.421 326.121 434.9 322.927 434.9ZM322.6 444.223C320.731 444.223 319.211 442.962 319.211 440.594C319.211 438.226 320.754 436.965 322.6 436.965C324.687 436.965 326.012 438.595 326.012 440.594C326.012 442.593 324.687 444.223 322.6 444.223Z" fill="#003960"/>
<path d="M352.476 434.9C350.89 434.9 349.695 435.574 348.934 436.574V436.204C348.934 435.628 348.467 435.161 347.891 435.161C347.315 435.161 346.848 435.628 346.848 436.204V444.831C346.848 445.491 347.383 446.026 348.043 446.026C348.703 446.026 349.238 445.491 349.238 444.831V439.681C349.238 438.029 350.368 436.943 351.954 436.943C353.541 436.943 354.584 438.029 354.584 439.681V444.831C354.584 445.491 355.119 446.026 355.779 446.026C356.439 446.026 356.974 445.491 356.974 444.831V439.485C356.974 436.79 355.214 434.9 352.476 434.9H352.476Z" fill="#003960"/>
<path d="M367.697 444.241L364.381 440.029L367.654 436.58C368.039 436.163 368.013 435.514 367.597 435.129C367.181 434.745 366.531 434.77 366.146 435.186L361.425 440.268V432.39C361.425 431.736 360.895 431.206 360.241 431.206C359.587 431.206 359.057 431.736 359.057 432.39V444.842C359.057 445.496 359.587 446.026 360.241 446.026C360.895 446.026 361.425 445.496 361.425 444.842V442.593L362.642 441.31L365.937 445.592C366.31 446.078 367.007 446.169 367.493 445.796C367.978 445.423 368.07 444.726 367.697 444.24L367.697 444.241Z" fill="#003960"/>
<path d="M343.433 435.162C342.779 435.162 342.249 435.692 342.249 436.346V441.507C342.249 443.159 341.228 444.245 339.641 444.245C338.141 444.245 337.164 443.181 337.164 441.616V436.346C337.164 435.692 336.633 435.162 335.979 435.162C335.325 435.162 334.795 435.692 334.795 436.346V441.703C334.795 444.463 336.555 446.288 339.163 446.288C340.684 446.288 341.814 445.658 342.531 444.723V444.984C342.531 445.56 342.998 446.027 343.574 446.027C344.15 446.027 344.618 445.56 344.618 444.984V436.346C344.618 435.692 344.087 435.162 343.433 435.162Z" fill="#003960"/>
<path d="M367.348 431.271H366.475C366.414 431.271 366.365 431.321 366.365 431.381C366.365 431.442 366.415 431.491 366.475 431.491H366.784V432.474C366.784 432.544 366.841 432.601 366.911 432.601C366.982 432.601 367.038 432.544 367.038 432.474V431.491H367.347C367.408 431.491 367.457 431.442 367.457 431.381C367.457 431.321 367.408 431.271 367.347 431.271H367.348Z" fill="#003960"/>
<path d="M368.999 432.47L368.861 431.353C368.855 431.307 368.816 431.271 368.768 431.271C368.73 431.271 368.697 431.294 368.683 431.326L368.267 432.237L367.851 431.327C367.836 431.294 367.803 431.271 367.765 431.271C367.716 431.271 367.676 431.308 367.671 431.355L367.536 432.466C367.536 432.47 367.535 432.476 367.535 432.481C367.535 432.486 367.535 432.491 367.536 432.496C367.543 432.556 367.594 432.602 367.657 432.602C367.719 432.602 367.771 432.554 367.777 432.493L367.851 431.818L368.173 432.541C368.189 432.577 368.226 432.603 368.268 432.603C368.309 432.603 368.346 432.577 368.362 432.541L368.69 431.819L368.764 432.5C368.771 432.558 368.821 432.603 368.881 432.603C368.946 432.603 368.999 432.55 368.999 432.485C368.999 432.481 368.999 432.476 368.998 432.472L368.999 432.47Z" fill="#003960"/>
<path d="M225.296 437.533C222.897 437.533 221.143 439.155 221.143 441.903C221.143 444.65 222.913 446.288 225.329 446.288C226.832 446.288 228.041 445.612 228.677 444.606C228.746 444.5 228.786 444.374 228.786 444.238C228.786 443.864 228.483 443.561 228.108 443.561C227.846 443.561 227.619 443.709 227.506 443.926C227.13 444.636 226.359 445.048 225.296 445.048C223.807 445.048 222.731 444.071 222.649 442.449H228.499C228.869 442.449 229.169 442.149 229.169 441.779V441.672C229.169 439.173 227.712 437.534 225.296 437.534L225.296 437.533ZM222.649 441.29C222.748 439.651 223.823 438.774 225.28 438.774C226.885 438.774 227.713 439.817 227.746 441.29H222.649Z" fill="#003960"/>
<path d="M240.056 437.533C237.656 437.533 235.902 439.155 235.902 441.903C235.902 444.65 237.673 446.288 240.089 446.288C241.592 446.288 242.801 445.612 243.436 444.606C243.506 444.5 243.546 444.374 243.546 444.238C243.546 443.864 243.242 443.561 242.867 443.561C242.606 443.561 242.379 443.709 242.266 443.926C241.89 444.636 241.118 445.048 240.056 445.048C238.567 445.048 237.491 444.071 237.408 442.449H243.258C243.628 442.449 243.928 442.149 243.928 441.779V441.672C243.928 439.173 242.472 437.534 240.056 437.534L240.056 437.533ZM237.408 441.29C237.508 439.651 238.583 438.774 240.04 438.774C241.645 438.774 242.473 439.817 242.506 441.29H237.408Z" fill="#003960"/>
<path d="M207.289 441.902C207.289 444.582 205.402 446.287 202.953 446.287C200.504 446.287 198.617 444.582 198.617 441.902C198.617 439.221 200.504 437.532 202.953 437.532C205.402 437.532 207.289 439.22 207.289 441.902ZM200.056 441.902C200.056 443.871 201.314 445.046 202.953 445.046C204.592 445.046 205.849 443.871 205.849 441.902C205.849 439.932 204.592 438.774 202.953 438.774C201.314 438.774 200.056 439.932 200.056 441.902Z" fill="#003960"/>
<path d="M263.788 437.533C262.364 437.533 261.338 438.145 260.858 438.956V435.683C260.858 435.29 260.54 434.972 260.147 434.972C259.754 434.972 259.436 435.29 259.436 435.683V445.452C259.436 445.826 259.739 446.13 260.114 446.13C260.488 446.13 260.792 445.826 260.792 445.452V444.749C261.272 445.626 262.331 446.288 263.788 446.288C266.104 446.288 267.859 444.633 267.859 441.919C267.859 439.205 266.105 437.533 263.788 437.533ZM263.573 445.047C262.034 445.047 260.875 444.07 260.875 442.15V441.654C260.875 439.75 262.034 438.774 263.573 438.774C265.112 438.774 266.402 439.883 266.402 441.902C266.402 443.921 265.178 445.046 263.573 445.046V445.047Z" fill="#003960"/>
<path d="M252.881 434.972C252.488 434.972 252.17 435.29 252.17 435.683V438.956C251.706 438.145 250.664 437.533 249.257 437.533C246.94 437.533 245.186 439.188 245.186 441.919C245.186 444.65 246.94 446.288 249.257 446.288C250.697 446.288 251.772 445.626 252.252 444.749V445.452C252.252 445.822 252.552 446.122 252.922 446.122C253.292 446.122 253.592 445.822 253.592 445.452V435.684C253.592 435.291 253.274 434.972 252.881 434.972V434.972ZM252.17 442.15C252.17 444.07 251.011 445.047 249.456 445.047C247.9 445.047 246.626 443.938 246.626 441.902C246.626 439.867 247.851 438.775 249.456 438.775C251.061 438.775 252.17 439.751 252.17 441.654V442.151V442.15Z" fill="#003960"/>
<path d="M193.352 437.533C191.896 437.533 190.837 438.195 190.357 439.072V438.361C190.357 437.986 190.053 437.683 189.678 437.683C189.304 437.683 189 437.986 189 438.361V448.618C189 449.011 189.318 449.33 189.711 449.33C190.104 449.33 190.423 449.011 190.423 448.618V444.864C190.903 445.676 191.929 446.288 193.352 446.288C195.669 446.288 197.423 444.633 197.423 441.903C197.423 439.172 195.669 437.533 193.352 437.533ZM193.137 445.047C191.598 445.047 190.44 444.07 190.44 442.167V441.671C190.44 439.751 191.598 438.774 193.137 438.774C194.676 438.774 195.968 439.883 195.968 441.918C195.968 443.954 194.743 445.046 193.137 445.046V445.047Z" fill="#003960"/>
<path d="M219.134 438.143C219.237 437.873 219.498 437.682 219.804 437.682C220.2 437.682 220.522 438.003 220.522 438.399C220.522 438.486 220.506 438.57 220.478 438.648L217.838 445.586C217.721 445.901 217.419 446.125 217.063 446.125C216.708 446.125 216.401 445.897 216.286 445.579L214.225 440.085L212.161 445.585C212.044 445.9 211.741 446.125 211.386 446.125C211.03 446.125 210.731 445.904 210.613 445.592L207.977 438.661C207.948 438.583 207.932 438.498 207.932 438.41C207.932 438.01 208.256 437.686 208.655 437.686C208.966 437.686 209.233 437.881 209.335 438.157L211.428 443.809L213.537 438.154C213.642 437.88 213.907 437.685 214.218 437.685C214.529 437.685 214.799 437.884 214.901 438.163L217.022 443.809L219.135 438.143L219.134 438.143Z" fill="#003960"/>
<path d="M230.988 445.411C230.988 445.804 231.307 446.122 231.7 446.122C232.093 446.122 232.411 445.804 232.411 445.411V441.273C232.411 439.982 233.354 438.956 234.861 438.956C235.239 438.956 235.547 438.648 235.547 438.27C235.547 437.891 235.239 437.583 234.861 437.583C233.47 437.583 232.676 438.261 232.378 438.957V438.378C232.378 437.994 232.066 437.683 231.683 437.683C231.3 437.683 230.988 437.994 230.988 438.378V445.411V445.411Z" fill="#003960"/>
<path d="M270.47 448.333L271.615 445.657L268.678 438.687C268.643 438.601 268.623 438.507 268.623 438.408C268.623 438.006 268.949 437.68 269.351 437.68C269.657 437.68 269.919 437.87 270.027 438.137L272.393 444.052L274.743 438.137C274.85 437.869 275.113 437.68 275.419 437.68C275.821 437.68 276.146 438.005 276.146 438.407C276.146 438.508 276.126 438.604 276.088 438.691L271.793 448.895C271.683 449.151 271.429 449.329 271.133 449.329C270.737 449.329 270.416 449.008 270.416 448.612C270.416 448.514 270.434 448.419 270.47 448.333Z" fill="#003960"/>
</g>
</g>
<defs>
<filter id="filter0_ddd_130_75798" x="0" y="0" width="558" height="500" filterUnits="userSpaceOnUse" color-interpolation-filters="sRGB">
<feFlood flood-opacity="0" result="BackgroundImageFix"/>
<feColorMatrix in="SourceAlpha" type="matrix" values="0 0 0 0 0 0 0 0 0 0 0 0 0 0 0 0 0 0 127 0" result="hardAlpha"/>
<feOffset dy="2"/>
<feGaussianBlur stdDeviation="2"/>
<feColorMatrix type="matrix" values="0 0 0 0 0.505882 0 0 0 0 0.505882 0 0 0 0 0.505882 0 0 0 0.2 0"/>
<feBlend mode="normal" in2="BackgroundImageFix" result="effect1_dropShadow_130_75798"/>
<feColorMatrix in="SourceAlpha" type="matrix" values="0 0 0 0 0 0 0 0 0 0 0 0 0 0 0 0 0 0 127 0" result="hardAlpha"/>
<feOffset dy="1"/>
<feGaussianBlur stdDeviation="5"/>
<feColorMatrix type="matrix" values="0 0 0 0 0.505882 0 0 0 0 0.505882 0 0 0 0 0.505882 0 0 0 0.12 0"/>
<feBlend mode="normal" in2="effect1_dropShadow_130_75798" result="effect2_dropShadow_130_75798"/>
<feColorMatrix in="SourceAlpha" type="matrix" values="0 0 0 0 0 0 0 0 0 0 0 0 0 0 0 0 0 0 127 0" result="hardAlpha"/>
<feOffset dy="4"/>
<feGaussianBlur stdDeviation="2.5"/>
<feColorMatrix type="matrix" values="0 0 0 0 0.505882 0 0 0 0 0.505882 0 0 0 0 0.505882 0 0 0 0.14 0"/>
<feBlend mode="normal" in2="effect2_dropShadow_130_75798" result="effect3_dropShadow_130_75798"/>
<feBlend mode="normal" in="SourceGraphic" in2="effect3_dropShadow_130_75798" result="shape"/>
</filter>
<linearGradient id="paint0_linear_130_75798" x1="294.148" y1="422.381" x2="298.787" y2="465.136" gradientUnits="userSpaceOnUse">
<stop offset="0.22" stop-color="#43E7B0"/>
<stop offset="0.94" stop-color="#4386F5"/>
</linearGradient>
<clipPath id="clip0_130_75798">
<rect width="127" height="43" fill="white" transform="translate(112 235)"/>
</clipPath>
<clipPath id="clip1_130_75798">
<rect width="131" height="46" fill="white" transform="translate(108 336)"/>
</clipPath>
<clipPath id="clip2_130_75798">
<rect width="180" height="26.2804" fill="white" transform="translate(189 425.859)"/>
</clipPath>
</defs>
</svg>
