<?xml version="1.0" encoding="UTF-8"?><svg id="Layer_1" xmlns="http://www.w3.org/2000/svg" xmlns:xlink="http://www.w3.org/1999/xlink" viewBox="0 0 180 26.28"><defs><style>.cls-1{fill:none;}.cls-2{fill:url(#linear-gradient);}.cls-3{clip-path:url(#clippath);}.cls-4{fill:#fff;}</style><clipPath id="clippath"><rect class="cls-1" width="180" height="26.28"/></clipPath><linearGradient id="linear-gradient" x1="105.15" y1="31.48" x2="109.79" y2="-11.28" gradientTransform="translate(0 28) scale(1 -1)" gradientUnits="userSpaceOnUse"><stop offset=".22" stop-color="#43e7b0"/><stop offset=".94" stop-color="#4386f5"/></linearGradient></defs><g class="cls-3"><g><path class="cls-2" d="M120.52,10.39c-.03-1.34-.71-2.6-1.8-3.37-3.38-2.4-6.87-4.66-10.47-6.73-.66-.38-1.47-.38-2.13,0-3.6,2.08-7.1,4.32-10.48,6.73-1.09,.78-1.77,2.02-1.8,3.37-.03,1.2-.05,2.41-.05,3.63,0,2.67,.08,5.32,.23,7.94,.13,2.14,1.82,3.86,3.96,4.01,2.7,.18,5.43,.28,8.17,.31,.26,0,.47-.21,.47-.47v-5.17c0-.22-.17-.43-.38-.46-1.55-.26-2.95-.98-4.04-2.01-.43-.41-.81-.88-1.14-1.39-1.29-1.97-1.57-4.3-.96-6.32,.18-.6,.78-.99,1.4-.92,2.09,.25,4.11,1.44,5.39,3.4,.52,.79,.87,1.65,1.07,2.51,.29-.4,.63-.78,1.03-1.11,1.43-1.19,3.23-1.6,4.86-1.27,.4,.08,.69,.43,.7,.84,.03,1.51-.57,3.05-1.74,4.21-1.1,1.04-2.5,1.77-4.06,2.02-.22,.03-.38,.23-.38,.46v5.17c0,.26,.21,.47,.47,.47,2.52-.03,5.03-.13,7.52-.3,2.14-.15,3.83-1.86,3.96-4.01,.16-2.63,.23-5.27,.23-7.94,0-1.21-.03-2.42-.06-3.62h0Z"/><path class="cls-4" d="M142.44,5.35c-.65,0-1.17,.53-1.17,1.17v12.47c0,.65,.52,1.17,1.17,1.17s1.17-.53,1.17-1.17V6.52c0-.65-.52-1.17-1.17-1.17h0Z"/><path class="cls-4" d="M133.93,9.04c-1.54,0-2.87,.59-3.82,1.54v-.24c0-.58-.47-1.04-1.04-1.04s-1.04,.47-1.04,1.04v11.94c0,.65,.53,1.18,1.18,1.18s1.18-.53,1.18-1.18v-3.16c.91,.8,2.13,1.3,3.54,1.3,3.22,0,5.46-2.52,5.46-5.69s-2.26-5.69-5.46-5.69h0Zm-.33,9.32c-1.87,0-3.39-1.26-3.39-3.63s1.54-3.63,3.39-3.63c2.09,0,3.41,1.63,3.41,3.63s-1.33,3.63-3.41,3.63Z"/><path class="cls-4" d="M163.48,9.04c-1.59,0-2.78,.67-3.54,1.67v-.37c0-.58-.47-1.04-1.04-1.04s-1.04,.47-1.04,1.04v8.63c0,.66,.53,1.2,1.19,1.2s1.2-.54,1.2-1.2v-5.15c0-1.65,1.13-2.74,2.72-2.74s2.63,1.09,2.63,2.74v5.15c0,.66,.54,1.2,1.2,1.2s1.2-.54,1.2-1.2v-5.35c0-2.69-1.76-4.58-4.5-4.58h0Z"/><path class="cls-4" d="M178.7,18.38l-3.32-4.21,3.27-3.45c.38-.42,.36-1.07-.06-1.45-.42-.38-1.07-.36-1.45,.06l-4.72,5.08V6.53c0-.65-.53-1.18-1.18-1.18s-1.18,.53-1.18,1.18v12.45c0,.65,.53,1.18,1.18,1.18s1.18-.53,1.18-1.18v-2.25l1.22-1.28,3.29,4.28c.37,.49,1.07,.58,1.55,.2,.49-.37,.58-1.07,.2-1.56h0Z"/><path class="cls-4" d="M154.43,9.3c-.65,0-1.18,.53-1.18,1.18v5.16c0,1.65-1.02,2.74-2.61,2.74-1.5,0-2.48-1.06-2.48-2.63v-5.27c0-.65-.53-1.18-1.18-1.18s-1.18,.53-1.18,1.18v5.36c0,2.76,1.76,4.58,4.37,4.58,1.52,0,2.65-.63,3.37-1.56v.26c0,.58,.47,1.04,1.04,1.04s1.04-.47,1.04-1.04V10.49c0-.65-.53-1.18-1.18-1.18h0Z"/><path class="cls-4" d="M178.35,5.41h-.87c-.06,0-.11,.05-.11,.11s.05,.11,.11,.11h.31v.98c0,.07,.06,.13,.13,.13s.13-.06,.13-.13v-.98h.31c.06,0,.11-.05,.11-.11s-.05-.11-.11-.11h0Z"/><path class="cls-4" d="M180,6.61l-.14-1.12s-.04-.08-.09-.08c-.04,0-.07,.02-.09,.05l-.41,.91-.42-.91s-.05-.06-.09-.06c-.05,0-.09,.04-.09,.08l-.13,1.11h0v.03c0,.06,.06,.11,.12,.11s.12-.05,.12-.11l.07-.68,.32,.72s.05,.06,.09,.06,.08-.03,.1-.06l.33-.72,.07,.68c0,.06,.06,.1,.12,.1,.07,0,.12-.05,.12-.12h0Z"/><path class="cls-4" d="M36.3,11.67c-2.4,0-4.15,1.62-4.15,4.37s1.77,4.39,4.19,4.39c1.5,0,2.71-.68,3.35-1.68,.07-.11,.11-.23,.11-.37,0-.37-.3-.68-.68-.68-.26,0-.49,.15-.6,.36-.38,.71-1.15,1.12-2.21,1.12-1.49,0-2.57-.98-2.65-2.6h5.85c.37,0,.67-.3,.67-.67v-.11c0-2.5-1.46-4.14-3.87-4.14h0Zm-2.65,3.76c.1-1.64,1.17-2.52,2.63-2.52,1.61,0,2.43,1.04,2.47,2.52h-5.1Z"/><path class="cls-4" d="M51.06,11.67c-2.4,0-4.15,1.62-4.15,4.37s1.77,4.39,4.19,4.39c1.5,0,2.71-.68,3.35-1.68,.07-.11,.11-.23,.11-.37,0-.37-.3-.68-.68-.68-.26,0-.49,.15-.6,.36-.38,.71-1.15,1.12-2.21,1.12-1.49,0-2.57-.98-2.65-2.6h5.85c.37,0,.67-.3,.67-.67v-.11c0-2.5-1.46-4.14-3.87-4.14h0Zm-2.65,3.76c.1-1.64,1.17-2.52,2.63-2.52,1.61,0,2.43,1.04,2.47,2.52h-5.1Z"/><path class="cls-4" d="M18.29,16.04c0,2.68-1.89,4.39-4.34,4.39s-4.34-1.7-4.34-4.39,1.89-4.37,4.34-4.37,4.34,1.69,4.34,4.37h0Zm-7.23,0c0,1.97,1.26,3.14,2.9,3.14s2.9-1.17,2.9-3.14-1.26-3.13-2.9-3.13-2.9,1.16-2.9,3.13h0Z"/><path class="cls-4" d="M74.79,11.67c-1.42,0-2.45,.61-2.93,1.42v-3.27c0-.39-.32-.71-.71-.71s-.71,.32-.71,.71v9.77c0,.37,.3,.68,.68,.68s.68-.3,.68-.68v-.7c.48,.88,1.54,1.54,3,1.54,2.32,0,4.07-1.65,4.07-4.37s-1.75-4.39-4.07-4.39h0Zm-.21,7.51c-1.54,0-2.7-.98-2.7-2.9v-.5c0-1.9,1.16-2.88,2.7-2.88s2.83,1.11,2.83,3.13-1.22,3.14-2.83,3.14h0Z"/><path class="cls-4" d="M63.88,9.11c-.39,0-.71,.32-.71,.71v3.27c-.46-.81-1.51-1.42-2.91-1.42-2.32,0-4.07,1.65-4.07,4.39s1.75,4.37,4.07,4.37c1.44,0,2.52-.66,3-1.54v.7c0,.37,.3,.67,.67,.67s.67-.3,.67-.67V9.82c0-.39-.32-.71-.71-.71h0Zm-.71,7.18c0,1.92-1.16,2.9-2.71,2.9s-2.83-1.11-2.83-3.14,1.22-3.13,2.83-3.13,2.71,.98,2.71,2.88v.5h0Z"/><path class="cls-4" d="M4.35,11.67c-1.46,0-2.52,.66-3,1.54v-.71c0-.37-.3-.68-.68-.68s-.68,.3-.68,.68v10.26c0,.39,.32,.71,.71,.71s.71-.32,.71-.71v-3.75c.48,.81,1.51,1.42,2.93,1.42,2.32,0,4.07-1.65,4.07-4.39s-1.75-4.37-4.07-4.37h0Zm-.21,7.51c-1.54,0-2.7-.98-2.7-2.88v-.5c0-1.92,1.16-2.9,2.7-2.9s2.83,1.11,2.83,3.14-1.22,3.13-2.83,3.13h0Z"/><path class="cls-4" d="M30.13,12.28c.1-.27,.36-.46,.67-.46,.4,0,.72,.32,.72,.72,0,.09-.02,.17-.04,.25l-2.64,6.94c-.12,.31-.42,.54-.77,.54s-.66-.23-.78-.55l-2.06-5.49-2.06,5.5c-.12,.32-.42,.54-.77,.54s-.65-.22-.77-.53l-2.64-6.93c-.03-.08-.05-.16-.05-.25,0-.4,.32-.72,.72-.72,.31,0,.58,.2,.68,.47l2.09,5.65,2.11-5.65c.1-.27,.37-.47,.68-.47s.58,.2,.68,.48l2.12,5.65,2.11-5.67h0Z"/><path class="cls-4" d="M41.99,19.55c0,.39,.32,.71,.71,.71s.71-.32,.71-.71v-4.14c0-1.29,.94-2.32,2.45-2.32,.38,0,.69-.31,.69-.69s-.31-.69-.69-.69c-1.39,0-2.18,.68-2.48,1.37v-.58c0-.38-.31-.69-.69-.69s-.69,.31-.69,.69v7.03h0Z"/><path class="cls-4" d="M81.47,22.47l1.14-2.68-2.94-6.97c-.04-.09-.06-.18-.06-.28,0-.4,.33-.73,.73-.73,.31,0,.57,.19,.68,.46l2.37,5.91,2.35-5.91c.11-.27,.37-.46,.68-.46,.4,0,.73,.33,.73,.73,0,.1-.02,.2-.06,.28l-4.3,10.2c-.11,.26-.36,.43-.66,.43-.4,0-.72-.32-.72-.72,0-.1,.02-.19,.05-.28h0Z"/></g></g></svg>